{
copyright = "Copyright \U00A9 2014 Haoyun Su. See LICENSE file for redistribution details.";
date = "2014-07-04 20:15:34 +0000";
designer = "Haoyun Su";
designerURL = "http://haoyunsu.com";
familyName = "EyesAsia";
fontMaster = (
{
ascender = 900;
capHeight = 800;
descender = "-100";
id = "8AC23886-B8FB-470C-B711-F8E78732F9C5";
xHeight = 700;
}
);
glyphs = (
{
glyphname = A;
lastChange = "2014-07-05 08:27:36 -0500";
layers = (
{
layerId = "8AC23886-B8FB-470C-B711-F8E78732F9C5";
name = Regular;
paths = (
{
closed = 1;
nodes = (
"641 644 OFFCURVE",
"638 647 OFFCURVE",
"633 648 CURVE SMOOTH",
"620 650 OFFCURVE",
"649 623 OFFCURVE",
"648 632 CURVE",
"648 627 OFFCURVE",
"643 624 OFFCURVE",
"643 619 CURVE SMOOTH",
"642 613 OFFCURVE",
"641 615 OFFCURVE",
"643 610 CURVE SMOOTH",
"644 607 OFFCURVE",
"632 606 OFFCURVE",
"631 606 CURVE SMOOTH",
"627 605 OFFCURVE",
"627 599 OFFCURVE",
"624 597 CURVE SMOOTH",
"624 597 OFFCURVE",
"629 585 OFFCURVE",
"627 580 CURVE SMOOTH",
"622 572 OFFCURVE",
"632 576 OFFCURVE",
"633 575 CURVE SMOOTH",
"635 574 OFFCURVE",
"643 568 OFFCURVE",
"635 565 CURVE SMOOTH",
"626 563 OFFCURVE",
"634 560 OFFCURVE",
"633 557 CURVE SMOOTH",
"628 549 OFFCURVE",
"638 533 OFFCURVE",
"625 529 CURVE SMOOTH",
"616 527 OFFCURVE",
"619 521 OFFCURVE",
"624 515 CURVE SMOOTH",
"627 511 OFFCURVE",
"627 505 OFFCURVE",
"630 503 CURVE",
"630 503 OFFCURVE",
"632 493 OFFCURVE",
"633 492 CURVE SMOOTH",
"634 486 OFFCURVE",
"639 484 OFFCURVE",
"641 479 CURVE SMOOTH",
"644 473 OFFCURVE",
"661 456 OFFCURVE",
"670 459 CURVE SMOOTH",
"675 461 OFFCURVE",
"698 455 OFFCURVE",
"700 449 CURVE SMOOTH",
"701 442 OFFCURVE",
"710 442 OFFCURVE",
"713 439 CURVE SMOOTH",
"717 433 OFFCURVE",
"716 430 OFFCURVE",
"723 432 CURVE SMOOTH",
"736 436 OFFCURVE",
"723 418 OFFCURVE",
"738 421 CURVE SMOOTH",
"746 424 OFFCURVE",
"757 412 OFFCURVE",
"764 415 CURVE",
"767 417 OFFCURVE",
"768 416 OFFCURVE",
"768 412 CURVE SMOOTH",
"768 406 OFFCURVE",
"771 409 OFFCURVE",
"775 409 CURVE SMOOTH",
"777 409 OFFCURVE",
"787 401 OFFCURVE",
"788 400 CURVE SMOOTH",
"794 393 OFFCURVE",
"793 400 OFFCURVE",
"800 399 CURVE SMOOTH",
"808 398 OFFCURVE",
"806 392 OFFCURVE",
"813 393 CURVE SMOOTH",
"813 393 OFFCURVE",
"818 389 OFFCURVE",
"820 389 CURVE SMOOTH",
"824 389 OFFCURVE",
"832 393 OFFCURVE",
"834 395 CURVE SMOOTH",
"838 398 OFFCURVE",
"851 398 OFFCURVE",
"853 391 CURVE SMOOTH",
"855 380 OFFCURVE",
"869 381 OFFCURVE",
"874 374 CURVE",
"860 373 OFFCURVE",
"872 373 OFFCURVE",
"873 371 CURVE SMOOTH",
"878 363 OFFCURVE",
"872 362 OFFCURVE",
"880 363 CURVE SMOOTH",
"885 364 OFFCURVE",
"877 346 OFFCURVE",
"877 346 CURVE",
"883 331 OFFCURVE",
"887 342 OFFCURVE",
"893 335 CURVE SMOOTH",
"901 327 OFFCURVE",
"901 341 OFFCURVE",
"906 333 CURVE SMOOTH",
"908 331 OFFCURVE",
"922 317 OFFCURVE",
"918 329 CURVE SMOOTH",
"917 332 OFFCURVE",
"917 344 OFFCURVE",
"922 341 CURVE SMOOTH",
"925 339 OFFCURVE",
"936 324 OFFCURVE",
"937 328 CURVE",
"937 327 OFFCURVE",
"946 324 OFFCURVE",
"948 325 CURVE SMOOTH",
"949 326 OFFCURVE",
"943 343 OFFCURVE",
"944 344 CURVE SMOOTH",
"947 347 OFFCURVE",
"952 339 OFFCURVE",
"953 339 CURVE",
"955 349 OFFCURVE",
"971 342 OFFCURVE",
"975 343 CURVE SMOOTH",
"976 344 OFFCURVE",
"975 354 OFFCURVE",
"976 355 CURVE SMOOTH",
"980 360 OFFCURVE",
"981 353 OFFCURVE",
"982 359 CURVE SMOOTH",
"983 362 OFFCURVE",
"976 377 OFFCURVE",
"987 371 CURVE SMOOTH",
"994 368 OFFCURVE",
"1021 362 OFFCURVE",
"1022 352 CURVE SMOOTH",
"1022 344 OFFCURVE",
"1032 337 OFFCURVE",
"1030 329 CURVE SMOOTH",
"1028 321 OFFCURVE",
"1034 312 OFFCURVE",
"1038 305 CURVE SMOOTH",
"1044 297 OFFCURVE",
"1052 294 OFFCURVE",
"1044 286 CURVE SMOOTH",
"1040 283 OFFCURVE",
"1037 297 OFFCURVE",
"1035 287 CURVE SMOOTH",
"1033 280 OFFCURVE",
"1042 264 OFFCURVE",
"1045 258 CURVE SMOOTH",
"1050 248 OFFCURVE",
"1045 231 OFFCURVE",
"1047 218 CURVE SMOOTH",
"1049 198 OFFCURVE",
"1042 181 OFFCURVE",
"1046 160 CURVE",
"1038 159 OFFCURVE",
"1040 159 OFFCURVE",
"1041 151 CURVE",
"1040 149 OFFCURVE",
"1038 147 OFFCURVE",
"1036 146 CURVE",
"1033 140 OFFCURVE",
"1038 143 OFFCURVE",
"1038 140 CURVE SMOOTH",
"1038 133 OFFCURVE",
"1030 139 OFFCURVE",
"1029 144 CURVE SMOOTH",
"1029 152 OFFCURVE",
"1026 147 OFFCURVE",
"1020 147 CURVE",
"1021 144 OFFCURVE",
"1022 133 OFFCURVE",
"1019 131 CURVE SMOOTH",
"1011 128 OFFCURVE",
"1021 114 OFFCURVE",
"1022 110 CURVE SMOOTH",
"1024 102 OFFCURVE",
"1009 98 OFFCURVE",
"1004 98 CURVE SMOOTH",
"1001 98 OFFCURVE",
"1002 113 OFFCURVE",
"997 115 CURVE SMOOTH",
"991 117 OFFCURVE",
"996 108 OFFCURVE",
"996 107 CURVE SMOOTH",
"995 104 OFFCURVE",
"991 106 OFFCURVE",
"990 102 CURVE SMOOTH",
"990 100 OFFCURVE",
"981 104 OFFCURVE",
"981 106 CURVE SMOOTH",
"981 109 OFFCURVE",
"980 116 OFFCURVE",
"976 115 CURVE SMOOTH",
"969 114 OFFCURVE",
"970 118 OFFCURVE",
"968 123 CURVE SMOOTH",
"963 137 OFFCURVE",
"956 115 OFFCURVE",
"955 115 CURVE SMOOTH",
"945 110 OFFCURVE",
"949 106 OFFCURVE",
"948 98 CURVE SMOOTH",
"946 86 OFFCURVE",
"946 96 OFFCURVE",
"938 89 CURVE SMOOTH",
"928 80 OFFCURVE",
"931 87 OFFCURVE",
"922 93 CURVE SMOOTH",
"916 97 OFFCURVE",
"911 101 OFFCURVE",
"905 105 CURVE SMOOTH",
"901 109 OFFCURVE",
"894 117 OFFCURVE",
"889 118 CURVE SMOOTH",
"884 119 OFFCURVE",
"880 116 OFFCURVE",
"875 119 CURVE SMOOTH",
"871 123 OFFCURVE",
"869 125 OFFCURVE",
"862 124 CURVE SMOOTH",
"857 124 OFFCURVE",
"852 121 OFFCURVE",
"847 119 CURVE SMOOTH",
"841 116 OFFCURVE",
"840 109 OFFCURVE",
"834 107 CURVE SMOOTH",
"824 103 OFFCURVE",
"814 100 OFFCURVE",
"805 96 CURVE SMOOTH",
"792 92 OFFCURVE",
"784 97 OFFCURVE",
"773 89 CURVE SMOOTH",
"768 85 OFFCURVE",
"764 82 OFFCURVE",
"759 78 CURVE SMOOTH",
"756 75 OFFCURVE",
"755 69 OFFCURVE",
"751 66 CURVE SMOOTH",
"743 60 OFFCURVE",
"724 62 OFFCURVE",
"714 63 CURVE SMOOTH",
"705 64 OFFCURVE",
"695 72 OFFCURVE",
"687 72 CURVE SMOOTH",
"678 73 OFFCURVE",
"661 66 OFFCURVE",
"660 79 CURVE SMOOTH",
"659 83 OFFCURVE",
"657 85 OFFCURVE",
"658 89 CURVE SMOOTH",
"659 93 OFFCURVE",
"664 94 OFFCURVE",
"664 98 CURVE SMOOTH",
"665 112 OFFCURVE",
"652 108 OFFCURVE",
"644 113 CURVE SMOOTH",
"636 118 OFFCURVE",
"647 129 OFFCURVE",
"641 134 CURVE SMOOTH",
"639 136 OFFCURVE",
"644 136 OFFCURVE",
"644 137 CURVE SMOOTH",
"643 139 OFFCURVE",
"637 144 OFFCURVE",
"637 145 CURVE SMOOTH",
"634 149 OFFCURVE",
"626 150 OFFCURVE",
"622 146 CURVE SMOOTH",
"614 137 OFFCURVE",
"610 148 OFFCURVE",
"603 155 CURVE SMOOTH",
"597 161 OFFCURVE",
"587 158 OFFCURVE",
"581 164 CURVE SMOOTH",
"574 171 OFFCURVE",
"569 167 OFFCURVE",
"562 171 CURVE SMOOTH",
"555 176 OFFCURVE",
"548 177 OFFCURVE",
"540 172 CURVE SMOOTH",
"532 167 OFFCURVE",
"518 156 OFFCURVE",
"513 147 CURVE SMOOTH",
"509 141 OFFCURVE",
"513 126 OFFCURVE",
"501 126 CURVE SMOOTH",
"497 125 OFFCURVE",
"491 143 OFFCURVE",
"492 146 CURVE SMOOTH",
"495 156 OFFCURVE",
"504 161 OFFCURVE",
"501 173 CURVE SMOOTH",
"498 187 OFFCURVE",
"483 178 OFFCURVE",
"476 176 CURVE SMOOTH",
"467 173 OFFCURVE",
"463 173 OFFCURVE",
"455 177 CURVE SMOOTH",
"445 182 OFFCURVE",
"444 173 OFFCURVE",
"434 177 CURVE SMOOTH",
"430 178 OFFCURVE",
"413 180 OFFCURVE",
"411 184 CURVE SMOOTH",
"408 191 OFFCURVE",
"400 195 OFFCURVE",
"395 202 CURVE SMOOTH",
"388 213 OFFCURVE",
"380 195 OFFCURVE",
"376 197 CURVE SMOOTH",
"370 199 OFFCURVE",
"365 213 OFFCURVE",
"365 214 CURVE",
"359 211 OFFCURVE",
"357 192 OFFCURVE",
"354 208 CURVE SMOOTH",
"353 210 OFFCURVE",
"346 233 OFFCURVE",
"345 233 CURVE SMOOTH",
"338 233 OFFCURVE",
"345 227 OFFCURVE",
"336 232 CURVE SMOOTH",
"330 236 OFFCURVE",
"321 231 OFFCURVE",
"316 239 CURVE SMOOTH",
"313 246 OFFCURVE",
"329 253 OFFCURVE",
"320 258 CURVE SMOOTH",
"316 261 OFFCURVE",
"312 255 OFFCURVE",
"308 256 CURVE SMOOTH",
"300 257 OFFCURVE",
"300 262 OFFCURVE",
"296 267 CURVE SMOOTH",
"288 276 OFFCURVE",
"275 283 OFFCURVE",
"280 298 CURVE SMOOTH",
"283 305 OFFCURVE",
"273 312 OFFCURVE",
"266 312 CURVE SMOOTH",
"259 313 OFFCURVE",
"252 302 OFFCURVE",
"248 313 CURVE SMOOTH",
"246 317 OFFCURVE",
"246 328 OFFCURVE",
"243 331 CURVE SMOOTH",
"239 334 OFFCURVE",
"230 349 OFFCURVE",
"225 348 CURVE SMOOTH",
"216 347 OFFCURVE",
"219 357 OFFCURVE",
"215 360 CURVE SMOOTH",
"209 364 OFFCURVE",
"207 374 OFFCURVE",
"200 378 CURVE SMOOTH",
"194 382 OFFCURVE",
"195 389 OFFCURVE",
"196 395 CURVE SMOOTH",
"196 397 OFFCURVE",
"183 402 OFFCURVE",
"181 404 CURVE SMOOTH",
"177 407 OFFCURVE",
"168 411 OFFCURVE",
"163 409 CURVE SMOOTH",
"157 407 OFFCURVE",
"161 399 OFFCURVE",
"152 399 CURVE SMOOTH",
"151 399 OFFCURVE",
"146 384 OFFCURVE",
"142 396 CURVE SMOOTH",
"139 405 OFFCURVE",
"138 408 OFFCURVE",
"132 415 CURVE SMOOTH",
"128 422 OFFCURVE",
"123 425 OFFCURVE",
"117 430 CURVE SMOOTH",
"113 434 OFFCURVE",
"103 439 OFFCURVE",
"100 444 CURVE SMOOTH",
"98 446 OFFCURVE",
"93 473 OFFCURVE",
"87 471 CURVE SMOOTH",
"79 468 OFFCURVE",
"82 477 OFFCURVE",
"76 479 CURVE SMOOTH",
"69 481 OFFCURVE",
"72 475 OFFCURVE",
"64 480 CURVE SMOOTH",
"55 486 OFFCURVE",
"57 497 OFFCURVE",
"51 464 CURVE SMOOTH",
"50 461 OFFCURVE",
"52 516 OFFCURVE",
"56 518 CURVE SMOOTH",
"64 522 OFFCURVE",
"51 530 OFFCURVE",
"57 536 CURVE SMOOTH",
"63 544 OFFCURVE",
"59 540 OFFCURVE",
"56 549 CURVE SMOOTH",
"53 558 OFFCURVE",
"50 556 OFFCURVE",
"55 564 CURVE SMOOTH",
"58 568 OFFCURVE",
"54 577 OFFCURVE",
"57 581 CURVE SMOOTH",
"59 583 OFFCURVE",
"74 587 OFFCURVE",
"75 582 CURVE SMOOTH",
"76 573 OFFCURVE",
"72 568 OFFCURVE",
"81 561 CURVE SMOOTH",
"83 560 OFFCURVE",
"96 567 OFFCURVE",
"97 570 CURVE SMOOTH",
"102 577 OFFCURVE",
"105 602 OFFCURVE",
"101 610 CURVE SMOOTH",
"97 615 OFFCURVE",
"91 629 OFFCURVE",
"91 635 CURVE SMOOTH",
"91 641 OFFCURVE",
"96 642 OFFCURVE",
"97 647 CURVE SMOOTH",
"97 650 OFFCURVE",
"97 665 OFFCURVE",
"99 665 CURVE SMOOTH",
"107 669 OFFCURVE",
"113 669 OFFCURVE",
"120 675 CURVE SMOOTH",
"122 677 OFFCURVE",
"121 683 OFFCURVE",
"127 680 CURVE SMOOTH",
"131 679 OFFCURVE",
"135 677 OFFCURVE",
"139 675 CURVE SMOOTH",
"143 673 OFFCURVE",
"151 675 OFFCURVE",
"154 673 CURVE SMOOTH",
"160 668 OFFCURVE",
"161 675 OFFCURVE",
"164 678 CURVE SMOOTH",
"169 682 OFFCURVE",
"168 691 OFFCURVE",
"175 695 CURVE",
"177 697 OFFCURVE",
"178 699 OFFCURVE",
"178 702 CURVE",
"179 706 OFFCURVE",
"185 703 OFFCURVE",
"188 704 CURVE",
"187 704 OFFCURVE",
"198 713 OFFCURVE",
"197 709 CURVE",
"198 715 OFFCURVE",
"197 719 OFFCURVE",
"204 721 CURVE SMOOTH",
"205 721 OFFCURVE",
"215 710 OFFCURVE",
"219 709 CURVE SMOOTH",
"222 709 OFFCURVE",
"225 706 OFFCURVE",
"227 704 CURVE SMOOTH",
"233 701 OFFCURVE",
"229 711 OFFCURVE",
"234 709 CURVE SMOOTH",
"238 707 OFFCURVE",
"273 675 OFFCURVE",
"277 691 CURVE SMOOTH",
"279 698 OFFCURVE",
"282 698 OFFCURVE",
"289 699 CURVE SMOOTH",
"296 700 OFFCURVE",
"294 705 OFFCURVE",
"300 708 CURVE SMOOTH",
"304 710 OFFCURVE",
"310 705 OFFCURVE",
"312 702 CURVE SMOOTH",
"315 698 OFFCURVE",
"318 702 OFFCURVE",
"322 700 CURVE SMOOTH",
"328 696 OFFCURVE",
"323 687 OFFCURVE",
"331 680 CURVE SMOOTH",
"334 677 OFFCURVE",
"346 675 OFFCURVE",
"350 673 CURVE SMOOTH",
"357 670 OFFCURVE",
"370 673 OFFCURVE",
"374 669 CURVE SMOOTH",
"378 662 OFFCURVE",
"392 668 OFFCURVE",
"392 673 CURVE",
"392 670 OFFCURVE",
"421 677 OFFCURVE",
"422 677 CURVE",
"422 677 OFFCURVE",
"434 676 OFFCURVE",
"434 677 CURVE",
"436 675 OFFCURVE",
"443 670 OFFCURVE",
"444 668 CURVE SMOOTH",
"448 660 OFFCURVE",
"449 668 OFFCURVE",
"454 669 CURVE SMOOTH",
"457 670 OFFCURVE",
"474 669 OFFCURVE",
"474 673 CURVE SMOOTH",
"474 676 OFFCURVE",
"478 676 OFFCURVE",
"479 679 CURVE SMOOTH",
"480 689 OFFCURVE",
"489 686 OFFCURVE",
"494 689 CURVE SMOOTH",
"498 692 OFFCURVE",
"518 688 OFFCURVE",
"524 687 CURVE SMOOTH",
"531 686 OFFCURVE",
"530 687 OFFCURVE",
"537 689 CURVE SMOOTH",
"547 691 OFFCURVE",
"544 684 OFFCURVE",
"554 684 CURVE SMOOTH",
"565 685 OFFCURVE",
"575 683 OFFCURVE",
"586 683 CURVE SMOOTH",
"590 683 OFFCURVE",
"595 683 OFFCURVE",
"599 680 CURVE SMOOTH",
"601 678 OFFCURVE",
"603 670 OFFCURVE",
"605 669 CURVE SMOOTH",
"612 666 OFFCURVE",
"607 678 OFFCURVE",
"615 668 CURVE SMOOTH",
"616 667 OFFCURVE",
"624 663 OFFCURVE",
"625 663 CURVE SMOOTH",
"628 666 OFFCURVE",
"638 654 OFFCURVE",
"646 649 CURVE"
);
}
);
width = 1097.37;
}
);
unicode = 0041;
},
{
glyphname = B;
lastChange = "2014-07-05 08:27:45 -0500";
layers = (
{
layerId = "8AC23886-B8FB-470C-B711-F8E78732F9C5";
name = Regular;
paths = (
{
closed = 1;
nodes = (
"834 167 OFFCURVE",
"818 164 OFFCURVE",
"805 161 CURVE SMOOTH",
"797 160 OFFCURVE",
"789 160 OFFCURVE",
"781 159 CURVE SMOOTH",
"776 158 OFFCURVE",
"770 163 OFFCURVE",
"766 162 CURVE",
"767 161 OFFCURVE",
"754 152 OFFCURVE",
"752 153 CURVE SMOOTH",
"750 153 OFFCURVE",
"746 156 OFFCURVE",
"743 155 CURVE SMOOTH",
"739 154 OFFCURVE",
"745 150 OFFCURVE",
"743 148 CURVE SMOOTH",
"738 139 OFFCURVE",
"754 143 OFFCURVE",
"756 142 CURVE SMOOTH",
"763 141 OFFCURVE",
"743 111 OFFCURVE",
"754 107 CURVE SMOOTH",
"762 105 OFFCURVE",
"763 100 OFFCURVE",
"764 95 CURVE SMOOTH",
"764 92 OFFCURVE",
"769 92 OFFCURVE",
"772 90 CURVE SMOOTH",
"774 89 OFFCURVE",
"775 78 OFFCURVE",
"775 75 CURVE SMOOTH",
"775 71 OFFCURVE",
"778 69 OFFCURVE",
"778 65 CURVE SMOOTH",
"778 60 OFFCURVE",
"772 65 OFFCURVE",
"770 63 CURVE SMOOTH",
"765 59 OFFCURVE",
"750 61 OFFCURVE",
"749 54 CURVE SMOOTH",
"748 48 OFFCURVE",
"746 41 OFFCURVE",
"754 39 CURVE SMOOTH",
"761 37 OFFCURVE",
"761 27 OFFCURVE",
"759 22 CURVE SMOOTH",
"755 14 OFFCURVE",
"760 13 OFFCURVE",
"749 9 CURVE SMOOTH",
"745 7 OFFCURVE",
"740 16 OFFCURVE",
"737 18 CURVE SMOOTH",
"730 21 OFFCURVE",
"724 21 OFFCURVE",
"717 24 CURVE SMOOTH",
"714 26 OFFCURVE",
"717 29 OFFCURVE",
"712 31 CURVE SMOOTH",
"712 31 OFFCURVE",
"709 24 OFFCURVE",
"708 24 CURVE SMOOTH",
"702 20 OFFCURVE",
"699 22 OFFCURVE",
"690 27 CURVE SMOOTH",
"687 29 OFFCURVE",
"677 41 OFFCURVE",
"675 39 CURVE SMOOTH",
"673 37 OFFCURVE",
"668 41 OFFCURVE",
"665 43 CURVE",
"665 45 OFFCURVE",
"663 47 OFFCURVE",
"661 47 CURVE",
"659 46 OFFCURVE",
"658 45 OFFCURVE",
"656 44 CURVE",
"652 48 OFFCURVE",
"651 53 OFFCURVE",
"646 56 CURVE SMOOTH",
"643 58 OFFCURVE",
"639 56 OFFCURVE",
"636 58 CURVE SMOOTH",
"631 61 OFFCURVE",
"612 59 OFFCURVE",
"606 58 CURVE SMOOTH",
"600 57 OFFCURVE",
"602 63 OFFCURVE",
"597 64 CURVE SMOOTH",
"593 65 OFFCURVE",
"588 61 OFFCURVE",
"585 60 CURVE SMOOTH",
"582 58 OFFCURVE",
"575 63 OFFCURVE",
"572 63 CURVE SMOOTH",
"566 64 OFFCURVE",
"557 59 OFFCURVE",
"551 63 CURVE SMOOTH",
"545 67 OFFCURVE",
"533 53 OFFCURVE",
"531 48 CURVE SMOOTH",
"530 45 OFFCURVE",
"503 41 OFFCURVE",
"504 40 CURVE",
"501 44 OFFCURVE",
"496 45 OFFCURVE",
"495 50 CURVE SMOOTH",
"494 52 OFFCURVE",
"486 50 OFFCURVE",
"484 51 CURVE SMOOTH",
"484 51 OFFCURVE",
"453 47 OFFCURVE",
"453 47 CURVE SMOOTH",
"451 44 OFFCURVE",
"441 37 OFFCURVE",
"435 43 CURVE SMOOTH",
"431 48 OFFCURVE",
"419 45 OFFCURVE",
"413 47 CURVE SMOOTH",
"410 49 OFFCURVE",
"400 55 OFFCURVE",
"396 54 CURVE SMOOTH",
"386 51 OFFCURVE",
"393 76 OFFCURVE",
"384 75 CURVE SMOOTH",
"378 74 OFFCURVE",
"379 74 OFFCURVE",
"374 78 CURVE SMOOTH",
"370 81 OFFCURVE",
"364 83 OFFCURVE",
"363 77 CURVE SMOOTH",
"361 72 OFFCURVE",
"354 73 OFFCURVE",
"350 72 CURVE SMOOTH",
"344 70 OFFCURVE",
"345 64 OFFCURVE",
"341 63 CURVE SMOOTH",
"335 62 OFFCURVE",
"328 63 OFFCURVE",
"322 65 CURVE SMOOTH",
"318 66 OFFCURVE",
"320 74 OFFCURVE",
"316 73 CURVE SMOOTH",
"307 72 OFFCURVE",
"307 80 OFFCURVE",
"302 82 CURVE SMOOTH",
"299 83 OFFCURVE",
"299 78 OFFCURVE",
"299 77 CURVE SMOOTH",
"299 75 OFFCURVE",
"290 81 OFFCURVE",
"291 81 CURVE",
"289 82 OFFCURVE",
"274 93 OFFCURVE",
"274 93 CURVE",
"266 91 OFFCURVE",
"269 85 OFFCURVE",
"267 82 CURVE SMOOTH",
"263 78 OFFCURVE",
"251 80 OFFCURVE",
"249 72 CURVE SMOOTH",
"248 69 OFFCURVE",
"241 64 OFFCURVE",
"239 61 CURVE SMOOTH",
"237 57 OFFCURVE",
"236 54 OFFCURVE",
"234 51 CURVE SMOOTH",
"227 43 OFFCURVE",
"224 52 OFFCURVE",
"215 49 CURVE SMOOTH",
"213 49 OFFCURVE",
"202 52 OFFCURVE",
"202 53 CURVE SMOOTH",
"197 59 OFFCURVE",
"195 51 OFFCURVE",
"194 50 CURVE",
"193 52 OFFCURVE",
"179 66 OFFCURVE",
"178 66 CURVE SMOOTH",
"172 67 OFFCURVE",
"167 77 OFFCURVE",
"166 81 CURVE SMOOTH",
"164 88 OFFCURVE",
"171 101 OFFCURVE",
"166 108 CURVE SMOOTH",
"163 112 OFFCURVE",
"170 130 OFFCURVE",
"174 127 CURVE",
"172 129 OFFCURVE",
"158 132 OFFCURVE",
"156 131 CURVE SMOOTH",
"150 130 OFFCURVE",
"140 140 OFFCURVE",
"135 143 CURVE SMOOTH",
"129 146 OFFCURVE",
"123 153 OFFCURVE",
"118 158 CURVE SMOOTH",
"113 164 OFFCURVE",
"117 175 OFFCURVE",
"109 173 CURVE SMOOTH",
"99 171 OFFCURVE",
"96 174 OFFCURVE",
"96 184 CURVE SMOOTH",
"96 191 OFFCURVE",
"86 190 OFFCURVE",
"97 198 CURVE SMOOTH",
"106 206 OFFCURVE",
"99 241 OFFCURVE",
"85 234 CURVE SMOOTH",
"80 232 OFFCURVE",
"87 249 OFFCURVE",
"83 250 CURVE SMOOTH",
"76 251 OFFCURVE",
"74 262 OFFCURVE",
"66 256 CURVE SMOOTH",
"64 255 OFFCURVE",
"60 264 OFFCURVE",
"56 265 CURVE SMOOTH",
"53 267 OFFCURVE",
"50 263 OFFCURVE",
"50 270 CURVE SMOOTH",
"50 280 OFFCURVE",
"56 276 OFFCURVE",
"63 276 CURVE SMOOTH",
"67 276 OFFCURVE",
"76 268 OFFCURVE",
"82 274 CURVE SMOOTH",
"89 282 OFFCURVE",
"70 291 OFFCURVE",
"81 297 CURVE SMOOTH",
"84 299 OFFCURVE",
"86 313 OFFCURVE",
"84 317 CURVE SMOOTH",
"81 326 OFFCURVE",
"95 338 OFFCURVE",
"90 343 CURVE SMOOTH",
"83 350 OFFCURVE",
"79 357 OFFCURVE",
"69 360 CURVE SMOOTH",
"62 363 OFFCURVE",
"57 351 OFFCURVE",
"53 364 CURVE SMOOTH",
"51 368 OFFCURVE",
"51 383 OFFCURVE",
"58 382 CURVE SMOOTH",
"63 381 OFFCURVE",
"57 398 OFFCURVE",
"56 401 CURVE SMOOTH",
"50 417 OFFCURVE",
"66 409 OFFCURVE",
"73 414 CURVE SMOOTH",
"81 420 OFFCURVE",
"75 427 OFFCURVE",
"82 432 CURVE SMOOTH",
"89 438 OFFCURVE",
"94 445 OFFCURVE",
"104 438 CURVE SMOOTH",
"109 434 OFFCURVE",
"120 446 OFFCURVE",
"125 444 CURVE SMOOTH",
"138 441 OFFCURVE",
"127 445 OFFCURVE",
"132 450 CURVE SMOOTH",
"133 451 OFFCURVE",
"146 442 OFFCURVE",
"153 444 CURVE SMOOTH",
"156 446 OFFCURVE",
"169 453 OFFCURVE",
"167 443 CURVE SMOOTH",
"164 433 OFFCURVE",
"160 429 OFFCURVE",
"170 425 CURVE SMOOTH",
"173 424 OFFCURVE",
"185 426 OFFCURVE",
"188 426 CURVE SMOOTH",
"192 426 OFFCURVE",
"189 420 OFFCURVE",
"194 422 CURVE SMOOTH",
"199 424 OFFCURVE",
"202 428 OFFCURVE",
"207 431 CURVE SMOOTH",
"212 435 OFFCURVE",
"214 444 OFFCURVE",
"220 448 CURVE SMOOTH",
"230 455 OFFCURVE",
"233 447 OFFCURVE",
"241 445 CURVE SMOOTH",
"248 443 OFFCURVE",
"260 435 OFFCURVE",
"265 442 CURVE SMOOTH",
"271 449 OFFCURVE",
"279 441 OFFCURVE",
"284 450 CURVE SMOOTH",
"288 455 OFFCURVE",
"302 449 OFFCURVE",
"307 453 CURVE SMOOTH",
"314 457 OFFCURVE",
"331 459 OFFCURVE",
"338 460 CURVE SMOOTH",
"345 460 OFFCURVE",
"350 461 OFFCURVE",
"356 461 CURVE SMOOTH",
"362 461 OFFCURVE",
"360 464 OFFCURVE",
"365 466 CURVE SMOOTH",
"370 467 OFFCURVE",
"376 460 OFFCURVE",
"379 466 CURVE SMOOTH",
"385 477 OFFCURVE",
"386 483 OFFCURVE",
"387 494 CURVE SMOOTH",
"388 507 OFFCURVE",
"400 503 OFFCURVE",
"409 505 CURVE SMOOTH",
"409 505 OFFCURVE",
"398 514 OFFCURVE",
"408 517 CURVE SMOOTH",
"414 518 OFFCURVE",
"424 515 OFFCURVE",
"421 526 CURVE SMOOTH",
"420 530 OFFCURVE",
"424 532 OFFCURVE",
"424 536 CURVE SMOOTH",
"425 542 OFFCURVE",
"424 548 OFFCURVE",
"423 553 CURVE SMOOTH",
"422 566 OFFCURVE",
"423 577 OFFCURVE",
"425 590 CURVE SMOOTH",
"426 594 OFFCURVE",
"431 601 OFFCURVE",
"429 605 CURVE SMOOTH",
"428 609 OFFCURVE",
"424 611 OFFCURVE",
"425 615 CURVE SMOOTH",
"425 619 OFFCURVE",
"411 618 OFFCURVE",
"416 626 CURVE SMOOTH",
"420 632 OFFCURVE",
"449 631 OFFCURVE",
"455 628 CURVE SMOOTH",
"461 625 OFFCURVE",
"478 626 OFFCURVE",
"484 628 CURVE SMOOTH",
"494 631 OFFCURVE",
"498 624 OFFCURVE",
"505 619 CURVE SMOOTH",
"508 617 OFFCURVE",
"519 612 OFFCURVE",
"523 612 CURVE SMOOTH",
"534 614 OFFCURVE",
"518 632 OFFCURVE",
"519 637 CURVE SMOOTH",
"525 656 OFFCURVE",
"544 668 OFFCURVE",
"553 686 CURVE SMOOTH",
"558 695 OFFCURVE",
"564 701 OFFCURVE",
"569 709 CURVE SMOOTH",
"574 719 OFFCURVE",
"578 718 OFFCURVE",
"586 710 CURVE SMOOTH",
"598 696 OFFCURVE",
"616 690 OFFCURVE",
"634 690 CURVE SMOOTH",
"639 690 OFFCURVE",
"636 683 OFFCURVE",
"640 681 CURVE SMOOTH",
"645 679 OFFCURVE",
"649 686 OFFCURVE",
"654 686 CURVE SMOOTH",
"664 685 OFFCURVE",
"680 689 OFFCURVE",
"676 704 CURVE SMOOTH",
"673 715 OFFCURVE",
"680 762 OFFCURVE",
"700 756 CURVE SMOOTH",
"710 754 OFFCURVE",
"715 753 OFFCURVE",
"725 756 CURVE SMOOTH",
"731 758 OFFCURVE",
"739 770 OFFCURVE",
"736 776 CURVE SMOOTH",
"733 785 OFFCURVE",
"750 786 OFFCURVE",
"755 784 CURVE SMOOTH",
"757 783 OFFCURVE",
"763 778 OFFCURVE",
"766 779 CURVE SMOOTH",
"769 781 OFFCURVE",
"766 783 OFFCURVE",
"772 782 CURVE SMOOTH",
"781 781 OFFCURVE",
"783 772 OFFCURVE",
"775 768 CURVE SMOOTH",
"771 765 OFFCURVE",
"775 762 OFFCURVE",
"777 759 CURVE SMOOTH",
"782 753 OFFCURVE",
"781 754 OFFCURVE",
"780 747 CURVE SMOOTH",
"780 745 OFFCURVE",
"793 732 OFFCURVE",
"795 731 CURVE SMOOTH",
"800 728 OFFCURVE",
"796 725 OFFCURVE",
"798 720 CURVE SMOOTH",
"799 716 OFFCURVE",
"804 714 OFFCURVE",
"807 711 CURVE SMOOTH",
"816 705 OFFCURVE",
"814 705 OFFCURVE",
"825 704 CURVE SMOOTH",
"834 702 OFFCURVE",
"833 689 OFFCURVE",
"842 689 CURVE SMOOTH",
"852 690 OFFCURVE",
"844 686 OFFCURVE",
"851 680 CURVE SMOOTH",
"857 676 OFFCURVE",
"859 670 OFFCURVE",
"859 662 CURVE SMOOTH",
"858 644 OFFCURVE",
"871 634 OFFCURVE",
"872 617 CURVE SMOOTH",
"873 608 OFFCURVE",
"867 603 OFFCURVE",
"864 596 CURVE SMOOTH",
"863 591 OFFCURVE",
"866 586 OFFCURVE",
"864 580 CURVE SMOOTH",
"863 575 OFFCURVE",
"857 572 OFFCURVE",
"854 569 CURVE SMOOTH",
"846 563 OFFCURVE",
"845 554 OFFCURVE",
"847 546 CURVE SMOOTH",
"848 543 OFFCURVE",
"848 533 OFFCURVE",
"851 533 CURVE SMOOTH",
"857 532 OFFCURVE",
"866 524 OFFCURVE",
"870 525 CURVE",
"869 525 OFFCURVE",
"888 518 OFFCURVE",
"890 518 CURVE SMOOTH",
"899 516 OFFCURVE",
"905 511 OFFCURVE",
"914 510 CURVE SMOOTH",
"923 509 OFFCURVE",
"934 508 OFFCURVE",
"942 506 CURVE SMOOTH",
"955 501 OFFCURVE",
"975 484 OFFCURVE",
"981 473 CURVE SMOOTH",
"983 468 OFFCURVE",
"993 460 OFFCURVE",
"996 457 CURVE SMOOTH",
"998 455 OFFCURVE",
"1003 451 OFFCURVE",
"1006 451 CURVE SMOOTH",
"1007 451 OFFCURVE",
"1021 451 OFFCURVE",
"1022 449 CURVE SMOOTH",
"1024 447 OFFCURVE",
"1013 436 OFFCURVE",
"1017 434 CURVE SMOOTH",
"1027 429 OFFCURVE",
"1027 426 OFFCURVE",
"1029 415 CURVE SMOOTH",
"1030 405 OFFCURVE",
"1031 391 OFFCURVE",
"1036 383 CURVE SMOOTH",
"1043 372 OFFCURVE",
"1049 369 OFFCURVE",
"1049 356 CURVE SMOOTH",
"1049 351 OFFCURVE",
"1034 350 OFFCURVE",
"1032 341 CURVE SMOOTH",
"1030 333 OFFCURVE",
"1038 329 OFFCURVE",
"1034 321 CURVE SMOOTH",
"1032 317 OFFCURVE",
"1036 315 OFFCURVE",
"1032 311 CURVE SMOOTH",
"1028 308 OFFCURVE",
"1024 306 OFFCURVE",
"1019 306 CURVE SMOOTH",
"1014 306 OFFCURVE",
"992 297 OFFCURVE",
"993 295 CURVE",
"989 301 OFFCURVE",
"992 306 OFFCURVE",
"983 303 CURVE SMOOTH",
"974 301 OFFCURVE",
"968 294 OFFCURVE",
"959 292 CURVE SMOOTH",
"949 289 OFFCURVE",
"939 277 OFFCURVE",
"932 270 CURVE SMOOTH",
"925 264 OFFCURVE",
"925 249 OFFCURVE",
"915 251 CURVE SMOOTH",
"908 252 OFFCURVE",
"890 256 OFFCURVE",
"886 251 CURVE SMOOTH",
"884 249 OFFCURVE",
"883 245 OFFCURVE",
"882 242 CURVE SMOOTH",
"880 236 OFFCURVE",
"876 234 OFFCURVE",
"873 229 CURVE SMOOTH",
"868 217 OFFCURVE",
"867 204 OFFCURVE",
"861 193 CURVE SMOOTH",
"854 177 OFFCURVE",
"847 185 OFFCURVE",
"847 167 CURVE"
);
}
);
width = 1099;
}
);
unicode = 0042;
},
{
glyphname = C;
lastChange = "2014-07-05 08:28:11 -0500";
layers = (
{
layerId = "8AC23886-B8FB-470C-B711-F8E78732F9C5";
name = Regular;
paths = (
{
closed = 1;
nodes = (
"422 5 OFFCURVE",
"420 18 OFFCURVE",
"409 16 CURVE SMOOTH",
"405 15 OFFCURVE",
"400 18 OFFCURVE",
"395 19 CURVE SMOOTH",
"386 23 OFFCURVE",
"390 24 OFFCURVE",
"393 30 CURVE SMOOTH",
"395 36 OFFCURVE",
"393 44 OFFCURVE",
"398 50 CURVE SMOOTH",
"399 52 OFFCURVE",
"406 57 OFFCURVE",
"406 59 CURVE SMOOTH",
"407 64 OFFCURVE",
"396 90 OFFCURVE",
"390 78 CURVE SMOOTH",
"389 74 OFFCURVE",
"381 78 OFFCURVE",
"380 74 CURVE SMOOTH",
"379 66 OFFCURVE",
"378 70 OFFCURVE",
"374 67 CURVE SMOOTH",
"366 62 OFFCURVE",
"362 43 OFFCURVE",
"361 34 CURVE SMOOTH",
"361 29 OFFCURVE",
"363 27 OFFCURVE",
"359 22 CURVE SMOOTH",
"355 16 OFFCURVE",
"362 13 OFFCURVE",
"360 8 CURVE SMOOTH",
"357 -6 OFFCURVE",
"344 -1 OFFCURVE",
"335 -6 CURVE SMOOTH",
"323 -13 OFFCURVE",
"310 -12 OFFCURVE",
"297 -14 CURVE SMOOTH",
"291 -15 OFFCURVE",
"296 -20 OFFCURVE",
"288 -12 CURVE SMOOTH",
"282 -6 OFFCURVE",
"276 0 OFFCURVE",
"269 5 CURVE SMOOTH",
"257 13 OFFCURVE",
"271 19 OFFCURVE",
"269 27 CURVE SMOOTH",
"269 30 OFFCURVE",
"264 36 OFFCURVE",
"268 38 CURVE SMOOTH",
"274 41 OFFCURVE",
"281 44 OFFCURVE",
"286 50 CURVE SMOOTH",
"292 58 OFFCURVE",
"303 65 OFFCURVE",
"297 76 CURVE SMOOTH",
"295 79 OFFCURVE",
"296 85 OFFCURVE",
"295 87 CURVE SMOOTH",
"291 92 OFFCURVE",
"281 88 OFFCURVE",
"276 87 CURVE SMOOTH",
"262 84 OFFCURVE",
"256 71 OFFCURVE",
"242 77 CURVE SMOOTH",
"239 79 OFFCURVE",
"235 84 OFFCURVE",
"231 82 CURVE SMOOTH",
"229 82 OFFCURVE",
"207 76 OFFCURVE",
"207 76 CURVE SMOOTH",
"210 67 OFFCURVE",
"218 69 OFFCURVE",
"209 62 CURVE SMOOTH",
"204 58 OFFCURVE",
"202 50 OFFCURVE",
"194 57 CURVE SMOOTH",
"189 61 OFFCURVE",
"181 66 OFFCURVE",
"183 75 CURVE",
"180 75 OFFCURVE",
"177 72 OFFCURVE",
"173 72 CURVE",
"176 72 OFFCURVE",
"167 79 OFFCURVE",
"168 76 CURVE",
"167 80 OFFCURVE",
"173 92 OFFCURVE",
"170 95 CURVE SMOOTH",
"168 97 OFFCURVE",
"164 96 OFFCURVE",
"161 96 CURVE SMOOTH",
"157 97 OFFCURVE",
"160 99 OFFCURVE",
"157 101 CURVE SMOOTH",
"150 105 OFFCURVE",
"152 113 OFFCURVE",
"144 114 CURVE SMOOTH",
"139 116 OFFCURVE",
"137 120 OFFCURVE",
"133 122 CURVE SMOOTH",
"129 125 OFFCURVE",
"124 123 OFFCURVE",
"120 126 CURVE",
"120 127 OFFCURVE",
"130 130 OFFCURVE",
"132 131 CURVE SMOOTH",
"138 134 OFFCURVE",
"140 136 OFFCURVE",
"144 142 CURVE SMOOTH",
"148 146 OFFCURVE",
"145 152 OFFCURVE",
"150 157 CURVE SMOOTH",
"156 162 OFFCURVE",
"152 175 OFFCURVE",
"145 177 CURVE SMOOTH",
"140 178 OFFCURVE",
"115 178 OFFCURVE",
"115 175 CURVE SMOOTH",
"115 173 OFFCURVE",
"112 167 OFFCURVE",
"109 170 CURVE SMOOTH",
"106 173 OFFCURVE",
"110 177 OFFCURVE",
"104 175 CURVE SMOOTH",
"99 173 OFFCURVE",
"100 171 OFFCURVE",
"98 167 CURVE",
"95 170 OFFCURVE",
"89 181 OFFCURVE",
"92 170 CURVE SMOOTH",
"93 169 OFFCURVE",
"84 165 OFFCURVE",
"83 165 CURVE SMOOTH",
"83 165 OFFCURVE",
"83 185 OFFCURVE",
"80 187 CURVE SMOOTH",
"74 192 OFFCURVE",
"55 207 OFFCURVE",
"55 215 CURVE SMOOTH",
"54 225 OFFCURVE",
"72 218 OFFCURVE",
"67 233 CURVE SMOOTH",
"61 250 OFFCURVE",
"55 268 OFFCURVE",
"50 285 CURVE",
"59 285 OFFCURVE",
"69 280 OFFCURVE",
"77 277 CURVE SMOOTH",
"89 273 OFFCURVE",
"101 271 OFFCURVE",
"113 268 CURVE SMOOTH",
"136 262 OFFCURVE",
"157 267 OFFCURVE",
"179 265 CURVE SMOOTH",
"193 263 OFFCURVE",
"218 257 OFFCURVE",
"225 244 CURVE SMOOTH",
"230 236 OFFCURVE",
"239 232 OFFCURVE",
"248 232 CURVE SMOOTH",
"260 232 OFFCURVE",
"270 219 OFFCURVE",
"281 214 CURVE SMOOTH",
"293 209 OFFCURVE",
"303 211 OFFCURVE",
"316 213 CURVE SMOOTH",
"324 215 OFFCURVE",
"315 200 OFFCURVE",
"321 200 CURVE SMOOTH",
"326 200 OFFCURVE",
"330 203 OFFCURVE",
"334 200 CURVE SMOOTH",
"340 196 OFFCURVE",
"340 200 OFFCURVE",
"346 204 CURVE SMOOTH",
"358 212 OFFCURVE",
"372 217 OFFCURVE",
"385 223 CURVE SMOOTH",
"396 228 OFFCURVE",
"405 230 OFFCURVE",
"417 232 CURVE SMOOTH",
"424 233 OFFCURVE",
"426 240 OFFCURVE",
"434 237 CURVE SMOOTH",
"441 233 OFFCURVE",
"451 238 OFFCURVE",
"459 238 CURVE SMOOTH",
"469 238 OFFCURVE",
"477 236 OFFCURVE",
"488 237 CURVE SMOOTH",
"501 238 OFFCURVE",
"504 237 OFFCURVE",
"515 244 CURVE SMOOTH",
"522 249 OFFCURVE",
"532 248 OFFCURVE",
"539 253 CURVE SMOOTH",
"548 259 OFFCURVE",
"553 271 OFFCURVE",
"560 279 CURVE SMOOTH",
"567 288 OFFCURVE",
"581 287 OFFCURVE",
"588 294 CURVE SMOOTH",
"594 302 OFFCURVE",
"600 307 OFFCURVE",
"590 315 CURVE SMOOTH",
"584 321 OFFCURVE",
"581 326 OFFCURVE",
"577 333 CURVE SMOOTH",
"575 338 OFFCURVE",
"582 354 OFFCURVE",
"584 359 CURVE SMOOTH",
"589 371 OFFCURVE",
"595 372 OFFCURVE",
"607 373 CURVE SMOOTH",
"615 373 OFFCURVE",
"619 363 OFFCURVE",
"628 361 CURVE SMOOTH",
"635 360 OFFCURVE",
"649 356 OFFCURVE",
"656 359 CURVE SMOOTH",
"659 360 OFFCURVE",
"670 367 OFFCURVE",
"672 369 CURVE SMOOTH",
"675 373 OFFCURVE",
"678 375 OFFCURVE",
"681 378 CURVE SMOOTH",
"684 381 OFFCURVE",
"685 390 OFFCURVE",
"688 392 CURVE SMOOTH",
"695 396 OFFCURVE",
"708 392 OFFCURVE",
"717 394 CURVE SMOOTH",
"728 396 OFFCURVE",
"731 406 OFFCURVE",
"741 409 CURVE SMOOTH",
"750 411 OFFCURVE",
"745 421 OFFCURVE",
"747 427 CURVE SMOOTH",
"749 432 OFFCURVE",
"758 447 OFFCURVE",
"765 447 CURVE SMOOTH",
"775 446 OFFCURVE",
"782 444 OFFCURVE",
"785 454 CURVE SMOOTH",
"788 465 OFFCURVE",
"794 453 OFFCURVE",
"799 457 CURVE SMOOTH",
"806 463 OFFCURVE",
"811 468 OFFCURVE",
"821 468 CURVE SMOOTH",
"828 468 OFFCURVE",
"832 472 OFFCURVE",
"838 470 CURVE SMOOTH",
"844 468 OFFCURVE",
"873 462 OFFCURVE",
"871 476 CURVE SMOOTH",
"870 488 OFFCURVE",
"854 507 OFFCURVE",
"843 512 CURVE SMOOTH",
"839 513 OFFCURVE",
"840 517 OFFCURVE",
"836 519 CURVE SMOOTH",
"832 521 OFFCURVE",
"829 521 OFFCURVE",
"825 524 CURVE SMOOTH",
"817 530 OFFCURVE",
"817 535 OFFCURVE",
"805 535 CURVE SMOOTH",
"799 535 OFFCURVE",
"791 532 OFFCURVE",
"788 527 CURVE SMOOTH",
"780 516 OFFCURVE",
"782 510 OFFCURVE",
"770 519 CURVE SMOOTH",
"759 527 OFFCURVE",
"739 523 OFFCURVE",
"731 513 CURVE SMOOTH",
"727 508 OFFCURVE",
"715 523 OFFCURVE",
"715 527 CURVE SMOOTH",
"715 533 OFFCURVE",
"714 534 OFFCURVE",
"720 537 CURVE SMOOTH",
"725 541 OFFCURVE",
"721 544 OFFCURVE",
"721 548 CURVE SMOOTH",
"722 557 OFFCURVE",
"729 563 OFFCURVE",
"730 571 CURVE SMOOTH",
"730 580 OFFCURVE",
"736 590 OFFCURVE",
"739 599 CURVE SMOOTH",
"741 602 OFFCURVE",
"747 623 OFFCURVE",
"751 621 CURVE SMOOTH",
"760 616 OFFCURVE",
"765 613 OFFCURVE",
"776 612 CURVE SMOOTH",
"778 612 OFFCURVE",
"784 607 OFFCURVE",
"786 608 CURVE SMOOTH",
"788 609 OFFCURVE",
"788 612 OFFCURVE",
"790 613 CURVE SMOOTH",
"795 614 OFFCURVE",
"805 621 OFFCURVE",
"807 626 CURVE SMOOTH",
"812 635 OFFCURVE",
"822 630 OFFCURVE",
"828 637 CURVE SMOOTH",
"830 639 OFFCURVE",
"840 654 OFFCURVE",
"831 654 CURVE SMOOTH",
"824 655 OFFCURVE",
"829 658 OFFCURVE",
"831 662 CURVE SMOOTH",
"832 667 OFFCURVE",
"835 670 OFFCURVE",
"836 674 CURVE SMOOTH",
"837 678 OFFCURVE",
"836 683 OFFCURVE",
"839 687 CURVE SMOOTH",
"844 691 OFFCURVE",
"846 700 OFFCURVE",
"848 706 CURVE SMOOTH",
"852 716 OFFCURVE",
"851 721 OFFCURVE",
"859 729 CURVE SMOOTH",
"865 735 OFFCURVE",
"869 737 OFFCURVE",
"870 745 CURVE SMOOTH",
"871 750 OFFCURVE",
"870 752 OFFCURVE",
"867 755 CURVE SMOOTH",
"864 757 OFFCURVE",
"867 762 OFFCURVE",
"867 765 CURVE SMOOTH",
"866 773 OFFCURVE",
"854 769 OFFCURVE",
"850 768 CURVE SMOOTH",
"837 764 OFFCURVE",
"852 782 OFFCURVE",
"853 783 CURVE SMOOTH",
"860 794 OFFCURVE",
"864 804 OFFCURVE",
"878 805 CURVE SMOOTH",
"883 806 OFFCURVE",
"885 810 OFFCURVE",
"890 806 CURVE SMOOTH",
"893 804 OFFCURVE",
"892 801 OFFCURVE",
"896 801 CURVE SMOOTH",
"905 800 OFFCURVE",
"893 791 OFFCURVE",
"893 789 CURVE SMOOTH",
"892 787 OFFCURVE",
"883 768 OFFCURVE",
"882 769 CURVE",
"886 766 OFFCURVE",
"896 766 OFFCURVE",
"899 763 CURVE SMOOTH",
"911 751 OFFCURVE",
"904 767 OFFCURVE",
"913 770 CURVE SMOOTH",
"916 772 OFFCURVE",
"922 764 OFFCURVE",
"923 762 CURVE SMOOTH",
"926 758 OFFCURVE",
"932 764 OFFCURVE",
"933 761 CURVE SMOOTH",
"935 757 OFFCURVE",
"931 757 OFFCURVE",
"930 755 CURVE SMOOTH",
"928 752 OFFCURVE",
"938 737 OFFCURVE",
"940 735 CURVE SMOOTH",
"947 727 OFFCURVE",
"941 718 OFFCURVE",
"953 715 CURVE SMOOTH",
"957 714 OFFCURVE",
"958 708 OFFCURVE",
"962 713 CURVE SMOOTH",
"963 714 OFFCURVE",
"970 723 OFFCURVE",
"971 723 CURVE SMOOTH",
"972 723 OFFCURVE",
"975 720 OFFCURVE",
"975 720 CURVE SMOOTH",
"979 714 OFFCURVE",
"984 721 OFFCURVE",
"987 721 CURVE SMOOTH",
"991 722 OFFCURVE",
"992 715 OFFCURVE",
"995 722 CURVE SMOOTH",
"997 728 OFFCURVE",
"1000 721 OFFCURVE",
"1004 726 CURVE SMOOTH",
"1005 727 OFFCURVE",
"1016 743 OFFCURVE",
"1013 743 CURVE",
"1024 742 OFFCURVE",
"1030 732 OFFCURVE",
"1037 725 CURVE SMOOTH",
"1047 717 OFFCURVE",
"1050 717 OFFCURVE",
"1045 704 CURVE SMOOTH",
"1043 699 OFFCURVE",
"1047 686 OFFCURVE",
"1039 685 CURVE SMOOTH",
"1035 685 OFFCURVE",
"1035 672 OFFCURVE",
"1033 668 CURVE SMOOTH",
"1032 666 OFFCURVE",
"1029 659 OFFCURVE",
"1030 656 CURVE SMOOTH",
"1031 655 OFFCURVE",
"1032 643 OFFCURVE",
"1031 643 CURVE SMOOTH",
"1028 642 OFFCURVE",
"1034 637 OFFCURVE",
"1035 634 CURVE SMOOTH",
"1037 628 OFFCURVE",
"1035 625 OFFCURVE",
"1034 619 CURVE SMOOTH",
"1033 614 OFFCURVE",
"1027 620 OFFCURVE",
"1024 617 CURVE SMOOTH",
"1020 613 OFFCURVE",
"1019 596 OFFCURVE",
"1018 590 CURVE SMOOTH",
"1017 582 OFFCURVE",
"1023 571 OFFCURVE",
"1019 564 CURVE",
"1017 566 OFFCURVE",
"1010 584 OFFCURVE",
"1008 582 CURVE SMOOTH",
"999 576 OFFCURVE",
"995 565 OFFCURVE",
"990 556 CURVE SMOOTH",
"985 550 OFFCURVE",
"977 541 OFFCURVE",
"971 536 CURVE SMOOTH",
"962 529 OFFCURVE",
"959 523 OFFCURVE",
"953 515 CURVE SMOOTH",
"952 513 OFFCURVE",
"962 504 OFFCURVE",
"964 503 CURVE SMOOTH",
"966 503 OFFCURVE",
"970 503 OFFCURVE",
"969 500 CURVE SMOOTH",
"968 494 OFFCURVE",
"970 498 OFFCURVE",
"972 496 CURVE SMOOTH",
"974 494 OFFCURVE",
"977 477 OFFCURVE",
"984 489 CURVE SMOOTH",
"987 496 OFFCURVE",
"989 493 OFFCURVE",
"987 499 CURVE",
"988 496 OFFCURVE",
"995 503 OFFCURVE",
"994 496 CURVE SMOOTH",
"994 490 OFFCURVE",
"1001 499 OFFCURVE",
"999 491 CURVE SMOOTH",
"998 486 OFFCURVE",
"989 482 OFFCURVE",
"986 481 CURVE SMOOTH",
"974 478 OFFCURVE",
"981 470 OFFCURVE",
"987 463 CURVE",
"983 461 OFFCURVE",
"987 454 OFFCURVE",
"979 453 CURVE SMOOTH",
"970 451 OFFCURVE",
"983 429 OFFCURVE",
"971 435 CURVE SMOOTH",
"967 437 OFFCURVE",
"966 443 OFFCURVE",
"962 443 CURVE SMOOTH",
"960 444 OFFCURVE",
"962 435 OFFCURVE",
"958 436 CURVE SMOOTH",
"954 436 OFFCURVE",
"944 449 OFFCURVE",
"940 444 CURVE SMOOTH",
"939 444 OFFCURVE",
"942 439 OFFCURVE",
"941 437 CURVE SMOOTH",
"941 434 OFFCURVE",
"934 431 OFFCURVE",
"940 429 CURVE SMOOTH",
"943 428 OFFCURVE",
"946 432 OFFCURVE",
"948 429 CURVE SMOOTH",
"950 425 OFFCURVE",
"948 421 OFFCURVE",
"953 418 CURVE SMOOTH",
"956 416 OFFCURVE",
"961 408 OFFCURVE",
"959 404 CURVE SMOOTH",
"958 401 OFFCURVE",
"953 384 OFFCURVE",
"958 383 CURVE",
"955 384 OFFCURVE",
"969 365 OFFCURVE",
"968 364 CURVE SMOOTH",
"966 341 OFFCURVE",
"992 376 OFFCURVE",
"998 374 CURVE",
"996 375 OFFCURVE",
"1002 363 OFFCURVE",
"1002 363 CURVE SMOOTH",
"1004 360 OFFCURVE",
"1011 358 OFFCURVE",
"1008 354 CURVE SMOOTH",
"1005 351 OFFCURVE",
"1024 327 OFFCURVE",
"1014 330 CURVE",
"1015 325 OFFCURVE",
"1009 326 OFFCURVE",
"1012 322 CURVE SMOOTH",
"1014 320 OFFCURVE",
"1021 318 OFFCURVE",
"1024 317 CURVE SMOOTH",
"1029 317 OFFCURVE",
"1025 298 OFFCURVE",
"1021 300 CURVE SMOOTH",
"1019 302 OFFCURVE",
"1014 298 OFFCURVE",
"1012 296 CURVE SMOOTH",
"1007 292 OFFCURVE",
"1011 293 OFFCURVE",
"1012 290 CURVE SMOOTH",
"1012 288 OFFCURVE",
"998 282 OFFCURVE",
"996 283 CURVE SMOOTH",
"994 284 OFFCURVE",
"986 285 OFFCURVE",
"983 285 CURVE SMOOTH",
"976 286 OFFCURVE",
"984 282 OFFCURVE",
"984 282 CURVE",
"987 275 OFFCURVE",
"973 277 OFFCURVE",
"971 278 CURVE SMOOTH",
"966 279 OFFCURVE",
"963 267 OFFCURVE",
"960 263 CURVE SMOOTH",
"957 260 OFFCURVE",
"951 268 OFFCURVE",
"946 263 CURVE SMOOTH",
"943 260 OFFCURVE",
"942 255 OFFCURVE",
"938 253 CURVE SMOOTH",
"933 249 OFFCURVE",
"928 251 OFFCURVE",
"923 247 CURVE SMOOTH",
"917 243 OFFCURVE",
"917 236 OFFCURVE",
"912 233 CURVE SMOOTH",
"909 230 OFFCURVE",
"906 227 OFFCURVE",
"904 222 CURVE SMOOTH",
"901 214 OFFCURVE",
"900 224 OFFCURVE",
"897 228 CURVE SMOOTH",
"895 229 OFFCURVE",
"890 241 OFFCURVE",
"889 242 CURVE SMOOTH",
"886 242 OFFCURVE",
"884 243 OFFCURVE",
"881 245 CURVE SMOOTH",
"878 246 OFFCURVE",
"881 248 OFFCURVE",
"880 249 CURVE SMOOTH",
"877 251 OFFCURVE",
"870 243 OFFCURVE",
"870 241 CURVE SMOOTH",
"870 239 OFFCURVE",
"873 237 OFFCURVE",
"874 236 CURVE SMOOTH",
"876 233 OFFCURVE",
"874 230 OFFCURVE",
"874 228 CURVE SMOOTH",
"874 224 OFFCURVE",
"874 220 OFFCURVE",
"874 217 CURVE SMOOTH",
"873 212 OFFCURVE",
"878 213 OFFCURVE",
"878 209 CURVE SMOOTH",
"879 207 OFFCURVE",
"878 201 OFFCURVE",
"876 200 CURVE",
"879 201 OFFCURVE",
"873 192 OFFCURVE",
"873 193 CURVE",
"870 194 OFFCURVE",
"865 193 OFFCURVE",
"863 193 CURVE SMOOTH",
"856 192 OFFCURVE",
"861 194 OFFCURVE",
"857 197 CURVE",
"859 195 OFFCURVE",
"846 194 OFFCURVE",
"845 194 CURVE SMOOTH",
"838 193 OFFCURVE",
"839 193 OFFCURVE",
"835 200 CURVE",
"840 201 OFFCURVE",
"831 208 OFFCURVE",
"830 209 CURVE SMOOTH",
"825 221 OFFCURVE",
"835 214 OFFCURVE",
"835 214 CURVE",
"836 217 OFFCURVE",
"835 230 OFFCURVE",
"833 231 CURVE SMOOTH",
"832 232 OFFCURVE",
"830 227 OFFCURVE",
"827 228 CURVE",
"832 232 OFFCURVE",
"821 236 OFFCURVE",
"821 238 CURVE SMOOTH",
"820 239 OFFCURVE",
"824 241 OFFCURVE",
"823 242 CURVE SMOOTH",
"821 245 OFFCURVE",
"822 247 OFFCURVE",
"819 250 CURVE SMOOTH",
"817 251 OFFCURVE",
"815 255 OFFCURVE",
"814 255 CURVE SMOOTH",
"811 255 OFFCURVE",
"801 255 OFFCURVE",
"800 250 CURVE SMOOTH",
"800 247 OFFCURVE",
"787 247 OFFCURVE",
"784 245 CURVE SMOOTH",
"780 243 OFFCURVE",
"782 240 OFFCURVE",
"782 236 CURVE SMOOTH",
"784 228 OFFCURVE",
"780 235 OFFCURVE",
"778 232 CURVE SMOOTH",
"776 230 OFFCURVE",
"786 227 OFFCURVE",
"781 222 CURVE SMOOTH",
"780 221 OFFCURVE",
"775 219 OFFCURVE",
"774 218 CURVE SMOOTH",
"767 216 OFFCURVE",
"762 226 OFFCURVE",
"758 217 CURVE SMOOTH",
"756 214 OFFCURVE",
"755 214 OFFCURVE",
"754 211 CURVE SMOOTH",
"752 205 OFFCURVE",
"746 217 OFFCURVE",
"745 217 CURVE SMOOTH",
"739 216 OFFCURVE",
"737 212 OFFCURVE",
"732 208 CURVE SMOOTH",
"731 207 OFFCURVE",
"726 205 OFFCURVE",
"725 204 CURVE SMOOTH",
"724 202 OFFCURVE",
"729 199 OFFCURVE",
"727 197 CURVE SMOOTH",
"725 196 OFFCURVE",
"711 197 OFFCURVE",
"708 197 CURVE",
"708 197 OFFCURVE",
"708 217 OFFCURVE",
"708 218 CURVE SMOOTH",
"706 230 OFFCURVE",
"694 226 OFFCURVE",
"693 217 CURVE",
"692 214 OFFCURVE",
"689 213 OFFCURVE",
"686 214 CURVE",
"685 213 OFFCURVE",
"683 206 OFFCURVE",
"683 205 CURVE SMOOTH",
"683 203 OFFCURVE",
"686 192 OFFCURVE",
"683 191 CURVE SMOOTH",
"680 190 OFFCURVE",
"669 193 OFFCURVE",
"672 185 CURVE SMOOTH",
"672 185 OFFCURVE",
"674 172 OFFCURVE",
"676 178 CURVE",
"681 173 OFFCURVE",
"665 173 OFFCURVE",
"672 167 CURVE SMOOTH",
"677 163 OFFCURVE",
"678 157 OFFCURVE",
"681 151 CURVE",
"678 151 OFFCURVE",
"676 132 OFFCURVE",
"671 138 CURVE SMOOTH",
"668 141 OFFCURVE",
"664 134 OFFCURVE",
"662 132 CURVE SMOOTH",
"654 127 OFFCURVE",
"655 132 OFFCURVE",
"648 133 CURVE SMOOTH",
"645 134 OFFCURVE",
"634 128 OFFCURVE",
"633 126 CURVE SMOOTH",
"628 118 OFFCURVE",
"625 124 OFFCURVE",
"618 125 CURVE SMOOTH",
"607 128 OFFCURVE",
"601 102 OFFCURVE",
"599 95 CURVE SMOOTH",
"597 88 OFFCURVE",
"592 90 OFFCURVE",
"586 91 CURVE SMOOTH",
"575 94 OFFCURVE",
"584 90 OFFCURVE",
"578 84 CURVE SMOOTH",
"575 81 OFFCURVE",
"573 82 OFFCURVE",
"569 79 CURVE SMOOTH",
"563 76 OFFCURVE",
"569 86 OFFCURVE",
"569 87 CURVE SMOOTH",
"569 91 OFFCURVE",
"563 87 OFFCURVE",
"562 86 CURVE SMOOTH",
"558 82 OFFCURVE",
"556 78 OFFCURVE",
"552 74 CURVE SMOOTH",
"548 69 OFFCURVE",
"546 82 OFFCURVE",
"540 75 CURVE",
"540 75 OFFCURVE",
"527 86 OFFCURVE",
"530 80 CURVE SMOOTH",
"534 70 OFFCURVE",
"525 72 OFFCURVE",
"520 72 CURVE SMOOTH",
"519 72 OFFCURVE",
"521 67 OFFCURVE",
"519 65 CURVE SMOOTH",
"513 61 OFFCURVE",
"513 62 OFFCURVE",
"510 55 CURVE SMOOTH",
"507 50 OFFCURVE",
"496 46 OFFCURVE",
"498 41 CURVE SMOOTH",
"498 40 OFFCURVE",
"482 27 OFFCURVE",
"482 21 CURVE SMOOTH",
"482 14 OFFCURVE",
"488 14 OFFCURVE",
"485 6 CURVE SMOOTH",
"482 -1 OFFCURVE",
"478 9 OFFCURVE",
"478 9 CURVE SMOOTH",
"476 6 OFFCURVE",
"476 -1 OFFCURVE",
"476 -4 CURVE SMOOTH",
"476 -12 OFFCURVE",
"467 -9 OFFCURVE",
"461 -11 CURVE SMOOTH",
"455 -13 OFFCURVE",
"448 -15 OFFCURVE",
"446 -8 CURVE SMOOTH",
"444 -3 OFFCURVE",
"434 4 OFFCURVE",
"431 1 CURVE"
);
}
);
width = 1097.38;
}
);
unicode = 0043;
},
{
glyphname = D;
lastChange = "2014-07-05 08:28:06 -0500";
layers = (
{
layerId = "8AC23886-B8FB-470C-B711-F8E78732F9C5";
name = Regular;
paths = (
{
closed = 1;
nodes = (
"608 494 OFFCURVE",
"578 487 OFFCURVE",
"567 473 CURVE SMOOTH",
"557 461 OFFCURVE",
"549 430 OFFCURVE",
"547 415 CURVE SMOOTH",
"547 408 OFFCURVE",
"555 360 OFFCURVE",
"551 358 CURVE SMOOTH",
"541 352 OFFCURVE",
"488 366 OFFCURVE",
"483 362 CURVE SMOOTH",
"481 359 OFFCURVE",
"439 353 OFFCURVE",
"439 355 CURVE",
"438 348 OFFCURVE",
"449 309 OFFCURVE",
"423 325 CURVE",
"425 320 OFFCURVE",
"460 289 OFFCURVE",
"435 279 CURVE SMOOTH",
"416 271 OFFCURVE",
"405 254 OFFCURVE",
"394 242 CURVE",
"404 252 OFFCURVE",
"434 176 OFFCURVE",
"408 190 CURVE",
"408 189 OFFCURVE",
"456 170 OFFCURVE",
"462 173 CURVE SMOOTH",
"499 190 OFFCURVE",
"468 103 OFFCURVE",
"468 117 CURVE",
"468 103 OFFCURVE",
"483 119 OFFCURVE",
"487 114 CURVE",
"479 128 OFFCURVE",
"468 72 OFFCURVE",
"473 75 CURVE",
"440 55 OFFCURVE",
"439 76 OFFCURVE",
"409 72 CURVE SMOOTH",
"406 72 OFFCURVE",
"403 26 OFFCURVE",
"402 21 CURVE SMOOTH",
"402 18 OFFCURVE",
"401 -36 OFFCURVE",
"382 -28 CURVE SMOOTH",
"371 -23 OFFCURVE",
"367 -8 OFFCURVE",
"364 2 CURVE SMOOTH",
"358 28 OFFCURVE",
"344 1 OFFCURVE",
"340 0 CURVE",
"336 5 OFFCURVE",
"335 11 OFFCURVE",
"336 16 CURVE",
"331 21 OFFCURVE",
"308 5 OFFCURVE",
"308 10 CURVE",
"314 15 OFFCURVE",
"320 19 OFFCURVE",
"326 23 CURVE",
"330 44 OFFCURVE",
"298 30 OFFCURVE",
"297 30 CURVE",
"300 30 OFFCURVE",
"281 64 OFFCURVE",
"274 68 CURVE",
"278 73 OFFCURVE",
"289 65 OFFCURVE",
"288 74 CURVE SMOOTH",
"287 97 OFFCURVE",
"247 67 OFFCURVE",
"247 68 CURVE SMOOTH",
"239 83 OFFCURVE",
"235 90 OFFCURVE",
"221 90 CURVE",
"221 108 OFFCURVE",
"208 136 OFFCURVE",
"229 149 CURVE SMOOTH",
"249 161 OFFCURVE",
"250 184 OFFCURVE",
"240 206 CURVE SMOOTH",
"237 212 OFFCURVE",
"212 256 OFFCURVE",
"211 253 CURVE",
"215 264 OFFCURVE",
"200 271 OFFCURVE",
"201 282 CURVE SMOOTH",
"203 299 OFFCURVE",
"225 283 OFFCURVE",
"219 308 CURVE SMOOTH",
"216 319 OFFCURVE",
"144 402 OFFCURVE",
"138 399 CURVE SMOOTH",
"99 378 OFFCURVE",
"127 419 OFFCURVE",
"124 422 CURVE SMOOTH",
"110 440 OFFCURVE",
"71 441 OFFCURVE",
"50 438 CURVE",
"79 478 OFFCURVE",
"168 455 OFFCURVE",
"213 481 CURVE SMOOTH",
"231 491 OFFCURVE",
"358 502 OFFCURVE",
"318 559 CURVE SMOOTH",
"297 589 OFFCURVE",
"329 593 OFFCURVE",
"327 619 CURVE SMOOTH",
"326 647 OFFCURVE",
"326 670 OFFCURVE",
"332 699 CURVE SMOOTH",
"337 726 OFFCURVE",
"355 744 OFFCURVE",
"364 769 CURVE SMOOTH",
"372 790 OFFCURVE",
"393 778 OFFCURVE",
"399 791 CURVE",
"399 799 OFFCURVE",
"400 807 OFFCURVE",
"403 815 CURVE",
"413 820 OFFCURVE",
"435 811 OFFCURVE",
"441 824 CURVE SMOOTH",
"453 849 OFFCURVE",
"481 840 OFFCURVE",
"486 815 CURVE SMOOTH",
"489 801 OFFCURVE",
"512 764 OFFCURVE",
"509 754 CURVE SMOOTH",
"500 726 OFFCURVE",
"466 715 OFFCURVE",
"460 683 CURVE SMOOTH",
"455 654 OFFCURVE",
"441 633 OFFCURVE",
"435 608 CURVE SMOOTH",
"431 592 OFFCURVE",
"508 569 OFFCURVE",
"519 572 CURVE SMOOTH",
"564 584 OFFCURVE",
"596 519 OFFCURVE",
"609 515 CURVE"
);
}
);
width = 659;
}
);
unicode = 0044;
},
{
glyphname = E;
lastChange = "2014-07-05 08:27:59 -0500";
layers = (
{
layerId = "8AC23886-B8FB-470C-B711-F8E78732F9C5";
name = Regular;
paths = (
{
closed = 1;
nodes = (
"74 536 OFFCURVE",
"71 518 OFFCURVE",
"91 528 CURVE SMOOTH",
"111 538 OFFCURVE",
"116 553 OFFCURVE",
"131 565 CURVE SMOOTH",
"149 581 OFFCURVE",
"151 567 OFFCURVE",
"172 564 CURVE SMOOTH",
"180 563 OFFCURVE",
"181 548 OFFCURVE",
"188 545 CURVE SMOOTH",
"197 541 OFFCURVE",
"205 541 OFFCURVE",
"213 535 CURVE SMOOTH",
"220 530 OFFCURVE",
"256 520 OFFCURVE",
"256 521 CURVE SMOOTH",
"261 529 OFFCURVE",
"271 530 OFFCURVE",
"276 538 CURVE",
"275 536 OFFCURVE",
"275 564 OFFCURVE",
"274 563 CURVE",
"285 569 OFFCURVE",
"297 564 OFFCURVE",
"308 571 CURVE SMOOTH",
"318 577 OFFCURVE",
"327 585 OFFCURVE",
"338 590 CURVE SMOOTH",
"344 592 OFFCURVE",
"381 601 OFFCURVE",
"383 599 CURVE",
"394 626 OFFCURVE",
"380 609 OFFCURVE",
"382 627 CURVE SMOOTH",
"383 634 OFFCURVE",
"394 637 OFFCURVE",
"396 644 CURVE SMOOTH",
"401 662 OFFCURVE",
"424 648 OFFCURVE",
"428 637 CURVE SMOOTH",
"431 629 OFFCURVE",
"438 606 OFFCURVE",
"447 600 CURVE SMOOTH",
"459 593 OFFCURVE",
"465 608 OFFCURVE",
"475 607 CURVE SMOOTH",
"479 606 OFFCURVE",
"474 593 OFFCURVE",
"480 593 CURVE",
"482 594 OFFCURVE",
"484 596 OFFCURVE",
"486 598 CURVE",
"486 597 OFFCURVE",
"489 581 OFFCURVE",
"489 580 CURVE",
"506 583 OFFCURVE",
"533 587 OFFCURVE",
"536 607 CURVE SMOOTH",
"537 609 OFFCURVE",
"542 627 OFFCURVE",
"542 627 CURVE",
"547 629 OFFCURVE",
"564 638 OFFCURVE",
"568 633 CURVE SMOOTH",
"571 629 OFFCURVE",
"603 613 OFFCURVE",
"598 607 CURVE",
"607 618 OFFCURVE",
"602 636 OFFCURVE",
"611 647 CURVE SMOOTH",
"616 653 OFFCURVE",
"651 622 OFFCURVE",
"660 636 CURVE SMOOTH",
"660 636 OFFCURVE",
"658 669 OFFCURVE",
"659 668 CURVE",
"655 670 OFFCURVE",
"644 659 OFFCURVE",
"638 663 CURVE SMOOTH",
"619 674 OFFCURVE",
"683 682 OFFCURVE",
"673 671 CURVE",
"683 682 OFFCURVE",
"683 659 OFFCURVE",
"697 669 CURVE",
"690 672 OFFCURVE",
"710 707 OFFCURVE",
"715 708 CURVE SMOOTH",
"746 716 OFFCURVE",
"735 687 OFFCURVE",
"750 687 CURVE SMOOTH",
"765 688 OFFCURVE",
"753 701 OFFCURVE",
"756 709 CURVE",
"760 710 OFFCURVE",
"763 711 OFFCURVE",
"767 712 CURVE",
"771 717 OFFCURVE",
"769 725 OFFCURVE",
"773 731 CURVE SMOOTH",
"790 755 OFFCURVE",
"789 691 OFFCURVE",
"810 716 CURVE",
"835 683 OFFCURVE",
"837 736 OFFCURVE",
"860 750 CURVE SMOOTH",
"872 757 OFFCURVE",
"877 750 OFFCURVE",
"881 743 CURVE SMOOTH",
"890 727 OFFCURVE",
"915 758 OFFCURVE",
"911 761 CURVE",
"928 747 OFFCURVE",
"958 751 OFFCURVE",
"950 722 CURVE SMOOTH",
"947 711 OFFCURVE",
"937 695 OFFCURVE",
"950 686 CURVE SMOOTH",
"951 685 OFFCURVE",
"980 698 OFFCURVE",
"979 687 CURVE SMOOTH",
"979 682 OFFCURVE",
"966 671 OFFCURVE",
"961 668 CURVE SMOOTH",
"953 663 OFFCURVE",
"958 648 OFFCURVE",
"957 640 CURVE SMOOTH",
"955 621 OFFCURVE",
"942 617 OFFCURVE",
"934 603 CURVE SMOOTH",
"926 590 OFFCURVE",
"897 565 OFFCURVE",
"915 548 CURVE SMOOTH",
"924 540 OFFCURVE",
"939 580 OFFCURVE",
"953 578 CURVE SMOOTH",
"973 574 OFFCURVE",
"963 580 OFFCURVE",
"974 564 CURVE SMOOTH",
"977 560 OFFCURVE",
"981 535 OFFCURVE",
"978 525 CURVE SMOOTH",
"975 513 OFFCURVE",
"985 501 OFFCURVE",
"995 513 CURVE SMOOTH",
"1008 531 OFFCURVE",
"1031 534 OFFCURVE",
"1052 524 CURVE",
"1042 515 OFFCURVE",
"1041 490 OFFCURVE",
"1051 482 CURVE SMOOTH",
"1074 459 OFFCURVE",
"1037 461 OFFCURVE",
"1036 446 CURVE SMOOTH",
"1036 437 OFFCURVE",
"1042 428 OFFCURVE",
"1044 420 CURVE SMOOTH",
"1048 406 OFFCURVE",
"1035 413 OFFCURVE",
"1031 403 CURVE SMOOTH",
"1029 396 OFFCURVE",
"1001 382 OFFCURVE",
"1006 378 CURVE SMOOTH",
"1011 376 OFFCURVE",
"986 352 OFFCURVE",
"983 347 CURVE SMOOTH",
"971 328 OFFCURVE",
"972 320 OFFCURVE",
"971 298 CURVE SMOOTH",
"971 296 OFFCURVE",
"971 258 OFFCURVE",
"969 261 CURVE",
"978 245 OFFCURVE",
"932 235 OFFCURVE",
"928 230 CURVE SMOOTH",
"921 219 OFFCURVE",
"925 215 OFFCURVE",
"905 210 CURVE SMOOTH",
"899 209 OFFCURVE",
"877 195 OFFCURVE",
"881 193 CURVE SMOOTH",
"885 192 OFFCURVE",
"891 166 OFFCURVE",
"881 163 CURVE SMOOTH",
"870 160 OFFCURVE",
"866 148 OFFCURVE",
"854 146 CURVE SMOOTH",
"836 142 OFFCURVE",
"825 162 OFFCURVE",
"834 127 CURVE SMOOTH",
"840 105 OFFCURVE",
"827 109 OFFCURVE",
"807 109 CURVE SMOOTH",
"784 110 OFFCURVE",
"779 102 OFFCURVE",
"773 82 CURVE SMOOTH",
"768 67 OFFCURVE",
"757 80 OFFCURVE",
"751 75 CURVE SMOOTH",
"744 68 OFFCURVE",
"755 54 OFFCURVE",
"752 48 CURVE SMOOTH",
"738 26 OFFCURVE",
"739 75 OFFCURVE",
"742 69 CURVE",
"740 72 OFFCURVE",
"733 62 OFFCURVE",
"733 59 CURVE",
"721 65 OFFCURVE",
"730 88 OFFCURVE",
"728 90 CURVE",
"728 92 OFFCURVE",
"713 73 OFFCURVE",
"717 74 CURVE SMOOTH",
"718 75 OFFCURVE",
"708 78 OFFCURVE",
"710 74 CURVE SMOOTH",
"716 64 OFFCURVE",
"728 74 OFFCURVE",
"722 59 CURVE SMOOTH",
"719 51 OFFCURVE",
"715 42 OFFCURVE",
"711 52 CURVE",
"708 36 OFFCURVE",
"682 49 OFFCURVE",
"679 51 CURVE",
"678 44 OFFCURVE",
"666 33 OFFCURVE",
"668 43 CURVE",
"666 37 OFFCURVE",
"659 37 OFFCURVE",
"653 43 CURVE",
"659 37 OFFCURVE",
"667 67 OFFCURVE",
"667 70 CURVE",
"660 62 OFFCURVE",
"658 71 OFFCURVE",
"655 66 CURVE SMOOTH",
"653 64 OFFCURVE",
"655 73 OFFCURVE",
"655 73 CURVE",
"650 59 OFFCURVE",
"611 73 OFFCURVE",
"637 89 CURVE",
"622 84 OFFCURVE",
"645 94 OFFCURVE",
"628 88 CURVE",
"626 98 OFFCURVE",
"630 94 OFFCURVE",
"619 100 CURVE",
"620 98 OFFCURVE",
"620 97 OFFCURVE",
"617 97 CURVE",
"629 97 OFFCURVE",
"622 82 OFFCURVE",
"622 82 CURVE SMOOTH",
"609 91 OFFCURVE",
"626 84 OFFCURVE",
"617 85 CURVE",
"617 82 OFFCURVE",
"627 71 OFFCURVE",
"627 71 CURVE",
"622 62 OFFCURVE",
"607 73 OFFCURVE",
"606 75 CURVE",
"611 73 OFFCURVE",
"613 75 OFFCURVE",
"611 80 CURVE",
"610 75 OFFCURVE",
"608 75 OFFCURVE",
"606 78 CURVE",
"606 77 OFFCURVE",
"607 88 OFFCURVE",
"607 89 CURVE",
"607 84 OFFCURVE",
"605 81 OFFCURVE",
"601 83 CURVE",
"597 88 OFFCURVE",
"597 92 OFFCURVE",
"603 97 CURVE",
"599 92 OFFCURVE",
"598 93 OFFCURVE",
"600 98 CURVE",
"597 97 OFFCURVE",
"598 88 OFFCURVE",
"595 92 CURVE",
"597 88 OFFCURVE",
"596 85 OFFCURVE",
"591 84 CURVE",
"577 89 OFFCURVE",
"598 104 OFFCURVE",
"596 109 CURVE SMOOTH",
"593 113 OFFCURVE",
"585 107 OFFCURVE",
"584 109 CURVE",
"585 111 OFFCURVE",
"586 114 OFFCURVE",
"588 116 CURVE",
"588 115 OFFCURVE",
"574 103 OFFCURVE",
"574 103 CURVE",
"571 106 OFFCURVE",
"571 110 OFFCURVE",
"575 114 CURVE",
"563 108 OFFCURVE",
"579 90 OFFCURVE",
"584 87 CURVE",
"576 80 OFFCURVE",
"581 93 OFFCURVE",
"573 86 CURVE",
"578 85 OFFCURVE",
"578 83 OFFCURVE",
"574 80 CURVE",
"577 82 OFFCURVE",
"579 81 OFFCURVE",
"578 77 CURVE",
"578 80 OFFCURVE",
"580 83 OFFCURVE",
"583 84 CURVE",
"579 76 OFFCURVE",
"590 72 OFFCURVE",
"577 72 CURVE",
"586 69 OFFCURVE",
"577 65 OFFCURVE",
"575 62 CURVE",
"575 63 OFFCURVE",
"576 69 OFFCURVE",
"576 69 CURVE",
"573 66 OFFCURVE",
"567 62 OFFCURVE",
"574 61 CURVE",
"572 60 OFFCURVE",
"557 57 OFFCURVE",
"563 64 CURVE",
"568 67 OFFCURVE",
"569 66 OFFCURVE",
"565 63 CURVE",
"575 61 OFFCURVE",
"566 73 OFFCURVE",
"567 69 CURVE",
"568 72 OFFCURVE",
"570 75 OFFCURVE",
"573 76 CURVE",
"565 73 OFFCURVE",
"564 74 OFFCURVE",
"568 80 CURVE",
"566 80 OFFCURVE",
"556 68 OFFCURVE",
"555 69 CURVE",
"558 67 OFFCURVE",
"557 83 OFFCURVE",
"557 87 CURVE",
"544 75 OFFCURVE",
"559 61 OFFCURVE",
"537 52 CURVE",
"537 62 OFFCURVE",
"545 67 OFFCURVE",
"541 77 CURVE",
"540 74 OFFCURVE",
"520 62 OFFCURVE",
"534 57 CURVE",
"524 53 OFFCURVE",
"520 63 OFFCURVE",
"510 60 CURVE SMOOTH",
"499 58 OFFCURVE",
"497 68 OFFCURVE",
"490 74 CURVE SMOOTH",
"482 82 OFFCURVE",
"463 72 OFFCURVE",
"454 72 CURVE SMOOTH",
"432 71 OFFCURVE",
"425 73 OFFCURVE",
"413 87 CURVE SMOOTH",
"411 89 OFFCURVE",
"386 96 OFFCURVE",
"381 98 CURVE SMOOTH",
"363 106 OFFCURVE",
"384 108 OFFCURVE",
"380 117 CURVE SMOOTH",
"377 124 OFFCURVE",
"341 125 OFFCURVE",
"334 125 CURVE SMOOTH",
"323 125 OFFCURVE",
"337 171 OFFCURVE",
"321 179 CURVE SMOOTH",
"289 194 OFFCURVE",
"362 230 OFFCURVE",
"343 250 CURVE SMOOTH",
"322 272 OFFCURVE",
"311 260 OFFCURVE",
"287 257 CURVE SMOOTH",
"268 255 OFFCURVE",
"264 287 OFFCURVE",
"236 273 CURVE SMOOTH",
"219 265 OFFCURVE",
"206 290 OFFCURVE",
"188 292 CURVE SMOOTH",
"153 297 OFFCURVE",
"199 328 OFFCURVE",
"201 329 CURVE",
"200 333 OFFCURVE",
"199 336 OFFCURVE",
"197 340 CURVE",
"208 356 OFFCURVE",
"228 355 OFFCURVE",
"242 349 CURVE SMOOTH",
"259 341 OFFCURVE",
"272 394 OFFCURVE",
"268 407 CURVE SMOOTH",
"265 419 OFFCURVE",
"239 465 OFFCURVE",
"230 436 CURVE SMOOTH",
"228 430 OFFCURVE",
"197 435 OFFCURVE",
"197 441 CURVE SMOOTH",
"197 458 OFFCURVE",
"177 434 OFFCURVE",
"179 434 CURVE",
"166 435 OFFCURVE",
"165 447 OFFCURVE",
"153 440 CURVE SMOOTH",
"140 432 OFFCURVE",
"146 473 OFFCURVE",
"138 481 CURVE SMOOTH",
"132 486 OFFCURVE",
"82 508 OFFCURVE",
"77 494 CURVE SMOOTH",
"74 487 OFFCURVE",
"80 473 OFFCURVE",
"66 485 CURVE SMOOTH",
"53 496 OFFCURVE",
"43 526 OFFCURVE",
"56 540 CURVE",
"61 539 OFFCURVE",
"46 529 OFFCURVE",
"56 540 CURVE"
);
}
);
width = 1108.52;
}
);
unicode = 0045;
},
{
glyphname = F;
lastChange = "2014-07-05 07:31:19 -0500";
layers = (
{
layerId = "8AC23886-B8FB-470C-B711-F8E78732F9C5";
name = Regular;
paths = (
{
closed = 1;
nodes = (
"699 633 OFFCURVE",
"673 635 OFFCURVE",
"674 634 CURVE",
"668 639 OFFCURVE",
"681 641 OFFCURVE",
"677 645 CURVE SMOOTH",
"674 648 OFFCURVE",
"670 640 OFFCURVE",
"671 648 CURVE",
"671 648 OFFCURVE",
"662 635 OFFCURVE",
"664 636 CURVE",
"660 657 OFFCURVE",
"656 627 OFFCURVE",
"659 628 CURVE SMOOTH",
"660 628 OFFCURVE",
"683 642 OFFCURVE",
"686 632 CURVE SMOOTH",
"687 629 OFFCURVE",
"684 618 OFFCURVE",
"697 623 CURVE",
"695 620 OFFCURVE",
"692 619 OFFCURVE",
"689 619 CURVE",
"697 615 OFFCURVE",
"687 612 OFFCURVE",
"691 613 CURVE",
"688 607 OFFCURVE",
"672 611 OFFCURVE",
"670 615 CURVE",
"664 612 OFFCURVE",
"675 608 OFFCURVE",
"676 603 CURVE",
"671 606 OFFCURVE",
"671 595 OFFCURVE",
"660 590 CURVE",
"665 590 OFFCURVE",
"668 589 OFFCURVE",
"671 587 CURVE",
"671 581 OFFCURVE",
"649 577 OFFCURVE",
"644 573 CURVE",
"644 574 OFFCURVE",
"652 556 OFFCURVE",
"654 552 CURVE",
"656 551 OFFCURVE",
"660 550 OFFCURVE",
"663 549 CURVE",
"650 540 OFFCURVE",
"663 539 OFFCURVE",
"653 534 CURVE SMOOTH",
"640 529 OFFCURVE",
"638 522 OFFCURVE",
"629 513 CURVE SMOOTH",
"609 494 OFFCURVE",
"644 559 OFFCURVE",
"648 559 CURVE",
"616 559 OFFCURVE",
"641 538 OFFCURVE",
"622 532 CURVE SMOOTH",
"621 532 OFFCURVE",
"616 542 OFFCURVE",
"618 544 CURVE",
"616 542 OFFCURVE",
"614 540 OFFCURVE",
"612 538 CURVE",
"607 536 OFFCURVE",
"615 560 OFFCURVE",
"616 559 CURVE",
"614 556 OFFCURVE",
"612 555 OFFCURVE",
"609 554 CURVE",
"603 555 OFFCURVE",
"616 566 OFFCURVE",
"615 566 CURVE SMOOTH",
"599 564 OFFCURVE",
"610 552 OFFCURVE",
"602 546 CURVE SMOOTH",
"602 545 OFFCURVE",
"590 566 OFFCURVE",
"589 567 CURVE",
"589 568 OFFCURVE",
"597 538 OFFCURVE",
"600 541 CURVE",
"595 535 OFFCURVE",
"583 552 OFFCURVE",
"584 551 CURVE",
"574 559 OFFCURVE",
"572 535 OFFCURVE",
"578 538 CURVE SMOOTH",
"580 539 OFFCURVE",
"577 542 OFFCURVE",
"586 545 CURVE",
"586 547 OFFCURVE",
"581 526 OFFCURVE",
"583 528 CURVE",
"580 529 OFFCURVE",
"577 530 OFFCURVE",
"574 532 CURVE",
"568 526 OFFCURVE",
"581 522 OFFCURVE",
"584 515 CURVE",
"589 528 OFFCURVE",
"608 526 OFFCURVE",
"613 514 CURVE",
"611 517 OFFCURVE",
"609 517 OFFCURVE",
"608 513 CURVE",
"619 512 OFFCURVE",
"620 488 OFFCURVE",
"609 492 CURVE",
"616 496 OFFCURVE",
"576 511 OFFCURVE",
"581 495 CURVE",
"581 497 OFFCURVE",
"605 481 OFFCURVE",
"602 480 CURVE",
"592 469 OFFCURVE",
"623 494 OFFCURVE",
"621 495 CURVE",
"621 495 OFFCURVE",
"627 483 OFFCURVE",
"626 483 CURVE",
"630 484 OFFCURVE",
"635 485 OFFCURVE",
"639 488 CURVE",
"638 484 OFFCURVE",
"616 469 OFFCURVE",
"618 470 CURVE",
"614 467 OFFCURVE",
"594 474 OFFCURVE",
"591 462 CURVE",
"606 474 OFFCURVE",
"581 432 OFFCURVE",
"581 433 CURVE",
"589 421 OFFCURVE",
"630 429 OFFCURVE",
"599 408 CURVE SMOOTH",
"590 402 OFFCURVE",
"598 384 OFFCURVE",
"598 375 CURVE SMOOTH",
"598 367 OFFCURVE",
"575 376 OFFCURVE",
"575 362 CURVE SMOOTH",
"575 361 OFFCURVE",
"589 347 OFFCURVE",
"592 351 CURVE",
"594 353 OFFCURVE",
"597 354 OFFCURVE",
"599 356 CURVE",
"598 352 OFFCURVE",
"591 344 OFFCURVE",
"600 344 CURVE",
"597 344 OFFCURVE",
"595 342 OFFCURVE",
"595 339 CURVE",
"601 348 OFFCURVE",
"601 330 OFFCURVE",
"608 337 CURVE",
"606 327 OFFCURVE",
"610 316 OFFCURVE",
"606 314 CURVE SMOOTH",
"600 313 OFFCURVE",
"599 333 OFFCURVE",
"599 333 CURVE",
"592 336 OFFCURVE",
"587 318 OFFCURVE",
"598 326 CURVE",
"596 321 OFFCURVE",
"592 317 OFFCURVE",
"586 317 CURVE",
"588 321 OFFCURVE",
"585 331 OFFCURVE",
"588 334 CURVE",
"583 332 OFFCURVE",
"581 329 OFFCURVE",
"577 328 CURVE",
"577 329 OFFCURVE",
"580 340 OFFCURVE",
"579 340 CURVE SMOOTH",
"562 342 OFFCURVE",
"567 358 OFFCURVE",
"557 355 CURVE",
"561 349 OFFCURVE",
"559 329 OFFCURVE",
"563 326 CURVE",
"555 329 OFFCURVE",
"546 335 OFFCURVE",
"559 348 CURVE",
"551 349 OFFCURVE",
"545 332 OFFCURVE",
"536 326 CURVE SMOOTH",
"525 317 OFFCURVE",
"544 308 OFFCURVE",
"544 313 CURVE",
"547 309 OFFCURVE",
"545 295 OFFCURVE",
"548 297 CURVE SMOOTH",
"559 301 OFFCURVE",
"551 314 OFFCURVE",
"569 300 CURVE SMOOTH",
"574 296 OFFCURVE",
"558 293 OFFCURVE",
"558 293 CURVE SMOOTH",
"554 288 OFFCURVE",
"567 282 OFFCURVE",
"549 283 CURVE SMOOTH",
"535 284 OFFCURVE",
"545 294 OFFCURVE",
"537 294 CURVE SMOOTH",
"522 296 OFFCURVE",
"537 271 OFFCURVE",
"540 275 CURVE SMOOTH",
"546 284 OFFCURVE",
"525 273 OFFCURVE",
"533 271 CURVE",
"529 272 OFFCURVE",
"528 273 OFFCURVE",
"529 277 CURVE",
"523 282 OFFCURVE",
"530 261 OFFCURVE",
"521 274 CURVE",
"520 273 OFFCURVE",
"533 289 OFFCURVE",
"527 291 CURVE SMOOTH",
"525 292 OFFCURVE",
"513 286 OFFCURVE",
"514 286 CURVE",
"507 303 OFFCURVE",
"525 285 OFFCURVE",
"524 299 CURVE",
"515 298 OFFCURVE",
"504 296 OFFCURVE",
"497 289 CURVE",
"508 291 OFFCURVE",
"505 287 OFFCURVE",
"503 281 CURVE",
"508 285 OFFCURVE",
"511 284 OFFCURVE",
"514 279 CURVE",
"514 276 OFFCURVE",
"501 270 OFFCURVE",
"513 270 CURVE",
"508 268 OFFCURVE",
"502 266 OFFCURVE",
"497 264 CURVE",
"487 249 OFFCURVE",
"520 260 OFFCURVE",
"521 260 CURVE",
"516 253 OFFCURVE",
"517 248 OFFCURVE",
"523 244 CURVE",
"522 242 OFFCURVE",
"509 243 OFFCURVE",
"504 240 CURVE",
"508 236 OFFCURVE",
"513 234 OFFCURVE",
"519 234 CURVE",
"518 232 OFFCURVE",
"486 227 OFFCURVE",
"494 228 CURVE",
"489 223 OFFCURVE",
"484 221 OFFCURVE",
"477 223 CURVE",
"476 228 OFFCURVE",
"478 230 OFFCURVE",
"483 230 CURVE",
"481 229 OFFCURVE",
"479 237 OFFCURVE",
"479 238 CURVE",
"480 233 OFFCURVE",
"479 231 OFFCURVE",
"475 232 CURVE",
"475 236 OFFCURVE",
"473 240 OFFCURVE",
"469 243 CURVE",
"472 238 OFFCURVE",
"467 199 OFFCURVE",
"481 216 CURVE",
"478 208 OFFCURVE",
"491 213 OFFCURVE",
"491 210 CURVE SMOOTH",
"488 200 OFFCURVE",
"480 198 OFFCURVE",
"475 196 CURVE SMOOTH",
"470 194 OFFCURVE",
"473 182 OFFCURVE",
"477 187 CURVE",
"486 176 OFFCURVE",
"465 172 OFFCURVE",
"463 166 CURVE",
"462 163 OFFCURVE",
"464 179 OFFCURVE",
"464 177 CURVE",
"462 186 OFFCURVE",
"444 174 OFFCURVE",
"443 189 CURVE SMOOTH",
"443 200 OFFCURVE",
"444 194 OFFCURVE",
"438 200 CURVE",
"444 188 OFFCURVE",
"437 170 OFFCURVE",
"421 176 CURVE SMOOTH",
"419 176 OFFCURVE",
"415 167 OFFCURVE",
"413 166 CURVE SMOOTH",
"405 162 OFFCURVE",
"402 181 OFFCURVE",
"410 176 CURVE",
"409 180 OFFCURVE",
"407 181 OFFCURVE",
"402 179 CURVE",
"413 186 OFFCURVE",
"400 187 OFFCURVE",
"398 194 CURVE",
"398 190 OFFCURVE",
"391 168 OFFCURVE",
"396 165 CURVE SMOOTH",
"411 156 OFFCURVE",
"397 140 OFFCURVE",
"391 148 CURVE",
"390 152 OFFCURVE",
"391 155 OFFCURVE",
"396 157 CURVE",
"382 159 OFFCURVE",
"402 166 OFFCURVE",
"382 167 CURVE",
"381 159 OFFCURVE",
"383 154 OFFCURVE",
"384 148 CURVE",
"380 148 OFFCURVE",
"348 150 OFFCURVE",
"346 153 CURVE",
"342 148 OFFCURVE",
"364 139 OFFCURVE",
"365 134 CURVE",
"365 141 OFFCURVE",
"382 144 OFFCURVE",
"386 143 CURVE SMOOTH",
"389 142 OFFCURVE",
"386 130 OFFCURVE",
"383 131 CURVE",
"418 129 OFFCURVE",
"385 117 OFFCURVE",
"384 114 CURVE",
"381 113 OFFCURVE",
"381 100 OFFCURVE",
"378 100 CURVE SMOOTH",
"376 101 OFFCURVE",
"382 115 OFFCURVE",
"374 110 CURVE SMOOTH",
"367 106 OFFCURVE",
"366 62 OFFCURVE",
"347 57 CURVE",
"351 58 OFFCURVE",
"349 79 OFFCURVE",
"350 81 CURVE",
"347 73 OFFCURVE",
"342 75 OFFCURVE",
"339 64 CURVE SMOOTH",
"336 52 OFFCURVE",
"333 36 OFFCURVE",
"326 25 CURVE",
"319 32 OFFCURVE",
"337 52 OFFCURVE",
"319 55 CURVE SMOOTH",
"317 55 OFFCURVE",
"292 58 OFFCURVE",
"293 57 CURVE SMOOTH",
"297 51 OFFCURVE",
"307 59 OFFCURVE",
"310 50 CURVE SMOOTH",
"311 46 OFFCURVE",
"307 24 OFFCURVE",
"298 31 CURVE",
"302 28 OFFCURVE",
"317 28 OFFCURVE",
"317 26 CURVE SMOOTH",
"317 24 OFFCURVE",
"303 21 OFFCURVE",
"312 13 CURVE",
"301 13 OFFCURVE",
"301 4 OFFCURVE",
"287 -2 CURVE",
"292 3 OFFCURVE",
"296 8 OFFCURVE",
"300 14 CURVE",
"299 17 OFFCURVE",
"286 13 OFFCURVE",
"290 18 CURVE SMOOTH",
"290 18 OFFCURVE",
"294 36 OFFCURVE",
"296 34 CURVE",
"294 36 OFFCURVE",
"285 17 OFFCURVE",
"283 32 CURVE",
"276 29 OFFCURVE",
"285 7 OFFCURVE",
"276 2 CURVE SMOOTH",
"273 1 OFFCURVE",
"275 18 OFFCURVE",
"271 15 CURVE",
"270 11 OFFCURVE",
"270 8 OFFCURVE",
"272 5 CURVE",
"233 -5 OFFCURVE",
"240 48 OFFCURVE",
"231 66 CURVE SMOOTH",
"225 77 OFFCURVE",
"231 91 OFFCURVE",
"227 104 CURVE SMOOTH",
"224 113 OFFCURVE",
"214 126 OFFCURVE",
"212 135 CURVE SMOOTH",
"209 147 OFFCURVE",
"195 148 OFFCURVE",
"201 163 CURVE SMOOTH",
"208 180 OFFCURVE",
"183 169 OFFCURVE",
"176 167 CURVE SMOOTH",
"149 160 OFFCURVE",
"141 174 OFFCURVE",
"134 198 CURVE SMOOTH",
"132 205 OFFCURVE",
"116 186 OFFCURVE",
"114 186 CURVE SMOOTH",
"109 185 OFFCURVE",
"107 200 OFFCURVE",
"101 199 CURVE SMOOTH",
"84 197 OFFCURVE",
"53 196 OFFCURVE",
"58 212 CURVE SMOOTH",
"59 214 OFFCURVE",
"58 231 OFFCURVE",
"57 232 CURVE SMOOTH",
"38 251 OFFCURVE",
"66 255 OFFCURVE",
"69 270 CURVE SMOOTH",
"71 278 OFFCURVE",
"74 353 OFFCURVE",
"92 343 CURVE",
"89 348 OFFCURVE",
"87 354 OFFCURVE",
"84 359 CURVE",
"83 369 OFFCURVE",
"106 371 OFFCURVE",
"112 377 CURVE SMOOTH",
"113 378 OFFCURVE",
"140 413 OFFCURVE",
"130 413 CURVE SMOOTH",
"108 412 OFFCURVE",
"131 455 OFFCURVE",
"140 450 CURVE SMOOTH",
"160 438 OFFCURVE",
"139 482 OFFCURVE",
"138 485 CURVE SMOOTH",
"117 537 OFFCURVE",
"160 541 OFFCURVE",
"193 563 CURVE SMOOTH",
"231 588 OFFCURVE",
"214 623 OFFCURVE",
"195 646 CURVE SMOOTH",
"187 655 OFFCURVE",
"199 657 OFFCURVE",
"203 658 CURVE SMOOTH",
"227 664 OFFCURVE",
"223 698 OFFCURVE",
"236 701 CURVE SMOOTH",
"258 706 OFFCURVE",
"256 728 OFFCURVE",
"275 707 CURVE SMOOTH",
"297 682 OFFCURVE",
"294 707 OFFCURVE",
"311 717 CURVE SMOOTH",
"325 726 OFFCURVE",
"395 741 OFFCURVE",
"375 768 CURVE SMOOTH",
"372 771 OFFCURVE",
"429 789 OFFCURVE",
"429 789 CURVE SMOOTH",
"433 787 OFFCURVE",
"439 785 OFFCURVE",
"443 782 CURVE SMOOTH",
"454 777 OFFCURVE",
"433 747 OFFCURVE",
"434 741 CURVE SMOOTH",
"439 718 OFFCURVE",
"478 693 OFFCURVE",
"463 666 CURVE SMOOTH",
"455 651 OFFCURVE",
"497 659 OFFCURVE",
"500 657 CURVE SMOOTH",
"525 645 OFFCURVE",
"526 673 OFFCURVE",
"545 669 CURVE SMOOTH",
"556 666 OFFCURVE",
"564 722 OFFCURVE",
"583 670 CURVE SMOOTH",
"589 655 OFFCURVE",
"600 626 OFFCURVE",
"619 644 CURVE SMOOTH",
"627 651 OFFCURVE",
"650 663 OFFCURVE",
"661 664 CURVE SMOOTH",
"683 666 OFFCURVE",
"688 633 OFFCURVE",
"695 626 CURVE"
);
}
);
width = 747;
}
);
unicode = 0046;
},
{
glyphname = G;
lastChange = "2014-07-05 06:44:48 -0500";
layers = (
{
layerId = "8AC23886-B8FB-470C-B711-F8E78732F9C5";
name = Regular;
paths = (
{
closed = 1;
nodes = (
"49 596 OFFCURVE",
"67 603 OFFCURVE",
"74 621 CURVE SMOOTH",
"79 636 OFFCURVE",
"80 660 OFFCURVE",
"93 671 CURVE SMOOTH",
"101 678 OFFCURVE",
"100 697 OFFCURVE",
"112 697 CURVE SMOOTH",
"128 697 OFFCURVE",
"155 687 OFFCURVE",
"160 706 CURVE SMOOTH",
"164 722 OFFCURVE",
"182 732 OFFCURVE",
"194 742 CURVE SMOOTH",
"206 752 OFFCURVE",
"221 752 OFFCURVE",
"232 763 CURVE SMOOTH",
"240 773 OFFCURVE",
"253 772 OFFCURVE",
"255 760 CURVE SMOOTH",
"256 750 OFFCURVE",
"278 774 OFFCURVE",
"285 773 CURVE SMOOTH",
"304 772 OFFCURVE",
"308 776 OFFCURVE",
"314 793 CURVE SMOOTH",
"318 804 OFFCURVE",
"307 815 OFFCURVE",
"312 825 CURVE SMOOTH",
"321 842 OFFCURVE",
"376 848 OFFCURVE",
"382 831 CURVE SMOOTH",
"389 808 OFFCURVE",
"396 785 OFFCURVE",
"404 763 CURVE SMOOTH",
"410 742 OFFCURVE",
"404 742 OFFCURVE",
"388 731 CURVE SMOOTH",
"381 727 OFFCURVE",
"408 702 OFFCURVE",
"411 699 CURVE SMOOTH",
"417 693 OFFCURVE",
"426 687 OFFCURVE",
"430 680 CURVE SMOOTH",
"435 671 OFFCURVE",
"426 659 OFFCURVE",
"430 650 CURVE",
"430 650 OFFCURVE",
"451 652 OFFCURVE",
"444 660 CURVE SMOOTH",
"441 664 OFFCURVE",
"447 666 OFFCURVE",
"449 663 CURVE SMOOTH",
"452 660 OFFCURVE",
"453 655 OFFCURVE",
"456 652 CURVE",
"458 657 OFFCURVE",
"460 669 OFFCURVE",
"470 665 CURVE SMOOTH",
"473 664 OFFCURVE",
"470 654 OFFCURVE",
"476 656 CURVE SMOOTH",
"479 656 OFFCURVE",
"479 660 OFFCURVE",
"481 660 CURVE SMOOTH",
"486 661 OFFCURVE",
"478 670 OFFCURVE",
"491 667 CURVE SMOOTH",
"503 664 OFFCURVE",
"509 671 OFFCURVE",
"520 669 CURVE SMOOTH",
"558 664 OFFCURVE",
"532 635 OFFCURVE",
"530 616 CURVE SMOOTH",
"530 610 OFFCURVE",
"519 597 OFFCURVE",
"514 596 CURVE SMOOTH",
"512 596 OFFCURVE",
"491 588 OFFCURVE",
"490 586 CURVE",
"496 582 OFFCURVE",
"504 585 OFFCURVE",
"511 581 CURVE SMOOTH",
"519 576 OFFCURVE",
"524 571 OFFCURVE",
"534 567 CURVE SMOOTH",
"542 564 OFFCURVE",
"535 555 OFFCURVE",
"542 550 CURVE SMOOTH",
"546 548 OFFCURVE",
"549 542 OFFCURVE",
"552 541 CURVE SMOOTH",
"557 538 OFFCURVE",
"564 542 OFFCURVE",
"569 538 CURVE SMOOTH",
"573 534 OFFCURVE",
"567 516 OFFCURVE",
"566 511 CURVE SMOOTH",
"564 504 OFFCURVE",
"569 509 OFFCURVE",
"572 508 CURVE",
"573 506 OFFCURVE",
"574 504 OFFCURVE",
"575 502 CURVE",
"578 500 OFFCURVE",
"586 506 OFFCURVE",
"590 506 CURVE",
"588 496 OFFCURVE",
"600 474 OFFCURVE",
"612 475 CURVE",
"615 474 OFFCURVE",
"619 473 OFFCURVE",
"622 473 CURVE",
"626 475 OFFCURVE",
"628 483 OFFCURVE",
"632 486 CURVE SMOOTH",
"635 488 OFFCURVE",
"643 489 OFFCURVE",
"639 494 CURVE SMOOTH",
"638 495 OFFCURVE",
"627 508 OFFCURVE",
"628 509 CURVE SMOOTH",
"634 513 OFFCURVE",
"667 520 OFFCURVE",
"672 516 CURVE SMOOTH",
"687 506 OFFCURVE",
"696 502 OFFCURVE",
"711 513 CURVE SMOOTH",
"724 523 OFFCURVE",
"744 531 OFFCURVE",
"761 528 CURVE SMOOTH",
"768 526 OFFCURVE",
"771 508 OFFCURVE",
"774 500 CURVE SMOOTH",
"779 489 OFFCURVE",
"760 478 OFFCURVE",
"755 469 CURVE SMOOTH",
"749 458 OFFCURVE",
"736 455 OFFCURVE",
"726 448 CURVE SMOOTH",
"715 440 OFFCURVE",
"737 427 OFFCURVE",
"720 418 CURVE SMOOTH",
"709 412 OFFCURVE",
"729 394 OFFCURVE",
"732 391 CURVE SMOOTH",
"742 385 OFFCURVE",
"757 358 OFFCURVE",
"769 360 CURVE SMOOTH",
"774 361 OFFCURVE",
"794 360 OFFCURVE",
"795 353 CURVE SMOOTH",
"796 347 OFFCURVE",
"786 341 OFFCURVE",
"800 345 CURVE",
"800 344 OFFCURVE",
"824 322 OFFCURVE",
"824 322 CURVE",
"825 317 OFFCURVE",
"838 303 OFFCURVE",
"828 301 CURVE SMOOTH",
"816 299 OFFCURVE",
"833 284 OFFCURVE",
"834 283 CURVE SMOOTH",
"838 279 OFFCURVE",
"845 255 OFFCURVE",
"842 250 CURVE SMOOTH",
"838 244 OFFCURVE",
"831 249 OFFCURVE",
"830 239 CURVE SMOOTH",
"830 233 OFFCURVE",
"832 229 OFFCURVE",
"832 224 CURVE",
"834 224 OFFCURVE",
"845 216 OFFCURVE",
"843 215 CURVE",
"846 217 OFFCURVE",
"856 225 OFFCURVE",
"859 218 CURVE SMOOTH",
"860 215 OFFCURVE",
"855 217 OFFCURVE",
"853 215 CURVE",
"856 213 OFFCURVE",
"861 201 OFFCURVE",
"861 201 CURVE",
"858 201 OFFCURVE",
"879 204 OFFCURVE",
"873 197 CURVE SMOOTH",
"872 196 OFFCURVE",
"865 194 OFFCURVE",
"867 191 CURVE",
"862 198 OFFCURVE",
"886 190 OFFCURVE",
"879 189 CURVE",
"883 190 OFFCURVE",
"878 194 OFFCURVE",
"884 193 CURVE SMOOTH",
"891 191 OFFCURVE",
"888 181 OFFCURVE",
"895 178 CURVE SMOOTH",
"896 177 OFFCURVE",
"911 193 OFFCURVE",
"904 195 CURVE",
"908 194 OFFCURVE",
"903 213 OFFCURVE",
"903 214 CURVE",
"903 213 OFFCURVE",
"926 217 OFFCURVE",
"929 218 CURVE SMOOTH",
"929 218 OFFCURVE",
"932 237 OFFCURVE",
"936 233 CURVE",
"934 235 OFFCURVE",
"929 229 OFFCURVE",
"929 234 CURVE SMOOTH",
"929 234 OFFCURVE",
"942 250 OFFCURVE",
"929 256 CURVE SMOOTH",
"926 257 OFFCURVE",
"905 261 OFFCURVE",
"905 263 CURVE",
"915 257 OFFCURVE",
"904 287 OFFCURVE",
"900 283 CURVE",
"904 288 OFFCURVE",
"908 294 OFFCURVE",
"916 297 CURVE SMOOTH",
"926 302 OFFCURVE",
"912 313 OFFCURVE",
"911 315 CURVE",
"923 308 OFFCURVE",
"916 327 OFFCURVE",
"917 328 CURVE SMOOTH",
"919 331 OFFCURVE",
"933 324 OFFCURVE",
"935 329 CURVE",
"934 329 OFFCURVE",
"942 328 OFFCURVE",
"945 328 CURVE SMOOTH",
"963 333 OFFCURVE",
"954 316 OFFCURVE",
"961 310 CURVE SMOOTH",
"973 302 OFFCURVE",
"987 305 OFFCURVE",
"998 294 CURVE SMOOTH",
"1005 286 OFFCURVE",
"1010 281 OFFCURVE",
"1017 287 CURVE",
"1018 283 OFFCURVE",
"1033 269 OFFCURVE",
"1036 276 CURVE",
"1039 270 OFFCURVE",
"1045 271 OFFCURVE",
"1047 264 CURVE SMOOTH",
"1048 261 OFFCURVE",
"1050 248 OFFCURVE",
"1049 244 CURVE SMOOTH",
"1049 228 OFFCURVE",
"1026 221 OFFCURVE",
"1039 202 CURVE SMOOTH",
"1065 164 OFFCURVE",
"983 178 OFFCURVE",
"983 177 CURVE SMOOTH",
"983 173 OFFCURVE",
"978 164 OFFCURVE",
"989 158 CURVE SMOOTH",
"1004 151 OFFCURVE",
"975 151 OFFCURVE",
"974 150 CURVE SMOOTH",
"971 150 OFFCURVE",
"952 143 OFFCURVE",
"949 146 CURVE SMOOTH",
"942 151 OFFCURVE",
"938 164 OFFCURVE",
"927 164 CURVE SMOOTH",
"918 164 OFFCURVE",
"899 165 OFFCURVE",
"902 152 CURVE SMOOTH",
"905 141 OFFCURVE",
"909 135 OFFCURVE",
"897 126 CURVE SMOOTH",
"882 113 OFFCURVE",
"910 115 OFFCURVE",
"915 103 CURVE SMOOTH",
"922 87 OFFCURVE",
"896 101 OFFCURVE",
"898 94 CURVE SMOOTH",
"898 92 OFFCURVE",
"904 93 OFFCURVE",
"905 90 CURVE SMOOTH",
"909 82 OFFCURVE",
"899 85 OFFCURVE",
"899 77 CURVE SMOOTH",
"898 66 OFFCURVE",
"896 71 OFFCURVE",
"900 61 CURVE",
"899 59 OFFCURVE",
"898 57 OFFCURVE",
"897 55 CURVE",
"898 49 OFFCURVE",
"904 46 OFFCURVE",
"902 40 CURVE SMOOTH",
"898 29 OFFCURVE",
"893 48 OFFCURVE",
"883 40 CURVE SMOOTH",
"876 34 OFFCURVE",
"870 50 OFFCURVE",
"861 40 CURVE",
"859 38 OFFCURVE",
"857 35 OFFCURVE",
"856 31 CURVE",
"853 22 OFFCURVE",
"852 29 OFFCURVE",
"846 27 CURVE SMOOTH",
"841 25 OFFCURVE",
"866 6 OFFCURVE",
"862 6 CURVE",
"862 7 OFFCURVE",
"861 8 OFFCURVE",
"860 8 CURVE",
"859 8 OFFCURVE",
"860 -3 OFFCURVE",
"860 -2 CURVE",
"859 -11 OFFCURVE",
"850 -12 OFFCURVE",
"843 -15 CURVE SMOOTH",
"836 -17 OFFCURVE",
"834 -13 OFFCURVE",
"829 -11 CURVE SMOOTH",
"821 -8 OFFCURVE",
"823 -23 OFFCURVE",
"828 -25 CURVE",
"809 -39 OFFCURVE",
"795 -34 OFFCURVE",
"774 -29 CURVE SMOOTH",
"770 -28 OFFCURVE",
"759 -20 OFFCURVE",
"756 -17 CURVE SMOOTH",
"746 -7 OFFCURVE",
"755 -10 OFFCURVE",
"759 -1 CURVE",
"758 -3 OFFCURVE",
"758 12 OFFCURVE",
"758 12 CURVE",
"757 15 OFFCURVE",
"756 18 OFFCURVE",
"755 21 CURVE",
"755 25 OFFCURVE",
"762 23 OFFCURVE",
"761 25 CURVE SMOOTH",
"761 27 OFFCURVE",
"752 31 OFFCURVE",
"750 32 CURVE SMOOTH",
"743 37 OFFCURVE",
"748 46 OFFCURVE",
"743 52 CURVE SMOOTH",
"738 57 OFFCURVE",
"729 57 OFFCURVE",
"722 57 CURVE SMOOTH",
"722 57 OFFCURVE",
"702 61 OFFCURVE",
"703 59 CURVE",
"703 60 OFFCURVE",
"708 74 OFFCURVE",
"700 68 CURVE SMOOTH",
"691 61 OFFCURVE",
"689 72 OFFCURVE",
"684 69 CURVE SMOOTH",
"679 67 OFFCURVE",
"680 86 OFFCURVE",
"680 91 CURVE SMOOTH",
"681 95 OFFCURVE",
"669 112 OFFCURVE",
"663 113 CURVE",
"664 109 OFFCURVE",
"645 107 OFFCURVE",
"645 102 CURVE SMOOTH",
"644 99 OFFCURVE",
"650 100 OFFCURVE",
"648 95 CURVE SMOOTH",
"647 93 OFFCURVE",
"639 98 OFFCURVE",
"637 98 CURVE SMOOTH",
"633 98 OFFCURVE",
"634 88 OFFCURVE",
"630 87 CURVE SMOOTH",
"627 86 OFFCURVE",
"613 93 OFFCURVE",
"613 86 CURVE SMOOTH",
"613 84 OFFCURVE",
"625 58 OFFCURVE",
"627 55 CURVE SMOOTH",
"631 51 OFFCURVE",
"633 44 OFFCURVE",
"625 41 CURVE SMOOTH",
"620 39 OFFCURVE",
"620 42 OFFCURVE",
"615 38 CURVE SMOOTH",
"613 36 OFFCURVE",
"615 25 OFFCURVE",
"612 26 CURVE",
"610 27 OFFCURVE",
"608 29 OFFCURVE",
"607 31 CURVE",
"603 20 OFFCURVE",
"584 16 OFFCURVE",
"585 30 CURVE SMOOTH",
"586 31 OFFCURVE",
"595 44 OFFCURVE",
"596 46 CURVE SMOOTH",
"598 48 OFFCURVE",
"592 59 OFFCURVE",
"591 59 CURVE SMOOTH",
"590 56 OFFCURVE",
"591 54 OFFCURVE",
"587 52 CURVE SMOOTH",
"576 46 OFFCURVE",
"579 53 OFFCURVE",
"577 60 CURVE SMOOTH",
"572 75 OFFCURVE",
"560 63 OFFCURVE",
"549 64 CURVE",
"558 63 OFFCURVE",
"541 86 OFFCURVE",
"541 86 CURVE SMOOTH",
"538 89 OFFCURVE",
"524 110 OFFCURVE",
"526 114 CURVE SMOOTH",
"533 132 OFFCURVE",
"546 127 OFFCURVE",
"561 117 CURVE SMOOTH",
"571 111 OFFCURVE",
"579 107 OFFCURVE",
"588 99 CURVE",
"585 102 OFFCURVE",
"603 100 OFFCURVE",
"602 100 CURVE",
"604 100 OFFCURVE",
"609 109 OFFCURVE",
"610 110 CURVE SMOOTH",
"614 114 OFFCURVE",
"616 115 OFFCURVE",
"622 118 CURVE SMOOTH",
"624 118 OFFCURVE",
"588 161 OFFCURVE",
"608 163 CURVE SMOOTH",
"615 164 OFFCURVE",
"612 164 OFFCURVE",
"616 171 CURVE SMOOTH",
"620 177 OFFCURVE",
"627 174 OFFCURVE",
"631 179 CURVE SMOOTH",
"633 182 OFFCURVE",
"636 184 OFFCURVE",
"637 186 CURVE SMOOTH",
"640 189 OFFCURVE",
"633 198 OFFCURVE",
"631 197 CURVE",
"635 200 OFFCURVE",
"634 196 OFFCURVE",
"633 203 CURVE SMOOTH",
"633 209 OFFCURVE",
"643 203 OFFCURVE",
"645 209 CURVE SMOOTH",
"650 228 OFFCURVE",
"661 203 OFFCURVE",
"666 209 CURVE SMOOTH",
"671 216 OFFCURVE",
"655 230 OFFCURVE",
"663 236 CURVE SMOOTH",
"668 241 OFFCURVE",
"677 234 OFFCURVE",
"679 242 CURVE SMOOTH",
"679 243 OFFCURVE",
"679 261 OFFCURVE",
"675 257 CURVE",
"678 261 OFFCURVE",
"682 265 OFFCURVE",
"687 267 CURVE",
"680 274 OFFCURVE",
"677 278 OFFCURVE",
"673 285 CURVE SMOOTH",
"667 294 OFFCURVE",
"675 294 OFFCURVE",
"666 302 CURVE SMOOTH",
"656 310 OFFCURVE",
"672 312 OFFCURVE",
"663 324 CURVE SMOOTH",
"662 326 OFFCURVE",
"654 332 OFFCURVE",
"656 335 CURVE",
"657 337 OFFCURVE",
"658 339 OFFCURVE",
"658 342 CURVE",
"661 342 OFFCURVE",
"664 342 OFFCURVE",
"666 342 CURVE",
"669 345 OFFCURVE",
"640 369 OFFCURVE",
"637 371 CURVE",
"639 369 OFFCURVE",
"632 389 OFFCURVE",
"632 389 CURVE",
"629 401 OFFCURVE",
"621 385 OFFCURVE",
"617 392 CURVE SMOOTH",
"614 396 OFFCURVE",
"610 399 OFFCURVE",
"606 404 CURVE SMOOTH",
"597 415 OFFCURVE",
"594 400 OFFCURVE",
"586 405 CURVE SMOOTH",
"574 414 OFFCURVE",
"562 422 OFFCURVE",
"565 437 CURVE",
"556 435 OFFCURVE",
"557 444 OFFCURVE",
"547 444 CURVE SMOOTH",
"540 445 OFFCURVE",
"531 451 OFFCURVE",
"528 456 CURVE SMOOTH",
"504 486 OFFCURVE",
"521 448 OFFCURVE",
"518 447 CURVE SMOOTH",
"506 446 OFFCURVE",
"486 473 OFFCURVE",
"480 480 CURVE SMOOTH",
"474 487 OFFCURVE",
"468 493 OFFCURVE",
"463 499 CURVE SMOOTH",
"457 507 OFFCURVE",
"460 507 OFFCURVE",
"459 512 CURVE SMOOTH",
"458 513 OFFCURVE",
"437 527 OFFCURVE",
"435 525 CURVE SMOOTH",
"430 520 OFFCURVE",
"430 515 OFFCURVE",
"423 517 CURVE SMOOTH",
"419 518 OFFCURVE",
"410 533 OFFCURVE",
"408 521 CURVE SMOOTH",
"406 507 OFFCURVE",
"396 507 OFFCURVE",
"389 513 CURVE SMOOTH",
"380 521 OFFCURVE",
"372 525 OFFCURVE",
"364 534 CURVE SMOOTH",
"361 537 OFFCURVE",
"328 556 OFFCURVE",
"332 544 CURVE SMOOTH",
"333 540 OFFCURVE",
"327 523 OFFCURVE",
"327 517 CURVE SMOOTH",
"327 502 OFFCURVE",
"328 493 OFFCURVE",
"311 504 CURVE",
"310 498 OFFCURVE",
"308 496 OFFCURVE",
"304 495 CURVE SMOOTH",
"302 494 OFFCURVE",
"300 475 OFFCURVE",
"300 472 CURVE",
"292 474 OFFCURVE",
"285 484 OFFCURVE",
"279 474 CURVE SMOOTH",
"275 468 OFFCURVE",
"261 476 OFFCURVE",
"258 480 CURVE SMOOTH",
"256 483 OFFCURVE",
"253 489 OFFCURVE",
"250 492 CURVE SMOOTH",
"242 498 OFFCURVE",
"237 489 OFFCURVE",
"228 489 CURVE SMOOTH",
"212 489 OFFCURVE",
"212 504 OFFCURVE",
"195 503 CURVE SMOOTH",
"163 502 OFFCURVE",
"178 509 OFFCURVE",
"167 532 CURVE SMOOTH",
"164 539 OFFCURVE",
"125 532 OFFCURVE",
"129 545 CURVE",
"129 542 OFFCURVE",
"144 550 OFFCURVE",
"137 550 CURVE SMOOTH",
"130 551 OFFCURVE",
"125 559 OFFCURVE",
"116 559 CURVE SMOOTH",
"112 559 OFFCURVE",
"103 556 OFFCURVE",
"99 560 CURVE SMOOTH",
"95 564 OFFCURVE",
"103 579 OFFCURVE",
"96 582 CURVE SMOOTH",
"82 588 OFFCURVE",
"59 586 OFFCURVE",
"50 577 CURVE"
);
}
);
width = 1099.31;
}
);
unicode = 0047;
},
{
glyphname = H;
lastChange = "2014-07-05 08:39:48 -0500";
layers = (
{
layerId = "8AC23886-B8FB-470C-B711-F8E78732F9C5";
name = Regular;
paths = (
{
closed = 1;
nodes = (
"639 737 OFFCURVE",
"713 724 OFFCURVE",
"724 701 CURVE",
"725 711 OFFCURVE",
"724 720 OFFCURVE",
"722 730 CURVE",
"725 739 OFFCURVE",
"813 683 OFFCURVE",
"794 702 CURVE",
"804 702 OFFCURVE",
"803 652 OFFCURVE",
"820 664 CURVE SMOOTH",
"836 676 OFFCURVE",
"807 710 OFFCURVE",
"798 711 CURVE SMOOTH",
"769 715 OFFCURVE",
"839 771 OFFCURVE",
"838 768 CURVE",
"858 733 OFFCURVE",
"858 711 OFFCURVE",
"902 701 CURVE SMOOTH",
"926 695 OFFCURVE",
"932 726 OFFCURVE",
"946 688 CURVE SMOOTH",
"961 646 OFFCURVE",
"961 604 OFFCURVE",
"975 563 CURVE",
"957 572 OFFCURVE",
"909 532 OFFCURVE",
"896 529 CURVE SMOOTH",
"864 524 OFFCURVE",
"820 424 OFFCURVE",
"803 401 CURVE",
"835 386 OFFCURVE",
"784 384 OFFCURVE",
"775 371 CURVE",
"779 367 OFFCURVE",
"784 367 OFFCURVE",
"788 372 CURVE",
"812 353 OFFCURVE",
"762 345 OFFCURVE",
"798 371 CURVE",
"794 343 OFFCURVE",
"776 328 OFFCURVE",
"775 302 CURVE SMOOTH",
"774 296 OFFCURVE",
"745 247 OFFCURVE",
"747 243 CURVE",
"756 238 OFFCURVE",
"765 237 OFFCURVE",
"774 242 CURVE",
"771 251 OFFCURVE",
"771 260 OFFCURVE",
"773 269 CURVE",
"796 176 OFFCURVE",
"774 270 OFFCURVE",
"752 221 CURVE SMOOTH",
"744 203 OFFCURVE",
"734 173 OFFCURVE",
"706 189 CURVE",
"722 186 OFFCURVE",
"732 190 OFFCURVE",
"738 201 CURVE",
"742 215 OFFCURVE",
"646 155 OFFCURVE",
"638 148 CURVE SMOOTH",
"614 127 OFFCURVE",
"619 100 OFFCURVE",
"602 86 CURVE",
"613 116 OFFCURVE",
"595 71 OFFCURVE",
"599 82 CURVE",
"595 70 OFFCURVE",
"563 71 OFFCURVE",
"564 87 CURVE",
"576 77 OFFCURVE",
"601 92 OFFCURVE",
"584 105 CURVE",
"583 115 OFFCURVE",
"424 49 OFFCURVE",
"476 33 CURVE",
"469 35 OFFCURVE",
"462 36 OFFCURVE",
"455 36 CURVE",
"446 34 OFFCURVE",
"479 25 OFFCURVE",
"478 27 CURVE",
"486 9 OFFCURVE",
"458 22 OFFCURVE",
"467 8 CURVE",
"472 10 OFFCURVE",
"407 -5 OFFCURVE",
"406 -4 CURVE SMOOTH",
"402 -2 OFFCURVE",
"412 27 OFFCURVE",
"412 28 CURVE",
"407 21 OFFCURVE",
"380 -3 OFFCURVE",
"371 6 CURVE SMOOTH",
"355 23 OFFCURVE",
"385 32 OFFCURVE",
"328 41 CURVE SMOOTH",
"300 45 OFFCURVE",
"253 32 OFFCURVE",
"242 65 CURVE SMOOTH",
"235 85 OFFCURVE",
"53 104 OFFCURVE",
"67 147 CURVE SMOOTH",
"75 172 OFFCURVE",
"91 225 OFFCURVE",
"61 245 CURVE SMOOTH",
"50 253 OFFCURVE",
"54 321 OFFCURVE",
"51 340 CURVE SMOOTH",
"46 380 OFFCURVE",
"59 410 OFFCURVE",
"74 430 CURVE",
"73 429 OFFCURVE",
"55 467 OFFCURVE",
"80 463 CURVE SMOOTH",
"103 459 OFFCURVE",
"168 522 OFFCURVE",
"173 506 CURVE",
"172 550 OFFCURVE",
"317 598 OFFCURVE",
"317 587 CURVE",
"317 587 OFFCURVE",
"304 626 OFFCURVE",
"309 622 CURVE",
"302 627 OFFCURVE",
"271 600 OFFCURVE",
"262 598 CURVE",
"272 646 OFFCURVE",
"345 707 OFFCURVE",
"378 636 CURVE",
"388 655 OFFCURVE",
"397 645 OFFCURVE",
"400 639 CURVE",
"404 642 OFFCURVE",
"408 645 OFFCURVE",
"411 649 CURVE",
"408 648 OFFCURVE",
"388 658 OFFCURVE",
"395 667 CURVE",
"401 671 OFFCURVE",
"408 671 OFFCURVE",
"414 667 CURVE",
"407 669 OFFCURVE",
"403 673 OFFCURVE",
"400 680 CURVE",
"400 715 OFFCURVE",
"467 703 OFFCURVE",
"478 690 CURVE",
"478 715 OFFCURVE",
"504 676 OFFCURVE",
"511 682 CURVE",
"508 686 OFFCURVE",
"508 691 OFFCURVE",
"510 696 CURVE",
"513 701 OFFCURVE",
"516 667 OFFCURVE",
"517 667 CURVE SMOOTH",
"522 666 OFFCURVE",
"532 696 OFFCURVE",
"543 697 CURVE SMOOTH",
"576 700 OFFCURVE",
"561 669 OFFCURVE",
"577 662 CURVE",
"576 673 OFFCURVE",
"577 675 OFFCURVE",
"583 662 CURVE",
"586 706 OFFCURVE",
"624 678 OFFCURVE",
"636 709 CURVE",
"629 700 OFFCURVE",
"620 696 OFFCURVE",
"609 696 CURVE",
"616 700 OFFCURVE",
"622 704 OFFCURVE",
"628 708 CURVE",
"642 748 OFFCURVE",
"624 702 OFFCURVE",
"628 708 CURVE"
);
}
);
width = 1025;
}
);
unicode = 0048;
},
{
glyphname = I;
lastChange = "2014-07-05 08:42:28 -0500";
layers = (
{
layerId = "8AC23886-B8FB-470C-B711-F8E78732F9C5";
name = Regular;
paths = (
{
closed = 1;
nodes = (
"977 652 OFFCURVE",
"980 641 OFFCURVE",
"979 631 CURVE SMOOTH",
"976 615 OFFCURVE",
"995 630 OFFCURVE",
"997 622 CURVE SMOOTH",
"1001 601 OFFCURVE",
"973 592 OFFCURVE",
"992 581 CURVE",
"979 588 OFFCURVE",
"1007 493 OFFCURVE",
"1007 494 CURVE",
"1007 478 OFFCURVE",
"958 459 OFFCURVE",
"958 471 CURVE",
"953 462 OFFCURVE",
"950 448 OFFCURVE",
"944 439 CURVE SMOOTH",
"933 423 OFFCURVE",
"908 418 OFFCURVE",
"896 404 CURVE",
"909 399 OFFCURVE",
"911 385 OFFCURVE",
"926 398 CURVE SMOOTH",
"932 403 OFFCURVE",
"944 419 OFFCURVE",
"954 415 CURVE",
"955 412 OFFCURVE",
"954 409 OFFCURVE",
"952 406 CURVE",
"952 409 OFFCURVE",
"1008 432 OFFCURVE",
"1011 405 CURVE SMOOTH",
"1011 401 OFFCURVE",
"1019 393 OFFCURVE",
"1020 388 CURVE SMOOTH",
"1026 372 OFFCURVE",
"1012 380 OFFCURVE",
"1007 368 CURVE",
"1011 368 OFFCURVE",
"1014 369 OFFCURVE",
"1018 369 CURVE",
"1046 355 OFFCURVE",
"979 335 OFFCURVE",
"981 338 CURVE",
"977 331 OFFCURVE",
"996 321 OFFCURVE",
"998 316 CURVE SMOOTH",
"1003 304 OFFCURVE",
"991 291 OFFCURVE",
"986 282 CURVE SMOOTH",
"960 236 OFFCURVE",
"1003 273 OFFCURVE",
"1012 266 CURVE SMOOTH",
"1020 261 OFFCURVE",
"1006 207 OFFCURVE",
"1001 201 CURVE SMOOTH",
"998 198 OFFCURVE",
"981 164 OFFCURVE",
"988 160 CURVE",
"977 152 OFFCURVE",
"967 166 OFFCURVE",
"960 170 CURVE",
"959 167 OFFCURVE",
"959 164 OFFCURVE",
"957 161 CURVE",
"974 171 OFFCURVE",
"889 164 OFFCURVE",
"916 152 CURVE SMOOTH",
"922 149 OFFCURVE",
"938 164 OFFCURVE",
"942 156 CURVE SMOOTH",
"942 154 OFFCURVE",
"939 118 OFFCURVE",
"940 119 CURVE",
"914 110 OFFCURVE",
"904 131 OFFCURVE",
"890 138 CURVE SMOOTH",
"874 146 OFFCURVE",
"868 83 OFFCURVE",
"864 82 CURVE",
"872 83 OFFCURVE",
"832 108 OFFCURVE",
"833 107 CURVE",
"831 109 OFFCURVE",
"818 126 OFFCURVE",
"816 122 CURVE SMOOTH",
"814 119 OFFCURVE",
"788 100 OFFCURVE",
"791 107 CURVE",
"777 71 OFFCURVE",
"778 58 OFFCURVE",
"726 48 CURVE",
"727 49 OFFCURVE",
"724 71 OFFCURVE",
"723 71 CURVE",
"719 70 OFFCURVE",
"717 67 OFFCURVE",
"715 64 CURVE",
"708 64 OFFCURVE",
"714 81 OFFCURVE",
"709 82 CURVE",
"719 80 OFFCURVE",
"665 68 OFFCURVE",
"678 75 CURVE",
"663 66 OFFCURVE",
"668 101 OFFCURVE",
"660 102 CURVE SMOOTH",
"648 103 OFFCURVE",
"646 123 OFFCURVE",
"640 134 CURVE SMOOTH",
"629 153 OFFCURVE",
"607 122 OFFCURVE",
"599 115 CURVE SMOOTH",
"589 107 OFFCURVE",
"599 87 OFFCURVE",
"594 72 CURVE",
"589 76 OFFCURVE",
"564 64 OFFCURVE",
"554 64 CURVE SMOOTH",
"528 63 OFFCURVE",
"513 40 OFFCURVE",
"491 33 CURVE SMOOTH",
"480 29 OFFCURVE",
"466 34 OFFCURVE",
"456 27 CURVE SMOOTH",
"455 27 OFFCURVE",
"460 0 OFFCURVE",
"458 -4 CURVE SMOOTH",
"457 -8 OFFCURVE",
"432 -32 OFFCURVE",
"428 -31 CURVE",
"423 -27 OFFCURVE",
"419 -22 OFFCURVE",
"415 -16 CURVE",
"408 -10 OFFCURVE",
"393 -17 OFFCURVE",
"383 -9 CURVE",
"376 -5 OFFCURVE",
"369 -2 OFFCURVE",
"362 1 CURVE",
"351 7 OFFCURVE",
"341 21 OFFCURVE",
"331 27 CURVE SMOOTH",
"322 32 OFFCURVE",
"305 20 OFFCURVE",
"301 35 CURVE SMOOTH",
"297 51 OFFCURVE",
"284 36 OFFCURVE",
"278 31 CURVE",
"270 26 OFFCURVE",
"266 19 OFFCURVE",
"265 10 CURVE",
"262 -3 OFFCURVE",
"245 4 OFFCURVE",
"238 -6 CURVE SMOOTH",
"216 -42 OFFCURVE",
"205 -7 OFFCURVE",
"183 -3 CURVE SMOOTH",
"174 -1 OFFCURVE",
"201 30 OFFCURVE",
"204 33 CURVE SMOOTH",
"228 60 OFFCURVE",
"190 50 OFFCURVE",
"190 52 CURVE SMOOTH",
"194 60 OFFCURVE",
"251 85 OFFCURVE",
"226 93 CURVE SMOOTH",
"211 98 OFFCURVE",
"208 92 OFFCURVE",
"203 107 CURVE",
"204 105 OFFCURVE",
"185 145 OFFCURVE",
"190 141 CURVE",
"184 140 OFFCURVE",
"177 139 OFFCURVE",
"171 136 CURVE",
"168 139 OFFCURVE",
"150 179 OFFCURVE",
"159 185 CURVE SMOOTH",
"165 189 OFFCURVE",
"188 244 OFFCURVE",
"186 244 CURVE SMOOTH",
"184 245 OFFCURVE",
"222 303 OFFCURVE",
"222 302 CURVE",
"219 313 OFFCURVE",
"191 362 OFFCURVE",
"182 362 CURVE SMOOTH",
"173 363 OFFCURVE",
"176 348 OFFCURVE",
"167 347 CURVE SMOOTH",
"157 345 OFFCURVE",
"144 352 OFFCURVE",
"135 347 CURVE SMOOTH",
"121 340 OFFCURVE",
"73 314 OFFCURVE",
"74 355 CURVE SMOOTH",
"74 365 OFFCURVE",
"60 395 OFFCURVE",
"76 397 CURVE SMOOTH",
"83 397 OFFCURVE",
"75 420 OFFCURVE",
"73 425 CURVE SMOOTH",
"67 441 OFFCURVE",
"64 426 OFFCURVE",
"55 426 CURVE SMOOTH",
"40 425 OFFCURVE",
"64 443 OFFCURVE",
"61 438 CURVE",
"66 447 OFFCURVE",
"73 456 OFFCURVE",
"88 467 CURVE SMOOTH",
"97 474 OFFCURVE",
"102 482 OFFCURVE",
"106 493 CURVE SMOOTH",
"114 516 OFFCURVE",
"121 488 OFFCURVE",
"130 483 CURVE SMOOTH",
"154 468 OFFCURVE",
"151 464 OFFCURVE",
"170 488 CURVE SMOOTH",
"195 518 OFFCURVE",
"203 466 OFFCURVE",
"233 472 CURVE SMOOTH",
"253 476 OFFCURVE",
"259 464 OFFCURVE",
"272 474 CURVE SMOOTH",
"301 494 OFFCURVE",
"309 469 OFFCURVE",
"324 499 CURVE SMOOTH",
"332 516 OFFCURVE",
"329 541 OFFCURVE",
"351 547 CURVE SMOOTH",
"366 551 OFFCURVE",
"380 544 OFFCURVE",
"388 530 CURVE SMOOTH",
"389 528 OFFCURVE",
"416 536 OFFCURVE",
"420 536 CURVE SMOOTH",
"434 533 OFFCURVE",
"454 549 OFFCURVE",
"467 547 CURVE SMOOTH",
"504 541 OFFCURVE",
"512 572 OFFCURVE",
"491 603 CURVE SMOOTH",
"481 618 OFFCURVE",
"450 616 OFFCURVE",
"437 614 CURVE SMOOTH",
"429 613 OFFCURVE",
"434 622 OFFCURVE",
"433 626 CURVE SMOOTH",
"428 650 OFFCURVE",
"419 639 OFFCURVE",
"405 643 CURVE SMOOTH",
"384 649 OFFCURVE",
"397 686 OFFCURVE",
"406 696 CURVE SMOOTH",
"414 706 OFFCURVE",
"420 699 OFFCURVE",
"430 698 CURVE SMOOTH",
"440 698 OFFCURVE",
"447 720 OFFCURVE",
"454 725 CURVE",
"453 725 OFFCURVE",
"491 689 OFFCURVE",
"495 686 CURVE SMOOTH",
"525 663 OFFCURVE",
"511 690 OFFCURVE",
"535 684 CURVE",
"532 688 OFFCURVE",
"532 692 OFFCURVE",
"534 696 CURVE",
"536 694 OFFCURVE",
"539 692 OFFCURVE",
"542 692 CURVE",
"547 696 OFFCURVE",
"534 737 OFFCURVE",
"532 743 CURVE",
"539 740 OFFCURVE",
"557 699 OFFCURVE",
"555 697 CURVE SMOOTH",
"534 687 OFFCURVE",
"559 674 OFFCURVE",
"564 670 CURVE SMOOTH",
"571 665 OFFCURVE",
"575 687 OFFCURVE",
"573 691 CURVE SMOOTH",
"570 701 OFFCURVE",
"586 691 OFFCURVE",
"588 693 CURVE SMOOTH",
"602 705 OFFCURVE",
"588 711 OFFCURVE",
"585 721 CURVE",
"587 715 OFFCURVE",
"640 753 OFFCURVE",
"654 726 CURVE SMOOTH",
"656 721 OFFCURVE",
"682 745 OFFCURVE",
"684 748 CURVE SMOOTH",
"689 753 OFFCURVE",
"685 771 OFFCURVE",
"680 775 CURVE SMOOTH",
"674 782 OFFCURVE",
"686 792 OFFCURVE",
"688 798 CURVE SMOOTH",
"694 811 OFFCURVE",
"716 794 OFFCURVE",
"721 794 CURVE SMOOTH",
"736 794 OFFCURVE",
"743 802 OFFCURVE",
"747 780 CURVE SMOOTH",
"754 748 OFFCURVE",
"759 769 OFFCURVE",
"780 770 CURVE SMOOTH",
"796 772 OFFCURVE",
"813 776 OFFCURVE",
"826 776 CURVE SMOOTH",
"833 776 OFFCURVE",
"831 700 OFFCURVE",
"847 694 CURVE SMOOTH",
"854 692 OFFCURVE",
"876 703 OFFCURVE",
"875 689 CURVE SMOOTH",
"875 679 OFFCURVE",
"872 665 OFFCURVE",
"872 655 CURVE SMOOTH",
"867 606 OFFCURVE",
"886 667 OFFCURVE",
"886 667 CURVE SMOOTH",
"917 668 OFFCURVE",
"884 615 OFFCURVE",
"897 613 CURVE SMOOTH",
"904 612 OFFCURVE",
"948 601 OFFCURVE",
"953 608 CURVE SMOOTH",
"963 622 OFFCURVE",
"950 658 OFFCURVE",
"979 661 CURVE"
);
}
);
width = 1074.85;
}
);
unicode = 0049;
},
{
glyphname = J;
lastChange = "2014-07-05 08:42:55 -0500";
layers = (
{
layerId = "8AC23886-B8FB-470C-B711-F8E78732F9C5";
name = Regular;
paths = (
{
closed = 1;
nodes = (
"438 758 OFFCURVE",
"458 732 OFFCURVE",
"453 712 CURVE",
"466 746 OFFCURVE",
"538 672 OFFCURVE",
"510 672 CURVE",
"520 663 OFFCURVE",
"528 686 OFFCURVE",
"544 675 CURVE SMOOTH",
"563 662 OFFCURVE",
"594 661 OFFCURVE",
"615 650 CURVE SMOOTH",
"621 647 OFFCURVE",
"637 600 OFFCURVE",
"641 593 CURVE SMOOTH",
"642 590 OFFCURVE",
"657 567 OFFCURVE",
"655 564 CURVE SMOOTH",
"653 561 OFFCURVE",
"648 557 OFFCURVE",
"650 551 CURVE",
"662 569 OFFCURVE",
"676 489 OFFCURVE",
"679 484 CURVE",
"681 505 OFFCURVE",
"706 457 OFFCURVE",
"701 454 CURVE",
"707 458 OFFCURVE",
"715 425 OFFCURVE",
"719 421 CURVE",
"718 422 OFFCURVE",
"729 426 OFFCURVE",
"728 426 CURVE",
"728 426 OFFCURVE",
"740 378 OFFCURVE",
"725 389 CURVE",
"729 384 OFFCURVE",
"742 355 OFFCURVE",
"735 357 CURVE SMOOTH",
"727 360 OFFCURVE",
"768 337 OFFCURVE",
"766 336 CURVE",
"783 332 OFFCURVE",
"826 325 OFFCURVE",
"820 299 CURVE SMOOTH",
"817 287 OFFCURVE",
"816 272 OFFCURVE",
"839 274 CURVE SMOOTH",
"862 276 OFFCURVE",
"923 213 OFFCURVE",
"903 206 CURVE SMOOTH",
"888 201 OFFCURVE",
"855 212 OFFCURVE",
"844 221 CURVE SMOOTH",
"823 239 OFFCURVE",
"801 213 OFFCURVE",
"788 222 CURVE SMOOTH",
"782 226 OFFCURVE",
"758 207 OFFCURVE",
"769 203 CURVE SMOOTH",
"793 194 OFFCURVE",
"804 174 OFFCURVE",
"824 165 CURVE",
"794 148 OFFCURVE",
"797 134 OFFCURVE",
"790 104 CURVE SMOOTH",
"785 81 OFFCURVE",
"771 96 OFFCURVE",
"772 71 CURVE",
"772 81 OFFCURVE",
"729 29 OFFCURVE",
"747 37 CURVE",
"734 31 OFFCURVE",
"731 32 OFFCURVE",
"718 22 CURVE SMOOTH",
"701 8 OFFCURVE",
"710 44 OFFCURVE",
"701 44 CURVE SMOOTH",
"692 46 OFFCURVE",
"688 45 OFFCURVE",
"674 43 CURVE SMOOTH",
"644 39 OFFCURVE",
"629 71 OFFCURVE",
"604 79 CURVE SMOOTH",
"590 83 OFFCURVE",
"583 68 OFFCURVE",
"572 70 CURVE SMOOTH",
"561 72 OFFCURVE",
"553 74 OFFCURVE",
"542 75 CURVE",
"542 74 OFFCURVE",
"537 94 OFFCURVE",
"536 94 CURVE SMOOTH",
"514 102 OFFCURVE",
"471 61 OFFCURVE",
"449 79 CURVE SMOOTH",
"424 99 OFFCURVE",
"454 95 OFFCURVE",
"458 114 CURVE SMOOTH",
"463 143 OFFCURVE",
"450 140 OFFCURVE",
"443 158 CURVE",
"437 150 OFFCURVE",
"419 135 OFFCURVE",
"426 158 CURVE SMOOTH",
"430 172 OFFCURVE",
"401 162 OFFCURVE",
"397 175 CURVE SMOOTH",
"391 193 OFFCURVE",
"363 209 OFFCURVE",
"388 229 CURVE SMOOTH",
"393 233 OFFCURVE",
"440 292 OFFCURVE",
"412 296 CURVE SMOOTH",
"405 297 OFFCURVE",
"392 314 OFFCURVE",
"402 319 CURVE SMOOTH",
"417 325 OFFCURVE",
"433 321 OFFCURVE",
"449 318 CURVE SMOOTH",
"451 318 OFFCURVE",
"502 286 OFFCURVE",
"485 317 CURVE SMOOTH",
"482 323 OFFCURVE",
"491 327 OFFCURVE",
"491 336 CURVE SMOOTH",
"489 363 OFFCURVE",
"482 360 OFFCURVE",
"465 375 CURVE SMOOTH",
"436 401 OFFCURVE",
"446 375 OFFCURVE",
"425 367 CURVE SMOOTH",
"415 362 OFFCURVE",
"428 341 OFFCURVE",
"412 344 CURVE SMOOTH",
"396 347 OFFCURVE",
"378 339 OFFCURVE",
"368 339 CURVE",
"368 339 OFFCURVE",
"359 352 OFFCURVE",
"357 352 CURVE SMOOTH",
"337 354 OFFCURVE",
"344 372 OFFCURVE",
"352 381 CURVE",
"332 387 OFFCURVE",
"347 412 OFFCURVE",
"333 421 CURVE",
"326 421 OFFCURVE",
"321 418 OFFCURVE",
"318 412 CURVE",
"304 403 OFFCURVE",
"309 421 OFFCURVE",
"299 423 CURVE SMOOTH",
"284 425 OFFCURVE",
"316 473 OFFCURVE",
"315 484 CURVE SMOOTH",
"314 494 OFFCURVE",
"323 510 OFFCURVE",
"318 518 CURVE SMOOTH",
"311 529 OFFCURVE",
"276 514 OFFCURVE",
"267 513 CURVE SMOOTH",
"249 511 OFFCURVE",
"257 564 OFFCURVE",
"240 564 CURVE",
"236 561 OFFCURVE",
"232 558 OFFCURVE",
"228 556 CURVE",
"222 559 OFFCURVE",
"230 573 OFFCURVE",
"215 567 CURVE SMOOTH",
"199 561 OFFCURVE",
"204 565 OFFCURVE",
"191 572 CURVE SMOOTH",
"181 577 OFFCURVE",
"170 567 OFFCURVE",
"158 574 CURVE SMOOTH",
"140 585 OFFCURVE",
"157 583 OFFCURVE",
"150 595 CURVE SMOOTH",
"130 632 OFFCURVE",
"96 624 OFFCURVE",
"67 653 CURVE SMOOTH",
"51 669 OFFCURVE",
"46 668 OFFCURVE",
"52 686 CURVE SMOOTH",
"62 718 OFFCURVE",
"96 699 OFFCURVE",
"107 719 CURVE SMOOTH",
"119 742 OFFCURVE",
"170 634 OFFCURVE",
"173 635 CURVE SMOOTH",
"182 639 OFFCURVE",
"177 660 OFFCURVE",
"190 661 CURVE SMOOTH",
"205 661 OFFCURVE",
"207 635 OFFCURVE",
"227 647 CURVE SMOOTH",
"235 652 OFFCURVE",
"260 652 OFFCURVE",
"259 662 CURVE SMOOTH",
"258 682 OFFCURVE",
"272 686 OFFCURVE",
"290 682 CURVE SMOOTH",
"304 680 OFFCURVE",
"307 637 OFFCURVE",
"315 637 CURVE SMOOTH",
"354 635 OFFCURVE",
"345 673 OFFCURVE",
"351 694 CURVE SMOOTH",
"355 706 OFFCURVE",
"386 688 OFFCURVE",
"391 704 CURVE",
"379 706 OFFCURVE",
"394 753 OFFCURVE",
"404 759 CURVE SMOOTH",
"409 763 OFFCURVE",
"459 779 OFFCURVE",
"461 775 CURVE",
"454 771 OFFCURVE",
"458 782 OFFCURVE",
"461 775 CURVE"
);
}
);
width = 956.965;
}
);
unicode = 004A;
},
{
glyphname = K;
lastChange = "2014-07-05 08:45:42 -0500";
layers = (
{
layerId = "8AC23886-B8FB-470C-B711-F8E78732F9C5";
name = Regular;
paths = (
{
closed = 1;
nodes = (
"226 53 OFFCURVE",
"234 83 OFFCURVE",
"216 100 CURVE SMOOTH",
"200 115 OFFCURVE",
"207 117 OFFCURVE",
"201 135 CURVE SMOOTH",
"198 142 OFFCURVE",
"174 175 OFFCURVE",
"187 180 CURVE",
"185 180 OFFCURVE",
"219 218 OFFCURVE",
"220 213 CURVE",
"218 222 OFFCURVE",
"166 247 OFFCURVE",
"162 245 CURVE SMOOTH",
"139 233 OFFCURVE",
"117 273 OFFCURVE",
"128 295 CURVE SMOOTH",
"142 324 OFFCURVE",
"183 329 OFFCURVE",
"187 350 CURVE SMOOTH",
"191 371 OFFCURVE",
"189 392 OFFCURVE",
"184 413 CURVE",
"184 420 OFFCURVE",
"182 427 OFFCURVE",
"179 434 CURVE",
"170 446 OFFCURVE",
"186 450 OFFCURVE",
"183 461 CURVE",
"184 456 OFFCURVE",
"145 434 OFFCURVE",
"142 435 CURVE SMOOTH",
"133 437 OFFCURVE",
"133 443 OFFCURVE",
"126 449 CURVE SMOOTH",
"120 453 OFFCURVE",
"101 452 OFFCURVE",
"103 449 CURVE",
"97 458 OFFCURVE",
"104 453 OFFCURVE",
"92 458 CURVE SMOOTH",
"77 465 OFFCURVE",
"98 494 OFFCURVE",
"84 503 CURVE SMOOTH",
"74 509 OFFCURVE",
"60 505 OFFCURVE",
"51 513 CURVE SMOOTH",
"49 514 OFFCURVE",
"50 539 OFFCURVE",
"51 540 CURVE SMOOTH",
"57 547 OFFCURVE",
"87 528 OFFCURVE",
"98 553 CURVE SMOOTH",
"106 571 OFFCURVE",
"92 597 OFFCURVE",
"107 604 CURVE SMOOTH",
"120 610 OFFCURVE",
"140 611 OFFCURVE",
"134 629 CURVE SMOOTH",
"129 645 OFFCURVE",
"132 649 OFFCURVE",
"135 658 CURVE SMOOTH",
"138 666 OFFCURVE",
"121 667 OFFCURVE",
"128 681 CURVE SMOOTH",
"136 698 OFFCURVE",
"151 694 OFFCURVE",
"160 684 CURVE SMOOTH",
"167 678 OFFCURVE",
"175 691 OFFCURVE",
"185 671 CURVE SMOOTH",
"192 657 OFFCURVE",
"200 638 OFFCURVE",
"219 647 CURVE SMOOTH",
"234 655 OFFCURVE",
"239 667 OFFCURVE",
"253 673 CURVE SMOOTH",
"280 686 OFFCURVE",
"244 696 OFFCURVE",
"246 711 CURVE SMOOTH",
"251 740 OFFCURVE",
"239 729 OFFCURVE",
"217 741 CURVE SMOOTH",
"196 752 OFFCURVE",
"192 791 OFFCURVE",
"223 791 CURVE SMOOTH",
"252 791 OFFCURVE",
"245 749 OFFCURVE",
"284 757 CURVE SMOOTH",
"305 761 OFFCURVE",
"304 722 OFFCURVE",
"310 716 CURVE SMOOTH",
"323 702 OFFCURVE",
"339 716 OFFCURVE",
"351 704 CURVE",
"348 708 OFFCURVE",
"386 698 OFFCURVE",
"378 696 CURVE",
"380 700 OFFCURVE",
"384 702 OFFCURVE",
"388 704 CURVE",
"394 697 OFFCURVE",
"400 661 OFFCURVE",
"402 660 CURVE SMOOTH",
"414 654 OFFCURVE",
"472 680 OFFCURVE",
"453 646 CURVE SMOOTH",
"452 643 OFFCURVE",
"444 618 OFFCURVE",
"443 614 CURVE SMOOTH",
"440 597 OFFCURVE",
"431 585 OFFCURVE",
"444 572 CURVE SMOOTH",
"456 561 OFFCURVE",
"455 579 OFFCURVE",
"465 579 CURVE SMOOTH",
"475 580 OFFCURVE",
"471 548 OFFCURVE",
"484 543 CURVE",
"476 534 OFFCURVE",
"487 507 OFFCURVE",
"497 506 CURVE SMOOTH",
"503 506 OFFCURVE",
"511 509 OFFCURVE",
"520 510 CURVE SMOOTH",
"534 511 OFFCURVE",
"544 508 OFFCURVE",
"544 525 CURVE SMOOTH",
"545 547 OFFCURVE",
"569 553 OFFCURVE",
"582 539 CURVE SMOOTH",
"594 525 OFFCURVE",
"601 532 OFFCURVE",
"604 511 CURVE SMOOTH",
"604 507 OFFCURVE",
"601 488 OFFCURVE",
"601 487 CURVE SMOOTH",
"621 463 OFFCURVE",
"559 493 OFFCURVE",
"561 492 CURVE",
"550 494 OFFCURVE",
"505 484 OFFCURVE",
"531 471 CURVE SMOOTH",
"560 456 OFFCURVE",
"529 424 OFFCURVE",
"517 412 CURVE SMOOTH",
"499 394 OFFCURVE",
"512 373 OFFCURVE",
"528 357 CURVE SMOOTH",
"533 352 OFFCURVE",
"555 365 OFFCURVE",
"548 347 CURVE SMOOTH",
"540 328 OFFCURVE",
"560 344 OFFCURVE",
"563 349 CURVE",
"569 335 OFFCURVE",
"577 343 OFFCURVE",
"577 323 CURVE SMOOTH",
"578 317 OFFCURVE",
"564 286 OFFCURVE",
"563 300 CURVE",
"536 271 OFFCURVE",
"643 294 OFFCURVE",
"644 294 CURVE",
"644 294 OFFCURVE",
"650 277 OFFCURVE",
"650 278 CURVE",
"659 277 OFFCURVE",
"676 272 OFFCURVE",
"683 274 CURVE",
"678 254 OFFCURVE",
"671 226 OFFCURVE",
"669 205 CURVE SMOOTH",
"668 192 OFFCURVE",
"646 199 OFFCURVE",
"639 190 CURVE SMOOTH",
"634 182 OFFCURVE",
"673 164 OFFCURVE",
"664 155 CURVE SMOOTH",
"650 140 OFFCURVE",
"628 137 OFFCURVE",
"609 143 CURVE SMOOTH",
"581 150 OFFCURVE",
"605 89 OFFCURVE",
"602 83 CURVE SMOOTH",
"600 80 OFFCURVE",
"595 69 OFFCURVE",
"593 67 CURVE SMOOTH",
"580 59 OFFCURVE",
"589 48 OFFCURVE",
"579 36 CURVE SMOOTH",
"563 17 OFFCURVE",
"530 13 OFFCURVE",
"519 -12 CURVE",
"497 0 OFFCURVE",
"505 10 OFFCURVE",
"475 7 CURVE SMOOTH",
"471 7 OFFCURVE",
"450 5 OFFCURVE",
"447 8 CURVE SMOOTH",
"439 18 OFFCURVE",
"432 4 OFFCURVE",
"425 16 CURVE SMOOTH",
"424 18 OFFCURVE",
"407 46 OFFCURVE",
"409 46 CURVE",
"404 46 OFFCURVE",
"394 42 OFFCURVE",
"389 46 CURVE SMOOTH",
"371 60 OFFCURVE",
"383 54 OFFCURVE",
"366 45 CURVE SMOOTH",
"358 41 OFFCURVE",
"368 39 OFFCURVE",
"366 35 CURVE SMOOTH",
"362 20 OFFCURVE",
"357 23 OFFCURVE",
"345 14 CURVE SMOOTH",
"340 9 OFFCURVE",
"315 -4 OFFCURVE",
"310 4 CURVE SMOOTH",
"304 14 OFFCURVE",
"309 32 OFFCURVE",
"320 37 CURVE SMOOTH",
"323 39 OFFCURVE",
"344 63 OFFCURVE",
"335 63 CURVE SMOOTH",
"325 62 OFFCURVE",
"309 86 OFFCURVE",
"297 72 CURVE SMOOTH",
"292 66 OFFCURVE",
"298 48 OFFCURVE",
"287 47 CURVE SMOOTH",
"258 44 OFFCURVE",
"267 34 OFFCURVE",
"239 34 CURVE"
);
}
);
width = 733;
}
);
unicode = 004B;
},
{
glyphname = L;
lastChange = "2014-07-05 07:57:58 -0500";
layers = (
{
layerId = "8AC23886-B8FB-470C-B711-F8E78732F9C5";
name = Regular;
paths = (
{
closed = 1;
nodes = (
"196 688 OFFCURVE",
"226 680 OFFCURVE",
"217 691 CURVE SMOOTH",
"216 692 OFFCURVE",
"202 699 OFFCURVE",
"211 704 CURVE SMOOTH",
"217 707 OFFCURVE",
"242 686 OFFCURVE",
"244 711 CURVE SMOOTH",
"247 750 OFFCURVE",
"289 709 OFFCURVE",
"303 716 CURVE SMOOTH",
"323 726 OFFCURVE",
"336 732 OFFCURVE",
"357 740 CURVE SMOOTH",
"369 745 OFFCURVE",
"362 760 OFFCURVE",
"372 764 CURVE SMOOTH",
"376 766 OFFCURVE",
"405 755 OFFCURVE",
"404 751 CURVE SMOOTH",
"403 746 OFFCURVE",
"397 733 OFFCURVE",
"392 733 CURVE SMOOTH",
"376 731 OFFCURVE",
"383 717 OFFCURVE",
"379 713 CURVE SMOOTH",
"368 701 OFFCURVE",
"390 707 OFFCURVE",
"390 707 CURVE SMOOTH",
"405 705 OFFCURVE",
"401 710 OFFCURVE",
"416 716 CURVE SMOOTH",
"424 718 OFFCURVE",
"428 759 OFFCURVE",
"442 749 CURVE SMOOTH",
"449 744 OFFCURVE",
"446 738 OFFCURVE",
"456 737 CURVE SMOOTH",
"470 736 OFFCURVE",
"464 726 OFFCURVE",
"476 715 CURVE SMOOTH",
"489 702 OFFCURVE",
"514 709 OFFCURVE",
"532 709 CURVE SMOOTH",
"542 709 OFFCURVE",
"557 694 OFFCURVE",
"554 684 CURVE SMOOTH",
"554 682 OFFCURVE",
"541 666 OFFCURVE",
"540 666 CURVE SMOOTH",
"527 663 OFFCURVE",
"557 627 OFFCURVE",
"559 626 CURVE SMOOTH",
"579 613 OFFCURVE",
"578 600 OFFCURVE",
"590 576 CURVE SMOOTH",
"594 568 OFFCURVE",
"597 553 OFFCURVE",
"588 546 CURVE SMOOTH",
"575 537 OFFCURVE",
"593 526 OFFCURVE",
"579 521 CURVE SMOOTH",
"573 518 OFFCURVE",
"558 504 OFFCURVE",
"555 503 CURVE SMOOTH",
"543 502 OFFCURVE",
"527 502 OFFCURVE",
"522 487 CURVE SMOOTH",
"518 478 OFFCURVE",
"517 477 OFFCURVE",
"506 485 CURVE SMOOTH",
"488 499 OFFCURVE",
"496 496 OFFCURVE",
"474 485 CURVE SMOOTH",
"462 479 OFFCURVE",
"469 462 OFFCURVE",
"455 454 CURVE SMOOTH",
"452 451 OFFCURVE",
"440 450 OFFCURVE",
"439 449 CURVE",
"440 450 OFFCURVE",
"453 414 OFFCURVE",
"456 410 CURVE SMOOTH",
"476 380 OFFCURVE",
"393 366 OFFCURVE",
"391 340 CURVE SMOOTH",
"390 324 OFFCURVE",
"391 313 OFFCURVE",
"401 300 CURVE SMOOTH",
"414 283 OFFCURVE",
"372 283 OFFCURVE",
"382 258 CURVE",
"384 257 OFFCURVE",
"387 256 OFFCURVE",
"390 255 CURVE",
"390 248 OFFCURVE",
"380 238 OFFCURVE",
"377 233 CURVE SMOOTH",
"370 224 OFFCURVE",
"363 224 OFFCURVE",
"354 219 CURVE SMOOTH",
"345 215 OFFCURVE",
"358 207 OFFCURVE",
"357 201 CURVE",
"344 210 OFFCURVE",
"341 150 OFFCURVE",
"340 144 CURVE SMOOTH",
"337 133 OFFCURVE",
"319 132 OFFCURVE",
"327 118 CURVE SMOOTH",
"330 112 OFFCURVE",
"332 104 OFFCURVE",
"331 98 CURVE",
"331 102 OFFCURVE",
"325 83 OFFCURVE",
"331 85 CURVE",
"320 82 OFFCURVE",
"322 86 OFFCURVE",
"316 68 CURVE SMOOTH",
"313 58 OFFCURVE",
"327 53 OFFCURVE",
"326 46 CURVE SMOOTH",
"324 27 OFFCURVE",
"284 67 OFFCURVE",
"283 67 CURVE SMOOTH",
"273 73 OFFCURVE",
"251 58 OFFCURVE",
"241 58 CURVE SMOOTH",
"225 56 OFFCURVE",
"168 13 OFFCURVE",
"154 33 CURVE SMOOTH",
"138 56 OFFCURVE",
"127 35 OFFCURVE",
"148 61 CURVE SMOOTH",
"154 69 OFFCURVE",
"152 75 OFFCURVE",
"154 83 CURVE SMOOTH",
"157 95 OFFCURVE",
"178 102 OFFCURVE",
"186 109 CURVE SMOOTH",
"199 119 OFFCURVE",
"184 135 OFFCURVE",
"176 142 CURVE SMOOTH",
"169 148 OFFCURVE",
"112 121 OFFCURVE",
"110 129 CURVE SMOOTH",
"109 134 OFFCURVE",
"105 141 OFFCURVE",
"104 147 CURVE SMOOTH",
"104 150 OFFCURVE",
"103 164 OFFCURVE",
"100 172 CURVE SMOOTH",
"91 189 OFFCURVE",
"109 197 OFFCURVE",
"107 212 CURVE SMOOTH",
"103 234 OFFCURVE",
"124 230 OFFCURVE",
"129 242 CURVE SMOOTH",
"135 252 OFFCURVE",
"97 239 OFFCURVE",
"96 242 CURVE SMOOTH",
"95 254 OFFCURVE",
"115 269 OFFCURVE",
"110 283 CURVE SMOOTH",
"105 300 OFFCURVE",
"81 297 OFFCURVE",
"82 313 CURVE SMOOTH",
"83 332 OFFCURVE",
"91 336 OFFCURVE",
"82 355 CURVE SMOOTH",
"78 363 OFFCURVE",
"69 358 OFFCURVE",
"74 369 CURVE SMOOTH",
"78 376 OFFCURVE",
"83 386 OFFCURVE",
"82 393 CURVE SMOOTH",
"82 395 OFFCURVE",
"48 385 OFFCURVE",
"52 410 CURVE SMOOTH",
"53 420 OFFCURVE",
"46 422 OFFCURVE",
"53 434 CURVE SMOOTH",
"60 445 OFFCURVE",
"62 469 OFFCURVE",
"72 475 CURVE SMOOTH",
"78 479 OFFCURVE",
"91 479 OFFCURVE",
"95 487 CURVE SMOOTH",
"102 502 OFFCURVE",
"80 493 OFFCURVE",
"103 506 CURVE SMOOTH",
"124 517 OFFCURVE",
"122 537 OFFCURVE",
"106 549 CURVE SMOOTH",
"90 560 OFFCURVE",
"123 590 OFFCURVE",
"97 589 CURVE SMOOTH",
"90 588 OFFCURVE",
"96 607 OFFCURVE",
"85 599 CURVE SMOOTH",
"78 595 OFFCURVE",
"83 621 OFFCURVE",
"86 624 CURVE SMOOTH",
"100 641 OFFCURVE",
"116 654 OFFCURVE",
"135 654 CURVE SMOOTH",
"138 654 OFFCURVE",
"194 668 OFFCURVE",
"189 674 CURVE",
"187 673 OFFCURVE",
"185 672 OFFCURVE",
"183 672 CURVE",
"181 677 OFFCURVE",
"183 680 OFFCURVE",
"187 680 CURVE",
"191 673 OFFCURVE",
"193 688 OFFCURVE",
"195 688 CURVE",
"198 687 OFFCURVE",
"189 687 OFFCURVE",
"195 688 CURVE"
);
}
);
width = 643.882;
}
);
unicode = 004C;
},
{
glyphname = M;
lastChange = "2014-07-05 08:49:24 -0500";
layers = (
{
layerId = "8AC23886-B8FB-470C-B711-F8E78732F9C5";
name = Regular;
paths = (
{
closed = 1;
nodes = (
"898 183 OFFCURVE",
"899 172 OFFCURVE",
"897 173 CURVE SMOOTH",
"885 176 OFFCURVE",
"889 170 OFFCURVE",
"894 167 CURVE SMOOTH",
"907 161 OFFCURVE",
"856 153 OFFCURVE",
"859 154 CURVE",
"840 147 OFFCURVE",
"814 149 OFFCURVE",
"809 133 CURVE SMOOTH",
"809 132 OFFCURVE",
"764 98 OFFCURVE",
"766 98 CURVE",
"756 99 OFFCURVE",
"758 107 OFFCURVE",
"752 108 CURVE SMOOTH",
"747 108 OFFCURVE",
"744 103 OFFCURVE",
"738 104 CURVE SMOOTH",
"728 105 OFFCURVE",
"739 128 OFFCURVE",
"731 126 CURVE SMOOTH",
"713 121 OFFCURVE",
"738 150 OFFCURVE",
"741 152 CURVE SMOOTH",
"748 159 OFFCURVE",
"740 174 OFFCURVE",
"739 180 CURVE SMOOTH",
"739 184 OFFCURVE",
"731 192 OFFCURVE",
"726 192 CURVE SMOOTH",
"710 192 OFFCURVE",
"715 201 OFFCURVE",
"714 214 CURVE",
"697 207 OFFCURVE",
"678 156 OFFCURVE",
"664 155 CURVE",
"661 156 OFFCURVE",
"659 158 OFFCURVE",
"659 161 CURVE",
"658 159 OFFCURVE",
"657 156 OFFCURVE",
"656 153 CURVE",
"665 158 OFFCURVE",
"635 164 OFFCURVE",
"637 161 CURVE",
"624 180 OFFCURVE",
"654 191 OFFCURVE",
"646 204 CURVE",
"631 188 OFFCURVE",
"640 202 OFFCURVE",
"630 206 CURVE SMOOTH",
"629 206 OFFCURVE",
"603 179 OFFCURVE",
"592 179 CURVE SMOOTH",
"572 179 OFFCURVE",
"573 169 OFFCURVE",
"554 162 CURVE",
"564 166 OFFCURVE",
"523 195 OFFCURVE",
"520 199 CURVE SMOOTH",
"509 213 OFFCURVE",
"490 224 OFFCURVE",
"474 218 CURVE SMOOTH",
"470 216 OFFCURVE",
"436 221 OFFCURVE",
"433 224 CURVE SMOOTH",
"422 234 OFFCURVE",
"424 238 OFFCURVE",
"407 240 CURVE SMOOTH",
"395 241 OFFCURVE",
"381 250 OFFCURVE",
"373 252 CURVE SMOOTH",
"356 255 OFFCURVE",
"362 252 OFFCURVE",
"354 243 CURVE SMOOTH",
"349 236 OFFCURVE",
"328 257 OFFCURVE",
"323 243 CURVE SMOOTH",
"320 234 OFFCURVE",
"324 215 OFFCURVE",
"333 208 CURVE SMOOTH",
"351 196 OFFCURVE",
"309 178 OFFCURVE",
"301 180 CURVE SMOOTH",
"293 183 OFFCURVE",
"288 200 OFFCURVE",
"279 201 CURVE SMOOTH",
"265 202 OFFCURVE",
"250 199 OFFCURVE",
"237 196 CURVE SMOOTH",
"226 195 OFFCURVE",
"224 173 OFFCURVE",
"214 173 CURVE SMOOTH",
"194 174 OFFCURVE",
"189 170 OFFCURVE",
"180 149 CURVE SMOOTH",
"177 143 OFFCURVE",
"166 127 OFFCURVE",
"166 122 CURVE SMOOTH",
"166 116 OFFCURVE",
"163 102 OFFCURVE",
"153 105 CURVE SMOOTH",
"139 108 OFFCURVE",
"148 120 OFFCURVE",
"142 128 CURVE SMOOTH",
"139 131 OFFCURVE",
"143 136 OFFCURVE",
"139 140 CURVE SMOOTH",
"136 143 OFFCURVE",
"117 132 OFFCURVE",
"117 136 CURVE SMOOTH",
"117 145 OFFCURVE",
"107 163 OFFCURVE",
"110 171 CURVE SMOOTH",
"113 178 OFFCURVE",
"95 192 OFFCURVE",
"94 191 CURVE",
"94 188 OFFCURVE",
"95 186 OFFCURVE",
"95 184 CURVE",
"92 180 OFFCURVE",
"83 208 OFFCURVE",
"82 210 CURVE SMOOTH",
"76 219 OFFCURVE",
"61 177 OFFCURVE",
"57 195 CURVE SMOOTH",
"56 199 OFFCURVE",
"49 210 OFFCURVE",
"50 212 CURVE SMOOTH",
"52 215 OFFCURVE",
"66 219 OFFCURVE",
"67 217 CURVE",
"77 237 OFFCURVE",
"70 273 OFFCURVE",
"57 288 CURVE SMOOTH",
"51 294 OFFCURVE",
"56 316 OFFCURVE",
"68 309 CURVE SMOOTH",
"88 296 OFFCURVE",
"74 318 OFFCURVE",
"88 322 CURVE SMOOTH",
"93 323 OFFCURVE",
"94 311 OFFCURVE",
"101 314 CURVE SMOOTH",
"111 320 OFFCURVE",
"121 329 OFFCURVE",
"132 334 CURVE SMOOTH",
"152 343 OFFCURVE",
"140 325 OFFCURVE",
"145 319 CURVE SMOOTH",
"152 309 OFFCURVE",
"167 330 OFFCURVE",
"171 333 CURVE",
"174 329 OFFCURVE",
"175 314 OFFCURVE",
"176 312 CURVE",
"175 313 OFFCURVE",
"220 353 OFFCURVE",
"222 355 CURVE SMOOTH",
"229 363 OFFCURVE",
"240 370 OFFCURVE",
"250 369 CURVE SMOOTH",
"251 369 OFFCURVE",
"273 361 OFFCURVE",
"271 359 CURVE",
"275 361 OFFCURVE",
"283 412 OFFCURVE",
"283 413 CURVE SMOOTH",
"280 423 OFFCURVE",
"282 440 OFFCURVE",
"271 444 CURVE SMOOTH",
"268 446 OFFCURVE",
"252 454 OFFCURVE",
"251 457 CURVE",
"251 460 OFFCURVE",
"252 462 OFFCURVE",
"254 464 CURVE",
"255 462 OFFCURVE",
"230 465 OFFCURVE",
"229 465 CURVE SMOOTH",
"226 465 OFFCURVE",
"225 486 OFFCURVE",
"223 488 CURVE SMOOTH",
"219 495 OFFCURVE",
"203 488 OFFCURVE",
"206 501 CURVE SMOOTH",
"209 512 OFFCURVE",
"208 504 OFFCURVE",
"206 518 CURVE SMOOTH",
"206 528 OFFCURVE",
"212 564 OFFCURVE",
"201 570 CURVE SMOOTH",
"194 573 OFFCURVE",
"188 584 OFFCURVE",
"192 592 CURVE",
"191 592 OFFCURVE",
"203 621 OFFCURVE",
"200 618 CURVE",
"223 635 OFFCURVE",
"281 603 OFFCURVE",
"276 641 CURVE SMOOTH",
"274 656 OFFCURVE",
"256 681 OFFCURVE",
"237 670 CURVE SMOOTH",
"228 665 OFFCURVE",
"232 697 OFFCURVE",
"218 701 CURVE SMOOTH",
"149 720 OFFCURVE",
"260 733 OFFCURVE",
"281 715 CURVE SMOOTH",
"285 711 OFFCURVE",
"313 709 OFFCURVE",
"317 714 CURVE SMOOTH",
"332 736 OFFCURVE",
"322 711 OFFCURVE",
"337 710 CURVE SMOOTH",
"358 710 OFFCURVE",
"376 730 OFFCURVE",
"392 712 CURVE SMOOTH",
"399 705 OFFCURVE",
"412 691 OFFCURVE",
"410 682 CURVE SMOOTH",
"406 668 OFFCURVE",
"442 662 OFFCURVE",
"442 659 CURVE SMOOTH",
"446 632 OFFCURVE",
"455 641 OFFCURVE",
"479 625 CURVE SMOOTH",
"482 622 OFFCURVE",
"524 598 OFFCURVE",
"527 602 CURVE",
"524 597 OFFCURVE",
"562 592 OFFCURVE",
"573 600 CURVE SMOOTH",
"574 601 OFFCURVE",
"624 599 OFFCURVE",
"626 598 CURVE SMOOTH",
"632 596 OFFCURVE",
"657 609 OFFCURVE",
"662 605 CURVE SMOOTH",
"673 594 OFFCURVE",
"676 587 OFFCURVE",
"692 590 CURVE SMOOTH",
"707 592 OFFCURVE",
"701 601 OFFCURVE",
"714 606 CURVE SMOOTH",
"742 618 OFFCURVE",
"723 566 OFFCURVE",
"726 559 CURVE SMOOTH",
"728 556 OFFCURVE",
"731 547 OFFCURVE",
"732 544 CURVE SMOOTH",
"737 538 OFFCURVE",
"740 531 OFFCURVE",
"743 524 CURVE",
"745 518 OFFCURVE",
"753 528 OFFCURVE",
"757 526 CURVE SMOOTH",
"763 524 OFFCURVE",
"754 506 OFFCURVE",
"756 506 CURVE SMOOTH",
"770 506 OFFCURVE",
"778 534 OFFCURVE",
"791 526 CURVE SMOOTH",
"797 522 OFFCURVE",
"835 508 OFFCURVE",
"835 510 CURVE",
"832 484 OFFCURVE",
"866 465 OFFCURVE",
"890 472 CURVE SMOOTH",
"899 474 OFFCURVE",
"898 505 OFFCURVE",
"912 487 CURVE SMOOTH",
"917 480 OFFCURVE",
"911 470 OFFCURVE",
"918 464 CURVE SMOOTH",
"924 457 OFFCURVE",
"936 460 OFFCURVE",
"945 454 CURVE SMOOTH",
"951 450 OFFCURVE",
"955 429 OFFCURVE",
"962 429 CURVE SMOOTH",
"974 429 OFFCURVE",
"973 442 OFFCURVE",
"984 427 CURVE SMOOTH",
"985 426 OFFCURVE",
"1034 415 OFFCURVE",
"1028 402 CURVE SMOOTH",
"1022 386 OFFCURVE",
"1003 397 OFFCURVE",
"1002 375 CURVE SMOOTH",
"1002 369 OFFCURVE",
"990 374 OFFCURVE",
"992 364 CURVE SMOOTH",
"995 353 OFFCURVE",
"1002 350 OFFCURVE",
"1008 342 CURVE SMOOTH",
"1018 329 OFFCURVE",
"1011 316 OFFCURVE",
"1013 304 CURVE SMOOTH",
"1014 298 OFFCURVE",
"1030 289 OFFCURVE",
"1033 281 CURVE SMOOTH",
"1037 270 OFFCURVE",
"1037 258 OFFCURVE",
"1041 246 CURVE SMOOTH",
"1060 190 OFFCURVE",
"987 238 OFFCURVE",
"968 227 CURVE SMOOTH",
"960 222 OFFCURVE",
"954 189 OFFCURVE",
"939 194 CURVE SMOOTH",
"935 195 OFFCURVE",
"924 204 OFFCURVE",
"919 201 CURVE SMOOTH",
"910 196 OFFCURVE",
"928 186 OFFCURVE",
"928 186 CURVE",
"938 174 OFFCURVE",
"902 184 OFFCURVE",
"902 184 CURVE",
"897 183 OFFCURVE",
"906 182 OFFCURVE",
"902 184 CURVE"
);
}
);
width = 1094.13;
}
);
unicode = 004D;
},
{
glyphname = N;
lastChange = "2014-07-05 08:49:27 -0500";
layers = (
{
layerId = "8AC23886-B8FB-470C-B711-F8E78732F9C5";
name = Regular;
paths = (
{
closed = 1;
nodes = (
"116 563 OFFCURVE",
"123 583 OFFCURVE",
"124 582 CURVE",
"120 585 OFFCURVE",
"111 582 OFFCURVE",
"109 584 CURVE SMOOTH",
"105 587 OFFCURVE",
"122 597 OFFCURVE",
"121 602 CURVE SMOOTH",
"119 613 OFFCURVE",
"110 613 OFFCURVE",
"115 628 CURVE SMOOTH",
"117 637 OFFCURVE",
"128 644 OFFCURVE",
"118 653 CURVE SMOOTH",
"105 664 OFFCURVE",
"130 697 OFFCURVE",
"134 708 CURVE SMOOTH",
"138 716 OFFCURVE",
"150 741 OFFCURVE",
"162 734 CURVE SMOOTH",
"166 731 OFFCURVE",
"200 755 OFFCURVE",
"211 757 CURVE SMOOTH",
"223 758 OFFCURVE",
"235 760 OFFCURVE",
"242 750 CURVE SMOOTH",
"256 730 OFFCURVE",
"255 744 OFFCURVE",
"273 746 CURVE SMOOTH",
"309 752 OFFCURVE",
"256 802 OFFCURVE",
"280 804 CURVE SMOOTH",
"299 805 OFFCURVE",
"296 792 OFFCURVE",
"307 808 CURVE SMOOTH",
"311 814 OFFCURVE",
"352 798 OFFCURVE",
"358 797 CURVE SMOOTH",
"375 796 OFFCURVE",
"379 782 OFFCURVE",
"396 780 CURVE SMOOTH",
"409 779 OFFCURVE",
"433 779 OFFCURVE",
"445 774 CURVE SMOOTH",
"456 768 OFFCURVE",
"471 743 OFFCURVE",
"482 744 CURVE SMOOTH",
"496 746 OFFCURVE",
"499 720 OFFCURVE",
"501 720 CURVE SMOOTH",
"509 717 OFFCURVE",
"518 739 OFFCURVE",
"533 736 CURVE SMOOTH",
"546 734 OFFCURVE",
"577 762 OFFCURVE",
"576 763 CURVE",
"586 756 OFFCURVE",
"580 749 OFFCURVE",
"591 762 CURVE",
"596 753 OFFCURVE",
"579 738 OFFCURVE",
"581 725 CURVE SMOOTH",
"582 724 OFFCURVE",
"603 711 OFFCURVE",
"601 711 CURVE",
"602 714 OFFCURVE",
"603 717 OFFCURVE",
"604 720 CURVE",
"605 717 OFFCURVE",
"606 715 OFFCURVE",
"608 713 CURVE",
"613 712 OFFCURVE",
"648 767 OFFCURVE",
"658 772 CURVE",
"661 743 OFFCURVE",
"660 760 OFFCURVE",
"676 747 CURVE SMOOTH",
"688 737 OFFCURVE",
"676 736 OFFCURVE",
"679 729 CURVE SMOOTH",
"681 724 OFFCURVE",
"699 714 OFFCURVE",
"678 709 CURVE SMOOTH",
"676 709 OFFCURVE",
"670 695 OFFCURVE",
"670 695 CURVE SMOOTH",
"663 680 OFFCURVE",
"674 689 OFFCURVE",
"678 684 CURVE SMOOTH",
"684 677 OFFCURVE",
"674 658 OFFCURVE",
"694 666 CURVE SMOOTH",
"711 672 OFFCURVE",
"714 637 OFFCURVE",
"721 641 CURVE SMOOTH",
"727 644 OFFCURVE",
"743 624 OFFCURVE",
"743 616 CURVE SMOOTH",
"743 601 OFFCURVE",
"728 590 OFFCURVE",
"747 580 CURVE SMOOTH",
"762 572 OFFCURVE",
"744 571 OFFCURVE",
"754 565 CURVE SMOOTH",
"777 552 OFFCURVE",
"726 532 OFFCURVE",
"724 527 CURVE SMOOTH",
"719 516 OFFCURVE",
"738 513 OFFCURVE",
"716 505 CURVE SMOOTH",
"703 500 OFFCURVE",
"693 495 OFFCURVE",
"695 480 CURVE SMOOTH",
"696 469 OFFCURVE",
"686 459 OFFCURVE",
"681 451 CURVE SMOOTH",
"675 441 OFFCURVE",
"682 433 OFFCURVE",
"681 428 CURVE SMOOTH",
"672 393 OFFCURVE",
"701 415 OFFCURVE",
"714 408 CURVE SMOOTH",
"723 403 OFFCURVE",
"697 377 OFFCURVE",
"711 368 CURVE SMOOTH",
"735 353 OFFCURVE",
"700 308 OFFCURVE",
"723 301 CURVE SMOOTH",
"746 295 OFFCURVE",
"756 279 OFFCURVE",
"743 254 CURVE SMOOTH",
"741 250 OFFCURVE",
"718 233 OFFCURVE",
"739 235 CURVE SMOOTH",
"744 236 OFFCURVE",
"765 245 OFFCURVE",
"768 236 CURVE",
"768 237 OFFCURVE",
"746 220 OFFCURVE",
"744 215 CURVE SMOOTH",
"739 204 OFFCURVE",
"740 190 OFFCURVE",
"735 178 CURVE SMOOTH",
"724 151 OFFCURVE",
"746 138 OFFCURVE",
"721 113 CURVE SMOOTH",
"709 100 OFFCURVE",
"664 112 OFFCURVE",
"655 126 CURVE SMOOTH",
"649 137 OFFCURVE",
"632 135 OFFCURVE",
"626 124 CURVE SMOOTH",
"618 109 OFFCURVE",
"595 113 OFFCURVE",
"592 108 CURVE SMOOTH",
"582 93 OFFCURVE",
"609 93 OFFCURVE",
"613 88 CURVE",
"612 89 OFFCURVE",
"613 53 OFFCURVE",
"613 52 CURVE SMOOTH",
"611 41 OFFCURVE",
"585 41 OFFCURVE",
"580 47 CURVE SMOOTH",
"564 69 OFFCURVE",
"571 68 OFFCURVE",
"546 79 CURVE SMOOTH",
"543 80 OFFCURVE",
"525 85 OFFCURVE",
"522 85 CURVE SMOOTH",
"497 84 OFFCURVE",
"500 75 OFFCURVE",
"496 50 CURVE SMOOTH",
"494 38 OFFCURVE",
"508 34 OFFCURVE",
"491 27 CURVE SMOOTH",
"475 20 OFFCURVE",
"485 17 OFFCURVE",
"465 21 CURVE SMOOTH",
"455 22 OFFCURVE",
"438 25 OFFCURVE",
"432 14 CURVE SMOOTH",
"431 12 OFFCURVE",
"419 -1 OFFCURVE",
"415 1 CURVE SMOOTH",
"396 16 OFFCURVE",
"412 24 OFFCURVE",
"404 47 CURVE SMOOTH",
"399 58 OFFCURVE",
"395 87 OFFCURVE",
"373 66 CURVE SMOOTH",
"368 62 OFFCURVE",
"348 37 OFFCURVE",
"343 41 CURVE SMOOTH",
"324 56 OFFCURVE",
"353 82 OFFCURVE",
"360 94 CURVE SMOOTH",
"375 119 OFFCURVE",
"384 123 OFFCURVE",
"384 154 CURVE SMOOTH",
"384 163 OFFCURVE",
"402 172 OFFCURVE",
"407 180 CURVE SMOOTH",
"412 188 OFFCURVE",
"376 180 OFFCURVE",
"378 179 CURVE",
"365 188 OFFCURVE",
"375 205 OFFCURVE",
"378 216 CURVE SMOOTH",
"386 247 OFFCURVE",
"355 239 OFFCURVE",
"339 255 CURVE",
"357 237 OFFCURVE",
"284 242 OFFCURVE",
"283 240 CURVE SMOOTH",
"277 229 OFFCURVE",
"266 223 OFFCURVE",
"261 212 CURVE SMOOTH",
"251 189 OFFCURVE",
"249 193 OFFCURVE",
"237 209 CURVE",
"216 185 OFFCURVE",
"227 225 OFFCURVE",
"213 225 CURVE SMOOTH",
"197 225 OFFCURVE",
"200 223 OFFCURVE",
"194 206 CURVE",
"192 204 OFFCURVE",
"189 203 OFFCURVE",
"185 204 CURVE",
"176 199 OFFCURVE",
"187 192 OFFCURVE",
"185 185 CURVE SMOOTH",
"179 167 OFFCURVE",
"170 191 OFFCURVE",
"170 196 CURVE SMOOTH",
"170 210 OFFCURVE",
"155 202 OFFCURVE",
"150 200 CURVE SMOOTH",
"137 193 OFFCURVE",
"143 247 OFFCURVE",
"142 248 CURVE SMOOTH",
"135 250 OFFCURVE",
"102 224 OFFCURVE",
"120 257 CURVE SMOOTH",
"136 285 OFFCURVE",
"123 278 OFFCURVE",
"117 302 CURVE SMOOTH",
"116 307 OFFCURVE",
"162 308 OFFCURVE",
"148 328 CURVE SMOOTH",
"146 332 OFFCURVE",
"138 327 OFFCURVE",
"138 328 CURVE SMOOTH",
"135 336 OFFCURVE",
"156 331 OFFCURVE",
"150 342 CURVE",
"151 342 OFFCURVE",
"141 359 OFFCURVE",
"141 358 CURVE",
"143 385 OFFCURVE",
"99 356 OFFCURVE",
"98 357 CURVE SMOOTH",
"91 359 OFFCURVE",
"100 367 OFFCURVE",
"95 366 CURVE SMOOTH",
"70 363 OFFCURVE",
"77 347 OFFCURVE",
"50 357 CURVE",
"56 364 OFFCURVE",
"73 375 OFFCURVE",
"80 380 CURVE SMOOTH",
"91 386 OFFCURVE",
"93 400 OFFCURVE",
"99 411 CURVE",
"100 402 OFFCURVE",
"134 417 OFFCURVE",
"139 428 CURVE SMOOTH",
"146 446 OFFCURVE",
"130 445 OFFCURVE",
"125 455 CURVE SMOOTH",
"117 471 OFFCURVE",
"129 485 OFFCURVE",
"127 498 CURVE",
"118 494 OFFCURVE",
"116 497 OFFCURVE",
"122 508 CURVE",
"123 511 OFFCURVE",
"131 526 OFFCURVE",
"131 531 CURVE SMOOTH",
"130 536 OFFCURVE",
"121 531 OFFCURVE",
"118 533 CURVE SMOOTH",
"114 535 OFFCURVE",
"115 558 OFFCURVE",
"116 562 CURVE",
"118 569 OFFCURVE",
"114 554 OFFCURVE",
"116 562 CURVE"
);
}
);
width = 818;
}
);
unicode = 004E;
},
{
glyphname = O;
lastChange = "2014-07-05 08:47:11 -0500";
layers = (
{
layerId = "8AC23886-B8FB-470C-B711-F8E78732F9C5";
name = Regular;
paths = (
{
closed = 1;
nodes = (
"662 346 OFFCURVE",
"641 347 OFFCURVE",
"632 343 CURVE",
"636 344 OFFCURVE",
"626 325 OFFCURVE",
"623 336 CURVE",
"625 338 OFFCURVE",
"626 340 OFFCURVE",
"628 342 CURVE",
"626 347 OFFCURVE",
"613 359 OFFCURVE",
"610 363 CURVE SMOOTH",
"606 369 OFFCURVE",
"593 376 OFFCURVE",
"593 379 CURVE",
"596 378 OFFCURVE",
"564 372 OFFCURVE",
"564 371 CURVE SMOOTH",
"563 368 OFFCURVE",
"580 351 OFFCURVE",
"581 346 CURVE SMOOTH",
"583 341 OFFCURVE",
"572 310 OFFCURVE",
"590 319 CURVE",
"588 313 OFFCURVE",
"586 292 OFFCURVE",
"579 290 CURVE",
"580 295 OFFCURVE",
"577 302 OFFCURVE",
"571 297 CURVE",
"575 297 OFFCURVE",
"578 296 OFFCURVE",
"578 292 CURVE",
"575 282 OFFCURVE",
"560 294 OFFCURVE",
"558 295 CURVE",
"564 285 OFFCURVE",
"545 272 OFFCURVE",
"540 269 CURVE",
"542 268 OFFCURVE",
"538 258 OFFCURVE",
"534 257 CURVE SMOOTH",
"529 255 OFFCURVE",
"535 272 OFFCURVE",
"535 273 CURVE",
"531 269 OFFCURVE",
"501 311 OFFCURVE",
"509 266 CURVE SMOOTH",
"510 256 OFFCURVE",
"496 225 OFFCURVE",
"489 251 CURVE SMOOTH",
"484 267 OFFCURVE",
"466 237 OFFCURVE",
"459 238 CURVE",
"471 222 OFFCURVE",
"434 230 OFFCURVE",
"429 235 CURVE",
"427 239 OFFCURVE",
"429 240 OFFCURVE",
"433 239 CURVE",
"417 250 OFFCURVE",
"445 248 OFFCURVE",
"439 255 CURVE SMOOTH",
"438 255 OFFCURVE",
"431 247 OFFCURVE",
"425 251 CURVE SMOOTH",
"417 256 OFFCURVE",
"429 263 OFFCURVE",
"426 270 CURVE",
"426 269 OFFCURVE",
"429 222 OFFCURVE",
"422 219 CURVE SMOOTH",
"404 211 OFFCURVE",
"388 232 OFFCURVE",
"401 237 CURVE",
"397 238 OFFCURVE",
"400 234 OFFCURVE",
"393 232 CURVE",
"408 231 OFFCURVE",
"376 226 OFFCURVE",
"383 228 CURVE",
"365 223 OFFCURVE",
"379 237 OFFCURVE",
"377 241 CURVE",
"376 236 OFFCURVE",
"366 224 OFFCURVE",
"364 227 CURVE",
"367 225 OFFCURVE",
"370 225 OFFCURVE",
"373 227 CURVE",
"368 240 OFFCURVE",
"356 187 OFFCURVE",
"373 205 CURVE",
"370 202 OFFCURVE",
"348 192 OFFCURVE",
"345 195 CURVE SMOOTH",
"338 203 OFFCURVE",
"357 208 OFFCURVE",
"358 208 CURVE SMOOTH",
"363 210 OFFCURVE",
"345 215 OFFCURVE",
"345 217 CURVE",
"350 219 OFFCURVE",
"351 222 OFFCURVE",
"348 226 CURVE",
"349 220 OFFCURVE",
"325 230 OFFCURVE",
"321 222 CURVE",
"341 228 OFFCURVE",
"339 206 OFFCURVE",
"342 203 CURVE",
"331 202 OFFCURVE",
"326 187 OFFCURVE",
"322 187 CURVE",
"320 190 OFFCURVE",
"318 192 OFFCURVE",
"315 193 CURVE",
"329 182 OFFCURVE",
"297 187 OFFCURVE",
"296 189 CURVE",
"306 187 OFFCURVE",
"294 198 OFFCURVE",
"292 197 CURVE",
"296 201 OFFCURVE",
"267 159 OFFCURVE",
"268 177 CURVE",
"273 173 OFFCURVE",
"276 182 OFFCURVE",
"275 183 CURVE SMOOTH",
"267 185 OFFCURVE",
"266 188 OFFCURVE",
"256 186 CURVE",
"259 185 OFFCURVE",
"262 184 OFFCURVE",
"265 183 CURVE",
"265 186 OFFCURVE",
"235 167 OFFCURVE",
"253 184 CURVE",
"248 186 OFFCURVE",
"241 181 OFFCURVE",
"237 189 CURVE",
"236 186 OFFCURVE",
"234 184 OFFCURVE",
"234 182 CURVE",
"234 179 OFFCURVE",
"244 184 OFFCURVE",
"244 180 CURVE SMOOTH",
"244 178 OFFCURVE",
"175 153 OFFCURVE",
"185 149 CURVE",
"171 154 OFFCURVE",
"201 176 OFFCURVE",
"201 176 CURVE",
"202 166 OFFCURVE",
"171 170 OFFCURVE",
"183 150 CURVE SMOOTH",
"186 144 OFFCURVE",
"158 138 OFFCURVE",
"155 139 CURVE",
"159 144 OFFCURVE",
"153 150 OFFCURVE",
"156 152 CURVE",
"150 148 OFFCURVE",
"169 156 OFFCURVE",
"166 155 CURVE",
"163 155 OFFCURVE",
"160 155 OFFCURVE",
"158 155 CURVE",
"161 155 OFFCURVE",
"162 157 OFFCURVE",
"162 160 CURVE",
"159 159 OFFCURVE",
"158 156 OFFCURVE",
"155 156 CURVE",
"154 160 OFFCURVE",
"159 169 OFFCURVE",
"159 171 CURVE",
"148 162 OFFCURVE",
"151 171 OFFCURVE",
"149 179 CURVE",
"149 178 OFFCURVE",
"141 173 OFFCURVE",
"140 172 CURVE",
"160 177 OFFCURVE",
"151 120 OFFCURVE",
"141 123 CURVE",
"146 122 OFFCURVE",
"170 123 OFFCURVE",
"172 120 CURVE SMOOTH",
"173 118 OFFCURVE",
"169 100 OFFCURVE",
"165 101 CURVE SMOOTH",
"162 101 OFFCURVE",
"136 120 OFFCURVE",
"131 109 CURVE",
"132 112 OFFCURVE",
"141 119 OFFCURVE",
"144 121 CURVE",
"130 116 OFFCURVE",
"138 137 OFFCURVE",
"127 117 CURVE",
"123 122 OFFCURVE",
"123 134 OFFCURVE",
"112 133 CURVE",
"121 124 OFFCURVE",
"125 100 OFFCURVE",
"110 116 CURVE",
"110 113 OFFCURVE",
"127 96 OFFCURVE",
"120 89 CURVE",
"119 93 OFFCURVE",
"116 93 OFFCURVE",
"113 91 CURVE",
"119 82 OFFCURVE",
"111 92 OFFCURVE",
"114 80 CURVE",
"117 82 OFFCURVE",
"123 91 OFFCURVE",
"126 90 CURVE SMOOTH",
"126 90 OFFCURVE",
"167 73 OFFCURVE",
"147 70 CURVE",
"143 72 OFFCURVE",
"141 75 OFFCURVE",
"142 80 CURVE",
"142 76 OFFCURVE",
"141 74 OFFCURVE",
"137 75 CURVE",
"136 68 OFFCURVE",
"138 72 OFFCURVE",
"134 63 CURVE",
"136 66 OFFCURVE",
"141 65 OFFCURVE",
"141 58 CURVE",
"144 60 OFFCURVE",
"146 62 OFFCURVE",
"150 63 CURVE",
"141 64 OFFCURVE",
"164 47 OFFCURVE",
"163 48 CURVE",
"177 29 OFFCURVE",
"159 18 OFFCURVE",
"143 8 CURVE SMOOTH",
"140 6 OFFCURVE",
"84 3 OFFCURVE",
"84 2 CURVE",
"79 9 OFFCURVE",
"82 25 OFFCURVE",
"83 30 CURVE",
"83 15 OFFCURVE",
"97 22 OFFCURVE",
"102 21 CURVE",
"100 25 OFFCURVE",
"94 19 OFFCURVE",
"94 20 CURVE SMOOTH",
"93 20 OFFCURVE",
"99 33 OFFCURVE",
"99 33 CURVE",
"91 30 OFFCURVE",
"84 30 OFFCURVE",
"87 42 CURVE",
"86 38 OFFCURVE",
"85 34 OFFCURVE",
"85 30 CURVE",
"84 38 OFFCURVE",
"69 39 OFFCURVE",
"70 43 CURVE SMOOTH",
"79 61 OFFCURVE",
"63 42 OFFCURVE",
"60 61 CURVE SMOOTH",
"59 71 OFFCURVE",
"74 63 OFFCURVE",
"76 71 CURVE",
"51 73 OFFCURVE",
"72 89 OFFCURVE",
"61 92 CURVE",
"58 90 OFFCURVE",
"57 88 OFFCURVE",
"58 84 CURVE",
"54 91 OFFCURVE",
"53 91 OFFCURVE",
"56 84 CURVE",
"45 95 OFFCURVE",
"51 128 OFFCURVE",
"59 139 CURVE",
"58 135 OFFCURVE",
"59 133 OFFCURVE",
"63 134 CURVE",
"60 135 OFFCURVE",
"64 150 OFFCURVE",
"63 154 CURVE SMOOTH",
"62 168 OFFCURVE",
"82 161 OFFCURVE",
"91 160 CURVE",
"87 164 OFFCURVE",
"77 176 OFFCURVE",
"91 178 CURVE",
"91 178 OFFCURVE",
"83 172 OFFCURVE",
"84 177 CURVE",
"85 179 OFFCURVE",
"87 180 OFFCURVE",
"89 181 CURVE",
"86 182 OFFCURVE",
"68 175 OFFCURVE",
"75 185 CURVE",
"73 183 OFFCURVE",
"72 180 OFFCURVE",
"71 177 CURVE",
"73 178 OFFCURVE",
"60 202 OFFCURVE",
"63 207 CURVE SMOOTH",
"67 216 OFFCURVE",
"84 201 OFFCURVE",
"86 223 CURVE SMOOTH",
"89 242 OFFCURVE",
"99 234 OFFCURVE",
"111 241 CURVE SMOOTH",
"138 256 OFFCURVE",
"156 232 OFFCURVE",
"143 277 CURVE SMOOTH",
"141 286 OFFCURVE",
"182 277 OFFCURVE",
"185 288 CURVE SMOOTH",
"187 294 OFFCURVE",
"203 297 OFFCURVE",
"201 301 CURVE SMOOTH",
"199 305 OFFCURVE",
"188 319 OFFCURVE",
"191 324 CURVE SMOOTH",
"199 338 OFFCURVE",
"210 342 OFFCURVE",
"229 348 CURVE SMOOTH",
"239 351 OFFCURVE",
"239 362 OFFCURVE",
"242 363 CURVE SMOOTH",
"256 366 OFFCURVE",
"276 377 OFFCURVE",
"281 391 CURVE SMOOTH",
"289 411 OFFCURVE",
"274 428 OFFCURVE",
"280 448 CURVE SMOOTH",
"285 465 OFFCURVE",
"293 474 OFFCURVE",
"298 490 CURVE SMOOTH",
"302 499 OFFCURVE",
"318 493 OFFCURVE",
"319 505 CURVE SMOOTH",
"320 517 OFFCURVE",
"313 522 OFFCURVE",
"330 522 CURVE SMOOTH",
"336 522 OFFCURVE",
"356 542 OFFCURVE",
"356 546 CURVE SMOOTH",
"355 555 OFFCURVE",
"343 572 OFFCURVE",
"349 581 CURVE SMOOTH",
"354 589 OFFCURVE",
"377 591 OFFCURVE",
"368 606 CURVE SMOOTH",
"358 622 OFFCURVE",
"343 666 OFFCURVE",
"380 666 CURVE SMOOTH",
"391 666 OFFCURVE",
"365 723 OFFCURVE",
"395 721 CURVE SMOOTH",
"409 720 OFFCURVE",
"437 723 OFFCURVE",
"451 711 CURVE SMOOTH",
"456 706 OFFCURVE",
"459 680 OFFCURVE",
"468 680 CURVE SMOOTH",
"479 680 OFFCURVE",
"497 681 OFFCURVE",
"495 695 CURVE SMOOTH",
"494 708 OFFCURVE",
"491 712 OFFCURVE",
"495 725 CURVE",
"495 724 OFFCURVE",
"461 742 OFFCURVE",
"476 747 CURVE SMOOTH",
"484 750 OFFCURVE",
"485 744 OFFCURVE",
"496 749 CURVE SMOOTH",
"505 752 OFFCURVE",
"505 762 OFFCURVE",
"512 766 CURVE SMOOTH",
"530 777 OFFCURVE",
"549 756 OFFCURVE",
"567 749 CURVE SMOOTH",
"588 742 OFFCURVE",
"597 751 OFFCURVE",
"610 764 CURVE SMOOTH",
"626 778 OFFCURVE",
"626 744 OFFCURVE",
"629 742 CURVE SMOOTH",
"646 734 OFFCURVE",
"686 771 OFFCURVE",
"696 764 CURVE SMOOTH",
"713 753 OFFCURVE",
"720 745 OFFCURVE",
"719 727 CURVE SMOOTH",
"718 715 OFFCURVE",
"682 705 OFFCURVE",
"679 685 CURVE SMOOTH",
"676 667 OFFCURVE",
"662 669 OFFCURVE",
"654 657 CURVE SMOOTH",
"648 649 OFFCURVE",
"674 641 OFFCURVE",
"678 637 CURVE SMOOTH",
"690 618 OFFCURVE",
"753 654 OFFCURVE",
"765 663 CURVE SMOOTH",
"772 668 OFFCURVE",
"816 681 OFFCURVE",
"823 675 CURVE",
"822 675 OFFCURVE",
"877 632 OFFCURVE",
"872 651 CURVE SMOOTH",
"870 660 OFFCURVE",
"856 664 OFFCURVE",
"860 676 CURVE SMOOTH",
"867 697 OFFCURVE",
"868 690 OFFCURVE",
"877 695 CURVE",
"877 697 OFFCURVE",
"877 699 OFFCURVE",
"875 701 CURVE",
"875 699 OFFCURVE",
"916 696 OFFCURVE",
"920 694 CURVE SMOOTH",
"924 692 OFFCURVE",
"924 687 OFFCURVE",
"926 686 CURVE SMOOTH",
"934 683 OFFCURVE",
"936 703 OFFCURVE",
"943 698 CURVE SMOOTH",
"947 697 OFFCURVE",
"956 660 OFFCURVE",
"968 665 CURVE SMOOTH",
"1000 677 OFFCURVE",
"1005 673 OFFCURVE",
"1013 642 CURVE SMOOTH",
"1016 631 OFFCURVE",
"1036 612 OFFCURVE",
"1032 600 CURVE SMOOTH",
"1022 576 OFFCURVE",
"1034 531 OFFCURVE",
"1061 525 CURVE",
"1057 522 OFFCURVE",
"1053 518 OFFCURVE",
"1050 513 CURVE",
"1041 531 OFFCURVE",
"1030 516 OFFCURVE",
"1033 514 CURVE",
"1035 514 OFFCURVE",
"1037 515 OFFCURVE",
"1039 516 CURVE",
"1041 515 OFFCURVE",
"1038 502 OFFCURVE",
"1032 508 CURVE SMOOTH",
"1021 519 OFFCURVE",
"1025 502 OFFCURVE",
"1020 498 CURVE",
"1025 495 OFFCURVE",
"1016 491 OFFCURVE",
"1014 487 CURVE SMOOTH",
"1005 473 OFFCURVE",
"989 485 OFFCURVE",
"979 488 CURVE",
"975 469 OFFCURVE",
"996 481 OFFCURVE",
"1000 479 CURVE SMOOTH",
"1005 477 OFFCURVE",
"1013 466 OFFCURVE",
"1016 466 CURVE",
"1013 456 OFFCURVE",
"1005 476 OFFCURVE",
"998 471 CURVE",
"1013 470 OFFCURVE",
"993 455 OFFCURVE",
"993 455 CURVE SMOOTH",
"987 456 OFFCURVE",
"991 471 OFFCURVE",
"978 462 CURVE",
"981 463 OFFCURVE",
"985 463 OFFCURVE",
"988 462 CURVE",
"985 467 OFFCURVE",
"981 427 OFFCURVE",
"983 430 CURVE",
"974 410 OFFCURVE",
"953 424 OFFCURVE",
"938 423 CURVE",
"942 422 OFFCURVE",
"945 422 OFFCURVE",
"948 422 CURVE",
"946 420 OFFCURVE",
"926 397 OFFCURVE",
"922 401 CURVE",
"921 407 OFFCURVE",
"923 410 OFFCURVE",
"929 411 CURVE",
"917 413 OFFCURVE",
"918 403 OFFCURVE",
"903 396 CURVE",
"891 379 OFFCURVE",
"873 410 OFFCURVE",
"867 408 CURVE",
"861 410 OFFCURVE",
"841 387 OFFCURVE",
"847 382 CURVE SMOOTH",
"858 373 OFFCURVE",
"843 394 OFFCURVE",
"856 385 CURVE",
"852 388 OFFCURVE",
"852 372 OFFCURVE",
"853 373 CURVE",
"851 371 OFFCURVE",
"837 377 OFFCURVE",
"833 376 CURVE",
"830 376 OFFCURVE",
"827 377 OFFCURVE",
"824 377 CURVE",
"819 386 OFFCURVE",
"822 389 OFFCURVE",
"834 386 CURVE",
"831 393 OFFCURVE",
"814 384 OFFCURVE",
"807 389 CURVE SMOOTH",
"806 389 OFFCURVE",
"821 400 OFFCURVE",
"817 405 CURVE",
"816 397 OFFCURVE",
"794 393 OFFCURVE",
"800 388 CURVE",
"795 393 OFFCURVE",
"783 385 OFFCURVE",
"778 391 CURVE",
"780 379 OFFCURVE",
"770 363 OFFCURVE",
"767 384 CURVE",
"766 377 OFFCURVE",
"759 385 OFFCURVE",
"757 381 CURVE",
"758 382 OFFCURVE",
"780 358 OFFCURVE",
"761 351 CURVE",
"758 353 OFFCURVE",
"737 358 OFFCURVE",
"739 367 CURVE SMOOTH",
"740 371 OFFCURVE",
"752 398 OFFCURVE",
"743 391 CURVE SMOOTH",
"740 389 OFFCURVE",
"722 372 OFFCURVE",
"711 376 CURVE",
"713 375 OFFCURVE",
"715 374 OFFCURVE",
"717 372 CURVE",
"714 372 OFFCURVE",
"712 372 OFFCURVE",
"710 372 CURVE",
"716 370 OFFCURVE",
"708 366 OFFCURVE",
"707 363 CURVE",
"712 366 OFFCURVE",
"716 366 OFFCURVE",
"720 364 CURVE",
"721 361 OFFCURVE",
"704 350 OFFCURVE",
"708 349 CURVE SMOOTH",
"710 349 OFFCURVE",
"727 356 OFFCURVE",
"725 344 CURVE",
"725 344 OFFCURVE",
"711 335 OFFCURVE",
"711 335 CURVE",
"696 336 OFFCURVE",
"703 373 OFFCURVE",
"673 348 CURVE",
"669 347 OFFCURVE",
"676 351 OFFCURVE",
"673 348 CURVE"
);
}
);
width = 1111;
}
);
unicode = 004F;
},
{
glyphname = P;
lastChange = "2014-07-05 08:51:05 -0500";
layers = (
{
layerId = "8AC23886-B8FB-470C-B711-F8E78732F9C5";
name = Regular;
paths = (
{
closed = 1;
nodes = (
"245 8 OFFCURVE",
"239 2 OFFCURVE",
"238 0 CURVE SMOOTH",
"234 -12 OFFCURVE",
"226 10 OFFCURVE",
"218 8 CURVE SMOOTH",
"208 5 OFFCURVE",
"207 -5 OFFCURVE",
"195 -9 CURVE",
"198 -8 OFFCURVE",
"176 1 OFFCURVE",
"167 -2 CURVE SMOOTH",
"155 -6 OFFCURVE",
"148 15 OFFCURVE",
"137 13 CURVE SMOOTH",
"133 13 OFFCURVE",
"122 10 OFFCURVE",
"120 11 CURVE SMOOTH",
"103 15 OFFCURVE",
"117 16 OFFCURVE",
"109 22 CURVE SMOOTH",
"106 25 OFFCURVE",
"96 18 OFFCURVE",
"93 19 CURVE SMOOTH",
"86 24 OFFCURVE",
"82 22 OFFCURVE",
"73 30 CURVE SMOOTH",
"67 35 OFFCURVE",
"46 59 OFFCURVE",
"50 68 CURVE SMOOTH",
"51 69 OFFCURVE",
"78 83 OFFCURVE",
"79 84 CURVE SMOOTH",
"82 87 OFFCURVE",
"80 108 OFFCURVE",
"79 113 CURVE SMOOTH",
"77 124 OFFCURVE",
"95 144 OFFCURVE",
"99 155 CURVE SMOOTH",
"101 161 OFFCURVE",
"122 192 OFFCURVE",
"104 191 CURVE SMOOTH",
"99 190 OFFCURVE",
"92 215 OFFCURVE",
"88 221 CURVE SMOOTH",
"88 222 OFFCURVE",
"78 244 OFFCURVE",
"78 245 CURVE",
"73 243 OFFCURVE",
"60 252 OFFCURVE",
"57 255 CURVE SMOOTH",
"47 266 OFFCURVE",
"58 274 OFFCURVE",
"54 283 CURVE SMOOTH",
"47 300 OFFCURVE",
"64 300 OFFCURVE",
"66 310 CURVE SMOOTH",
"67 317 OFFCURVE",
"82 315 OFFCURVE",
"78 324 CURVE SMOOTH",
"70 347 OFFCURVE",
"70 340 OFFCURVE",
"86 356 CURVE SMOOTH",
"89 360 OFFCURVE",
"143 358 OFFCURVE",
"129 381 CURVE SMOOTH",
"124 388 OFFCURVE",
"136 409 OFFCURVE",
"138 417 CURVE SMOOTH",
"139 421 OFFCURVE",
"126 444 OFFCURVE",
"124 452 CURVE SMOOTH",
"120 466 OFFCURVE",
"65 454 OFFCURVE",
"85 488 CURVE",
"85 484 OFFCURVE",
"87 482 OFFCURVE",
"91 483 CURVE",
"98 487 OFFCURVE",
"87 494 OFFCURVE",
"99 498 CURVE SMOOTH",
"107 500 OFFCURVE",
"115 503 OFFCURVE",
"123 506 CURVE SMOOTH",
"147 511 OFFCURVE",
"110 521 OFFCURVE",
"110 530 CURVE SMOOTH",
"110 556 OFFCURVE",
"79 589 OFFCURVE",
"66 610 CURVE SMOOTH",
"64 612 OFFCURVE",
"89 618 OFFCURVE",
"80 627 CURVE",
"77 614 OFFCURVE",
"72 644 OFFCURVE",
"72 645 CURVE SMOOTH",
"65 664 OFFCURVE",
"91 656 OFFCURVE",
"99 659 CURVE SMOOTH",
"111 665 OFFCURVE",
"85 706 OFFCURVE",
"115 715 CURVE SMOOTH",
"125 717 OFFCURVE",
"117 745 OFFCURVE",
"133 736 CURVE SMOOTH",
"141 732 OFFCURVE",
"154 752 OFFCURVE",
"155 734 CURVE SMOOTH",
"155 729 OFFCURVE",
"158 674 OFFCURVE",
"157 674 CURVE",
"160 673 OFFCURVE",
"203 675 OFFCURVE",
"203 675 CURVE SMOOTH",
"208 688 OFFCURVE",
"194 684 OFFCURVE",
"211 697 CURVE SMOOTH",
"219 703 OFFCURVE",
"227 714 OFFCURVE",
"235 717 CURVE SMOOTH",
"257 725 OFFCURVE",
"245 704 OFFCURVE",
"260 702 CURVE SMOOTH",
"263 701 OFFCURVE",
"275 715 OFFCURVE",
"276 718 CURVE SMOOTH",
"278 735 OFFCURVE",
"299 730 OFFCURVE",
"305 723 CURVE SMOOTH",
"322 707 OFFCURVE",
"346 761 OFFCURVE",
"325 757 CURVE",
"346 761 OFFCURVE",
"321 776 OFFCURVE",
"337 787 CURVE SMOOTH",
"347 793 OFFCURVE",
"371 789 OFFCURVE",
"377 797 CURVE SMOOTH",
"382 804 OFFCURVE",
"379 808 OFFCURVE",
"391 809 CURVE SMOOTH",
"412 810 OFFCURVE",
"408 811 OFFCURVE",
"422 798 CURVE SMOOTH",
"425 796 OFFCURVE",
"436 781 OFFCURVE",
"432 778 CURVE SMOOTH",
"416 764 OFFCURVE",
"455 758 OFFCURVE",
"442 746 CURVE",
"451 744 OFFCURVE",
"449 754 OFFCURVE",
"456 754 CURVE SMOOTH",
"459 754 OFFCURVE",
"462 719 OFFCURVE",
"460 714 CURVE",
"460 715 OFFCURVE",
"437 729 OFFCURVE",
"446 708 CURVE SMOOTH",
"447 704 OFFCURVE",
"466 686 OFFCURVE",
"465 683 CURVE",
"465 684 OFFCURVE",
"469 655 OFFCURVE",
"477 662 CURVE SMOOTH",
"479 663 OFFCURVE",
"518 667 OFFCURVE",
"514 673 CURVE",
"519 666 OFFCURVE",
"513 661 OFFCURVE",
"526 663 CURVE SMOOTH",
"530 664 OFFCURVE",
"548 667 OFFCURVE",
"551 664 CURVE SMOOTH",
"557 657 OFFCURVE",
"527 635 OFFCURVE",
"526 630 CURVE",
"528 628 OFFCURVE",
"531 626 OFFCURVE",
"534 625 CURVE",
"535 623 OFFCURVE",
"511 615 OFFCURVE",
"521 601 CURVE SMOOTH",
"526 594 OFFCURVE",
"554 588 OFFCURVE",
"553 589 CURVE",
"557 580 OFFCURVE",
"552 582 OFFCURVE",
"562 573 CURVE SMOOTH",
"574 562 OFFCURVE",
"595 589 OFFCURVE",
"594 556 CURVE SMOOTH",
"594 540 OFFCURVE",
"616 527 OFFCURVE",
"627 512 CURVE",
"620 506 OFFCURVE",
"586 497 OFFCURVE",
"595 485 CURVE",
"582 485 OFFCURVE",
"574 459 OFFCURVE",
"570 453 CURVE SMOOTH",
"568 449 OFFCURVE",
"575 453 OFFCURVE",
"575 453 CURVE",
"574 444 OFFCURVE",
"578 441 OFFCURVE",
"578 436 CURVE SMOOTH",
"580 423 OFFCURVE",
"541 402 OFFCURVE",
"544 406 CURVE",
"540 405 OFFCURVE",
"538 398 OFFCURVE",
"533 396 CURVE SMOOTH",
"522 393 OFFCURVE",
"522 408 OFFCURVE",
"510 395 CURVE SMOOTH",
"477 359 OFFCURVE",
"493 410 OFFCURVE",
"463 401 CURVE",
"463 407 OFFCURVE",
"445 422 OFFCURVE",
"444 418 CURVE",
"447 431 OFFCURVE",
"452 459 OFFCURVE",
"432 437 CURVE",
"429 443 OFFCURVE",
"398 482 OFFCURVE",
"412 491 CURVE SMOOTH",
"416 493 OFFCURVE",
"435 482 OFFCURVE",
"435 493 CURVE SMOOTH",
"435 508 OFFCURVE",
"401 521 OFFCURVE",
"391 519 CURVE",
"390 525 OFFCURVE",
"367 545 OFFCURVE",
"377 552 CURVE SMOOTH",
"385 558 OFFCURVE",
"394 562 OFFCURVE",
"402 572 CURVE SMOOTH",
"404 574 OFFCURVE",
"359 572 OFFCURVE",
"354 575 CURVE SMOOTH",
"337 582 OFFCURVE",
"331 606 OFFCURVE",
"320 616 CURVE SMOOTH",
"320 616 OFFCURVE",
"299 595 OFFCURVE",
"305 596 CURVE",
"304 596 OFFCURVE",
"292 599 OFFCURVE",
"292 597 CURVE SMOOTH",
"291 591 OFFCURVE",
"306 585 OFFCURVE",
"304 580 CURVE SMOOTH",
"304 579 OFFCURVE",
"280 574 OFFCURVE",
"276 565 CURVE SMOOTH",
"273 559 OFFCURVE",
"238 549 OFFCURVE",
"244 544 CURVE SMOOTH",
"257 531 OFFCURVE",
"266 520 OFFCURVE",
"255 506 CURVE SMOOTH",
"249 499 OFFCURVE",
"219 492 OFFCURVE",
"220 481 CURVE SMOOTH",
"220 476 OFFCURVE",
"225 469 OFFCURVE",
"227 464 CURVE SMOOTH",
"232 451 OFFCURVE",
"223 460 OFFCURVE",
"221 451 CURVE SMOOTH",
"218 438 OFFCURVE",
"235 434 OFFCURVE",
"240 431 CURVE SMOOTH",
"259 418 OFFCURVE",
"253 426 OFFCURVE",
"271 430 CURVE SMOOTH",
"279 432 OFFCURVE",
"292 435 OFFCURVE",
"297 426 CURVE SMOOTH",
"298 424 OFFCURVE",
"309 408 OFFCURVE",
"315 416 CURVE SMOOTH",
"322 428 OFFCURVE",
"318 436 OFFCURVE",
"334 439 CURVE SMOOTH",
"351 442 OFFCURVE",
"356 399 OFFCURVE",
"356 388 CURVE",
"358 385 OFFCURVE",
"360 382 OFFCURVE",
"361 379 CURVE",
"361 371 OFFCURVE",
"348 373 OFFCURVE",
"345 365 CURVE SMOOTH",
"344 358 OFFCURVE",
"341 337 OFFCURVE",
"352 336 CURVE SMOOTH",
"361 334 OFFCURVE",
"358 322 OFFCURVE",
"369 329 CURVE SMOOTH",
"376 333 OFFCURVE",
"378 333 OFFCURVE",
"379 324 CURVE SMOOTH",
"381 311 OFFCURVE",
"388 326 OFFCURVE",
"393 325 CURVE SMOOTH",
"400 324 OFFCURVE",
"391 313 OFFCURVE",
"399 314 CURVE SMOOTH",
"408 314 OFFCURVE",
"416 319 OFFCURVE",
"425 321 CURVE",
"423 321 OFFCURVE",
"451 286 OFFCURVE",
"452 284 CURVE",
"451 286 OFFCURVE",
"444 271 OFFCURVE",
"444 271 CURVE",
"450 275 OFFCURVE",
"452 272 OFFCURVE",
"455 274 CURVE",
"428 247 OFFCURVE",
"421 228 OFFCURVE",
"381 222 CURVE SMOOTH",
"356 218 OFFCURVE",
"354 206 OFFCURVE",
"339 188 CURVE SMOOTH",
"322 168 OFFCURVE",
"331 180 OFFCURVE",
"317 184 CURVE",
"313 172 OFFCURVE",
"308 171 OFFCURVE",
"312 160 CURVE",
"286 155 OFFCURVE",
"288 155 OFFCURVE",
"279 129 CURVE SMOOTH",
"271 104 OFFCURVE",
"258 93 OFFCURVE",
"242 74 CURVE SMOOTH",
"213 40 OFFCURVE",
"248 16 OFFCURVE",
"248 5 CURVE"
);
},
{
closed = 1;
nodes = (
"357 445 OFFCURVE",
"367 444 OFFCURVE",
"370 445 CURVE SMOOTH",
"373 447 OFFCURVE",
"375 447 OFFCURVE",
"376 450 CURVE SMOOTH",
"377 452 OFFCURVE",
"376 459 OFFCURVE",
"376 461 CURVE SMOOTH",
"377 463 OFFCURVE",
"377 464 OFFCURVE",
"379 467 CURVE SMOOTH",
"382 470 OFFCURVE",
"384 471 OFFCURVE",
"384 471 CURVE SMOOTH",
"384 471 OFFCURVE",
"380 475 OFFCURVE",
"378 478 CURVE SMOOTH",
"377 480 OFFCURVE",
"376 488 OFFCURVE",
"377 494 CURVE SMOOTH",
"379 499 OFFCURVE",
"381 505 OFFCURVE",
"381 505 CURVE SMOOTH",
"381 505 OFFCURVE",
"370 500 OFFCURVE",
"364 498 CURVE SMOOTH",
"358 496 OFFCURVE",
"345 493 OFFCURVE",
"345 493 CURVE SMOOTH",
"345 493 OFFCURVE",
"340 490 OFFCURVE",
"340 484 CURVE SMOOTH",
"340 478 OFFCURVE",
"344 475 OFFCURVE",
"345 474 CURVE SMOOTH",
"347 472 OFFCURVE",
"352 469 OFFCURVE",
"353 468 CURVE SMOOTH",
"354 467 OFFCURVE",
"355 464 OFFCURVE",
"355 463 CURVE SMOOTH",
"355 461 OFFCURVE",
"354 454 OFFCURVE",
"354 453 CURVE SMOOTH",
"354 451 OFFCURVE",
"354 449 OFFCURVE",
"354 448 CURVE SMOOTH",
"355 447 OFFCURVE",
"357 445 OFFCURVE",
"357 445 CURVE SMOOTH"
);
}
);
width = 677;
}
);
unicode = 0050;
},
{
glyphname = Q;
lastChange = "2014-07-05 06:44:59 -0500";
layers = (
{
layerId = "8AC23886-B8FB-470C-B711-F8E78732F9C5";
name = Regular;
paths = (
{
closed = 1;
nodes = (
"341 769 OFFCURVE",
"389 770 OFFCURVE",
"388 748 CURVE SMOOTH",
"386 725 OFFCURVE",
"410 743 OFFCURVE",
"423 731 CURVE",
"422 732 OFFCURVE",
"430 726 OFFCURVE",
"430 726 CURVE SMOOTH",
"435 719 OFFCURVE",
"422 722 OFFCURVE",
"421 720 CURVE SMOOTH",
"416 708 OFFCURVE",
"451 710 OFFCURVE",
"455 709 CURVE SMOOTH",
"468 709 OFFCURVE",
"464 695 OFFCURVE",
"466 685 CURVE SMOOTH",
"469 672 OFFCURVE",
"472 670 OFFCURVE",
"488 672 CURVE SMOOTH",
"497 673 OFFCURVE",
"513 674 OFFCURVE",
"516 663 CURVE SMOOTH",
"518 655 OFFCURVE",
"531 657 OFFCURVE",
"537 658 CURVE SMOOTH",
"552 660 OFFCURVE",
"552 668 OFFCURVE",
"561 652 CURVE SMOOTH",
"564 646 OFFCURVE",
"574 643 OFFCURVE",
"579 639 CURVE SMOOTH",
"586 634 OFFCURVE",
"588 639 OFFCURVE",
"592 644 CURVE SMOOTH",
"599 651 OFFCURVE",
"607 640 OFFCURVE",
"613 639 CURVE",
"614 645 OFFCURVE",
"614 649 OFFCURVE",
"617 656 CURVE SMOOTH",
"621 665 OFFCURVE",
"619 659 OFFCURVE",
"623 665 CURVE",
"623 665 OFFCURVE",
"625 674 OFFCURVE",
"625 674 CURVE",
"660 652 OFFCURVE",
"632 701 OFFCURVE",
"647 715 CURVE SMOOTH",
"652 720 OFFCURVE",
"645 729 OFFCURVE",
"659 723 CURVE SMOOTH",
"677 716 OFFCURVE",
"684 708 OFFCURVE",
"695 695 CURVE SMOOTH",
"697 692 OFFCURVE",
"720 678 OFFCURVE",
"721 679 CURVE SMOOTH",
"732 687 OFFCURVE",
"734 701 OFFCURVE",
"745 694 CURVE SMOOTH",
"753 689 OFFCURVE",
"757 684 OFFCURVE",
"764 697 CURVE SMOOTH",
"767 702 OFFCURVE",
"792 683 OFFCURVE",
"792 682 CURVE SMOOTH",
"790 674 OFFCURVE",
"803 661 OFFCURVE",
"812 652 CURVE SMOOTH",
"825 637 OFFCURVE",
"837 619 OFFCURVE",
"857 611 CURVE SMOOTH",
"862 609 OFFCURVE",
"852 631 OFFCURVE",
"852 630 CURVE",
"850 647 OFFCURVE",
"868 621 OFFCURVE",
"866 622 CURVE",
"874 617 OFFCURVE",
"880 608 OFFCURVE",
"891 607 CURVE SMOOTH",
"902 606 OFFCURVE",
"901 597 OFFCURVE",
"911 599 CURVE",
"908 582 OFFCURVE",
"919 575 OFFCURVE",
"933 565 CURVE SMOOTH",
"945 556 OFFCURVE",
"941 573 OFFCURVE",
"953 566 CURVE SMOOTH",
"958 563 OFFCURVE",
"964 545 OFFCURVE",
"972 546 CURVE SMOOTH",
"995 549 OFFCURVE",
"986 534 OFFCURVE",
"998 522 CURVE SMOOTH",
"1000 520 OFFCURVE",
"1024 492 OFFCURVE",
"1025 492 CURVE",
"1019 491 OFFCURVE",
"1012 493 OFFCURVE",
"1013 483 CURVE SMOOTH",
"1013 479 OFFCURVE",
"1024 469 OFFCURVE",
"1025 467 CURVE SMOOTH",
"1029 458 OFFCURVE",
"1016 457 OFFCURVE",
"1021 450 CURVE SMOOTH",
"1028 441 OFFCURVE",
"1031 444 OFFCURVE",
"1031 434 CURVE SMOOTH",
"1032 420 OFFCURVE",
"1039 418 OFFCURVE",
"1048 408 CURVE",
"1025 398 OFFCURVE",
"1052 384 OFFCURVE",
"1037 375 CURVE SMOOTH",
"1032 372 OFFCURVE",
"1020 380 OFFCURVE",
"1018 369 CURVE SMOOTH",
"1018 367 OFFCURVE",
"1027 348 OFFCURVE",
"1027 348 CURVE SMOOTH",
"1024 347 OFFCURVE",
"1024 341 OFFCURVE",
"1022 342 CURVE SMOOTH",
"1018 343 OFFCURVE",
"1007 356 OFFCURVE",
"1003 350 CURVE SMOOTH",
"1001 346 OFFCURVE",
"984 328 OFFCURVE",
"987 327 CURVE SMOOTH",
"1009 321 OFFCURVE",
"966 301 OFFCURVE",
"966 293 CURVE SMOOTH",
"966 292 OFFCURVE",
"958 291 OFFCURVE",
"957 288 CURVE SMOOTH",
"955 284 OFFCURVE",
"955 276 OFFCURVE",
"955 270 CURVE SMOOTH",
"956 260 OFFCURVE",
"982 251 OFFCURVE",
"976 241 CURVE SMOOTH",
"975 239 OFFCURVE",
"964 237 OFFCURVE",
"963 235 CURVE SMOOTH",
"960 233 OFFCURVE",
"960 229 OFFCURVE",
"958 226 CURVE SMOOTH",
"946 211 OFFCURVE",
"917 231 OFFCURVE",
"903 241 CURVE SMOOTH",
"883 253 OFFCURVE",
"860 251 OFFCURVE",
"873 226 CURVE SMOOTH",
"876 220 OFFCURVE",
"880 203 OFFCURVE",
"887 202 CURVE SMOOTH",
"898 199 OFFCURVE",
"892 180 OFFCURVE",
"894 179 CURVE SMOOTH",
"900 179 OFFCURVE",
"912 186 OFFCURVE",
"919 183 CURVE SMOOTH",
"931 179 OFFCURVE",
"917 156 OFFCURVE",
"936 166 CURVE",
"937 160 OFFCURVE",
"919 155 OFFCURVE",
"926 148 CURVE SMOOTH",
"929 145 OFFCURVE",
"928 130 OFFCURVE",
"922 130 CURVE SMOOTH",
"918 130 OFFCURVE",
"917 139 OFFCURVE",
"914 141 CURVE SMOOTH",
"905 147 OFFCURVE",
"908 137 OFFCURVE",
"904 136 CURVE",
"905 136 OFFCURVE",
"879 160 OFFCURVE",
"887 136 CURVE SMOOTH",
"890 127 OFFCURVE",
"888 126 OFFCURVE",
"883 121 CURVE SMOOTH",
"878 115 OFFCURVE",
"902 97 OFFCURVE",
"882 92 CURVE SMOOTH",
"879 92 OFFCURVE",
"846 90 OFFCURVE",
"847 96 CURVE",
"843 79 OFFCURVE",
"836 88 OFFCURVE",
"826 98 CURVE SMOOTH",
"822 102 OFFCURVE",
"827 100 OFFCURVE",
"819 104 CURVE SMOOTH",
"811 107 OFFCURVE",
"818 92 OFFCURVE",
"807 97 CURVE SMOOTH",
"802 99 OFFCURVE",
"808 134 OFFCURVE",
"791 135 CURVE SMOOTH",
"785 135 OFFCURVE",
"778 112 OFFCURVE",
"776 107 CURVE",
"771 118 OFFCURVE",
"757 124 OFFCURVE",
"747 126 CURVE SMOOTH",
"738 127 OFFCURVE",
"740 149 OFFCURVE",
"727 147 CURVE SMOOTH",
"705 143 OFFCURVE",
"713 183 OFFCURVE",
"707 189 CURVE SMOOTH",
"703 193 OFFCURVE",
"705 203 OFFCURVE",
"701 209 CURVE SMOOTH",
"693 221 OFFCURVE",
"695 228 OFFCURVE",
"692 241 CURVE SMOOTH",
"690 249 OFFCURVE",
"667 246 OFFCURVE",
"660 252 CURVE SMOOTH",
"655 258 OFFCURVE",
"643 268 OFFCURVE",
"639 252 CURVE SMOOTH",
"636 240 OFFCURVE",
"636 236 OFFCURVE",
"624 236 CURVE SMOOTH",
"617 236 OFFCURVE",
"612 235 OFFCURVE",
"612 227 CURVE SMOOTH",
"611 204 OFFCURVE",
"622 204 OFFCURVE",
"634 189 CURVE SMOOTH",
"635 188 OFFCURVE",
"619 174 OFFCURVE",
"618 172 CURVE SMOOTH",
"608 163 OFFCURVE",
"619 161 OFFCURVE",
"612 152 CURVE SMOOTH",
"605 144 OFFCURVE",
"602 156 OFFCURVE",
"601 140 CURVE SMOOTH",
"601 127 OFFCURVE",
"615 117 OFFCURVE",
"624 108 CURVE",
"616 105 OFFCURVE",
"608 114 OFFCURVE",
"600 114 CURVE SMOOTH",
"595 114 OFFCURVE",
"594 102 OFFCURVE",
"595 101 CURVE SMOOTH",
"599 99 OFFCURVE",
"600 88 OFFCURVE",
"595 89 CURVE SMOOTH",
"580 92 OFFCURVE",
"591 70 OFFCURVE",
"587 70 CURVE SMOOTH",
"581 70 OFFCURVE",
"556 78 OFFCURVE",
"554 64 CURVE",
"554 64 OFFCURVE",
"542 76 OFFCURVE",
"540 71 CURVE",
"541 68 OFFCURVE",
"543 65 OFFCURVE",
"545 62 CURVE SMOOTH",
"548 58 OFFCURVE",
"542 59 OFFCURVE",
"542 54 CURVE SMOOTH",
"541 51 OFFCURVE",
"551 44 OFFCURVE",
"543 41 CURVE SMOOTH",
"539 39 OFFCURVE",
"537 47 OFFCURVE",
"535 45 CURVE SMOOTH",
"527 36 OFFCURVE",
"507 73 OFFCURVE",
"502 67 CURVE SMOOTH",
"502 67 OFFCURVE",
"499 55 OFFCURVE",
"499 55 CURVE SMOOTH",
"502 42 OFFCURVE",
"492 42 OFFCURVE",
"493 44 CURVE SMOOTH",
"494 48 OFFCURVE",
"487 51 OFFCURVE",
"485 53 CURVE SMOOTH",
"472 65 OFFCURVE",
"480 50 OFFCURVE",
"470 51 CURVE SMOOTH",
"466 52 OFFCURVE",
"461 66 OFFCURVE",
"455 61 CURVE SMOOTH",
"447 54 OFFCURVE",
"436 72 OFFCURVE",
"438 79 CURVE",
"437 76 OFFCURVE",
"455 104 OFFCURVE",
"443 100 CURVE",
"442 99 OFFCURVE",
"441 97 OFFCURVE",
"440 96 CURVE",
"445 101 OFFCURVE",
"424 112 OFFCURVE",
"423 113 CURVE SMOOTH",
"421 117 OFFCURVE",
"435 117 OFFCURVE",
"435 117 CURVE",
"432 120 OFFCURVE",
"412 128 OFFCURVE",
"412 130 CURVE SMOOTH",
"412 134 OFFCURVE",
"398 149 OFFCURVE",
"394 152 CURVE SMOOTH",
"390 155 OFFCURVE",
"373 144 OFFCURVE",
"369 143 CURVE SMOOTH",
"354 141 OFFCURVE",
"353 142 OFFCURVE",
"343 145 CURVE SMOOTH",
"338 147 OFFCURVE",
"335 139 OFFCURVE",
"333 151 CURVE SMOOTH",
"331 162 OFFCURVE",
"311 147 OFFCURVE",
"308 151 CURVE SMOOTH",
"303 156 OFFCURVE",
"298 158 OFFCURVE",
"293 163 CURVE SMOOTH",
"287 170 OFFCURVE",
"275 165 OFFCURVE",
"275 174 CURVE SMOOTH",
"275 181 OFFCURVE",
"209 186 OFFCURVE",
"218 197 CURVE SMOOTH",
"222 202 OFFCURVE",
"214 204 OFFCURVE",
"210 204 CURVE SMOOTH",
"200 204 OFFCURVE",
"201 198 OFFCURVE",
"194 209 CURVE SMOOTH",
"190 216 OFFCURVE",
"172 232 OFFCURVE",
"165 234 CURVE SMOOTH",
"154 237 OFFCURVE",
"139 249 OFFCURVE",
"127 245 CURVE SMOOTH",
"117 241 OFFCURVE",
"91 262 OFFCURVE",
"87 270 CURVE SMOOTH",
"79 284 OFFCURVE",
"66 291 OFFCURVE",
"68 309 CURVE SMOOTH",
"69 318 OFFCURVE",
"56 330 OFFCURVE",
"51 339 CURVE SMOOTH",
"47 348 OFFCURVE",
"58 350 OFFCURVE",
"64 352 CURVE SMOOTH",
"71 354 OFFCURVE",
"70 369 OFFCURVE",
"70 373 CURVE SMOOTH",
"70 382 OFFCURVE",
"66 403 OFFCURVE",
"74 405 CURVE SMOOTH",
"96 410 OFFCURVE",
"61 422 OFFCURVE",
"61 421 CURVE",
"57 429 OFFCURVE",
"69 435 OFFCURVE",
"63 444 CURVE SMOOTH",
"56 453 OFFCURVE",
"61 454 OFFCURVE",
"63 462 CURVE SMOOTH",
"66 470 OFFCURVE",
"75 464 OFFCURVE",
"80 467 CURVE SMOOTH",
"91 475 OFFCURVE",
"78 471 OFFCURVE",
"82 478 CURVE SMOOTH",
"83 479 OFFCURVE",
"96 504 OFFCURVE",
"93 506 CURVE SMOOTH",
"90 509 OFFCURVE",
"80 506 OFFCURVE",
"76 509 CURVE SMOOTH",
"68 514 OFFCURVE",
"73 528 OFFCURVE",
"71 529 CURVE",
"80 522 OFFCURVE",
"86 533 OFFCURVE",
"92 530 CURVE SMOOTH",
"94 529 OFFCURVE",
"107 523 OFFCURVE",
"110 524 CURVE SMOOTH",
"114 525 OFFCURVE",
"114 544 OFFCURVE",
"122 539 CURVE SMOOTH",
"129 535 OFFCURVE",
"122 534 OFFCURVE",
"125 531 CURVE SMOOTH",
"132 526 OFFCURVE",
"142 523 OFFCURVE",
"150 521 CURVE SMOOTH",
"157 520 OFFCURVE",
"163 518 OFFCURVE",
"168 512 CURVE SMOOTH",
"176 499 OFFCURVE",
"175 512 OFFCURVE",
"185 511 CURVE SMOOTH",
"195 509 OFFCURVE",
"192 523 OFFCURVE",
"191 530 CURVE SMOOTH",
"189 551 OFFCURVE",
"198 544 OFFCURVE",
"178 557 CURVE SMOOTH",
"171 562 OFFCURVE",
"178 580 OFFCURVE",
"183 583 CURVE SMOOTH",
"186 585 OFFCURVE",
"208 592 OFFCURVE",
"213 592 CURVE SMOOTH",
"232 589 OFFCURVE",
"215 615 OFFCURVE",
"216 627 CURVE SMOOTH",
"216 636 OFFCURVE",
"196 636 OFFCURVE",
"202 645 CURVE SMOOTH",
"206 653 OFFCURVE",
"179 661 OFFCURVE",
"179 668 CURVE SMOOTH",
"180 672 OFFCURVE",
"193 716 OFFCURVE",
"188 717 CURVE SMOOTH",
"187 717 OFFCURVE",
"160 713 OFFCURVE",
"168 724 CURVE SMOOTH",
"172 731 OFFCURVE",
"158 742 OFFCURVE",
"179 734 CURVE SMOOTH",
"185 732 OFFCURVE",
"199 740 OFFCURVE",
"203 745 CURVE SMOOTH",
"206 748 OFFCURVE",
"243 743 OFFCURVE",
"255 745 CURVE SMOOTH",
"280 748 OFFCURVE",
"319 755 OFFCURVE",
"332 757 CURVE"
);
}
);
width = 1098;
}
);
unicode = 0051;
},
{
glyphname = R;
lastChange = "2014-07-05 08:51:23 -0500";
layers = (
{
layerId = "8AC23886-B8FB-470C-B711-F8E78732F9C5";
name = Regular;
paths = (
{
closed = 1;
nodes = (
"714 758 OFFCURVE",
"682 731 OFFCURVE",
"695 716 CURVE",
"694 717 OFFCURVE",
"781 765 OFFCURVE",
"788 768 CURVE",
"780 730 OFFCURVE",
"727 720 OFFCURVE",
"704 682 CURVE SMOOTH",
"702 678 OFFCURVE",
"696 664 OFFCURVE",
"693 662 CURVE SMOOTH",
"683 654 OFFCURVE",
"668 653 OFFCURVE",
"660 643 CURVE SMOOTH",
"657 639 OFFCURVE",
"624 582 OFFCURVE",
"637 583 CURVE",
"638 580 OFFCURVE",
"667 586 OFFCURVE",
"676 580 CURVE SMOOTH",
"691 569 OFFCURVE",
"691 564 OFFCURVE",
"706 556 CURVE SMOOTH",
"723 548 OFFCURVE",
"712 522 OFFCURVE",
"730 515 CURVE SMOOTH",
"740 512 OFFCURVE",
"764 515 OFFCURVE",
"773 518 CURVE SMOOTH",
"778 519 OFFCURVE",
"816 530 OFFCURVE",
"816 515 CURVE SMOOTH",
"817 489 OFFCURVE",
"839 493 OFFCURVE",
"845 475 CURVE SMOOTH",
"849 462 OFFCURVE",
"866 489 OFFCURVE",
"867 467 CURVE SMOOTH",
"869 449 OFFCURVE",
"894 423 OFFCURVE",
"873 413 CURVE SMOOTH",
"854 404 OFFCURVE",
"851 385 OFFCURVE",
"826 381 CURVE SMOOTH",
"813 379 OFFCURVE",
"805 404 OFFCURVE",
"801 411 CURVE SMOOTH",
"790 431 OFFCURVE",
"794 421 OFFCURVE",
"778 422 CURVE SMOOTH",
"770 422 OFFCURVE",
"773 432 OFFCURVE",
"757 431 CURVE SMOOTH",
"725 428 OFFCURVE",
"755 401 OFFCURVE",
"750 394 CURVE SMOOTH",
"742 384 OFFCURVE",
"747 393 OFFCURVE",
"748 373 CURVE SMOOTH",
"748 340 OFFCURVE",
"741 360 OFFCURVE",
"725 343 CURVE SMOOTH",
"711 327 OFFCURVE",
"718 321 OFFCURVE",
"714 295 CURVE SMOOTH",
"712 281 OFFCURVE",
"703 268 OFFCURVE",
"688 266 CURVE SMOOTH",
"680 265 OFFCURVE",
"669 274 OFFCURVE",
"664 273 CURVE SMOOTH",
"662 272 OFFCURVE",
"659 249 OFFCURVE",
"659 247 CURVE SMOOTH",
"660 237 OFFCURVE",
"690 237 OFFCURVE",
"696 231 CURVE SMOOTH",
"706 222 OFFCURVE",
"693 190 OFFCURVE",
"705 186 CURVE SMOOTH",
"718 183 OFFCURVE",
"711 184 OFFCURVE",
"718 176 CURVE",
"713 181 OFFCURVE",
"734 179 OFFCURVE",
"739 176 CURVE SMOOTH",
"747 171 OFFCURVE",
"747 163 OFFCURVE",
"757 161 CURVE SMOOTH",
"761 160 OFFCURVE",
"803 185 OFFCURVE",
"801 189 CURVE",
"806 180 OFFCURVE",
"789 173 OFFCURVE",
"795 161 CURVE SMOOTH",
"800 151 OFFCURVE",
"802 139 OFFCURVE",
"804 128 CURVE SMOOTH",
"808 108 OFFCURVE",
"819 62 OFFCURVE",
"794 58 CURVE SMOOTH",
"766 54 OFFCURVE",
"745 30 OFFCURVE",
"739 4 CURVE SMOOTH",
"727 -40 OFFCURVE",
"717 16 OFFCURVE",
"709 21 CURVE SMOOTH",
"707 22 OFFCURVE",
"686 4 OFFCURVE",
"680 2 CURVE SMOOTH",
"657 -6 OFFCURVE",
"653 20 OFFCURVE",
"631 16 CURVE SMOOTH",
"625 15 OFFCURVE",
"630 41 OFFCURVE",
"629 44 CURVE SMOOTH",
"626 50 OFFCURVE",
"600 44 OFFCURVE",
"592 48 CURVE SMOOTH",
"587 51 OFFCURVE",
"579 64 OFFCURVE",
"572 61 CURVE SMOOTH",
"568 60 OFFCURVE",
"551 29 OFFCURVE",
"543 38 CURVE SMOOTH",
"541 40 OFFCURVE",
"552 69 OFFCURVE",
"535 58 CURVE SMOOTH",
"526 52 OFFCURVE",
"515 80 OFFCURVE",
"516 87 CURVE SMOOTH",
"517 91 OFFCURVE",
"515 102 OFFCURVE",
"516 108 CURVE SMOOTH",
"516 119 OFFCURVE",
"513 138 OFFCURVE",
"509 149 CURVE",
"499 140 OFFCURVE",
"472 116 OFFCURVE",
"456 130 CURVE",
"450 135 OFFCURVE",
"445 140 OFFCURVE",
"440 145 CURVE",
"435 144 OFFCURVE",
"430 142 OFFCURVE",
"425 140 CURVE",
"412 145 OFFCURVE",
"411 136 OFFCURVE",
"400 139 CURVE SMOOTH",
"394 141 OFFCURVE",
"344 141 OFFCURVE",
"338 137 CURVE SMOOTH",
"322 125 OFFCURVE",
"297 136 OFFCURVE",
"288 142 CURVE SMOOTH",
"273 153 OFFCURVE",
"254 160 OFFCURVE",
"237 170 CURVE SMOOTH",
"230 174 OFFCURVE",
"213 175 OFFCURVE",
"207 180 CURVE SMOOTH",
"204 182 OFFCURVE",
"195 206 OFFCURVE",
"201 204 CURVE",
"164 216 OFFCURVE",
"175 239 OFFCURVE",
"155 257 CURVE SMOOTH",
"146 264 OFFCURVE",
"129 267 OFFCURVE",
"137 283 CURVE SMOOTH",
"149 306 OFFCURVE",
"137 330 OFFCURVE",
"119 342 CURVE",
"119 342 OFFCURVE",
"84 381 OFFCURVE",
"84 380 CURVE",
"83 384 OFFCURVE",
"94 394 OFFCURVE",
"89 398 CURVE SMOOTH",
"78 405 OFFCURVE",
"77 406 OFFCURVE",
"84 420 CURVE SMOOTH",
"94 438 OFFCURVE",
"56 431 OFFCURVE",
"66 454 CURVE SMOOTH",
"73 472 OFFCURVE",
"39 474 OFFCURVE",
"57 493 CURVE",
"52 493 OFFCURVE",
"50 496 OFFCURVE",
"50 500 CURVE",
"92 480 OFFCURVE",
"121 530 OFFCURVE",
"155 533 CURVE SMOOTH",
"171 535 OFFCURVE",
"204 534 OFFCURVE",
"214 549 CURVE SMOOTH",
"222 562 OFFCURVE",
"251 596 OFFCURVE",
"269 574 CURVE",
"270 578 OFFCURVE",
"269 617 OFFCURVE",
"277 616 CURVE",
"283 614 OFFCURVE",
"288 611 OFFCURVE",
"293 607 CURVE",
"301 607 OFFCURVE",
"309 608 OFFCURVE",
"318 610 CURVE",
"330 609 OFFCURVE",
"349 616 OFFCURVE",
"357 607 CURVE SMOOTH",
"369 595 OFFCURVE",
"392 629 OFFCURVE",
"396 630 CURVE SMOOTH",
"403 631 OFFCURVE",
"411 618 OFFCURVE",
"414 631 CURVE SMOOTH",
"418 645 OFFCURVE",
"434 643 OFFCURVE",
"434 643 CURVE",
"437 653 OFFCURVE",
"462 669 OFFCURVE",
"471 678 CURVE",
"467 675 OFFCURVE",
"476 719 OFFCURVE",
"477 711 CURVE",
"473 740 OFFCURVE",
"483 770 OFFCURVE",
"482 800 CURVE",
"497 788 OFFCURVE",
"508 800 OFFCURVE",
"524 798 CURVE SMOOTH",
"531 797 OFFCURVE",
"517 779 OFFCURVE",
"528 782 CURVE SMOOTH",
"530 783 OFFCURVE",
"544 787 OFFCURVE",
"544 787 CURVE SMOOTH",
"560 784 OFFCURVE",
"573 784 OFFCURVE",
"585 772 CURVE SMOOTH",
"602 756 OFFCURVE",
"617 776 OFFCURVE",
"634 767 CURVE SMOOTH",
"659 753 OFFCURVE",
"642 774 OFFCURVE",
"664 781 CURVE SMOOTH",
"677 785 OFFCURVE",
"683 762 OFFCURVE",
"692 763 CURVE SMOOTH",
"702 763 OFFCURVE",
"699 783 OFFCURVE",
"710 775 CURVE"
);
}
);
width = 931.347;
}
);
unicode = 0052;
},
{
glyphname = S;
lastChange = "2014-07-05 06:48:17 -0500";
layers = (
{
layerId = "8AC23886-B8FB-470C-B711-F8E78732F9C5";
name = Regular;
paths = (
{
closed = 1;
nodes = (
"68 652 OFFCURVE",
"54 663 OFFCURVE",
"52 673 CURVE SMOOTH",
"47 690 OFFCURVE",
"54 685 OFFCURVE",
"63 690 CURVE SMOOTH",
"71 694 OFFCURVE",
"60 704 OFFCURVE",
"63 707 CURVE SMOOTH",
"68 715 OFFCURVE",
"81 719 OFFCURVE",
"86 726 CURVE SMOOTH",
"86 727 OFFCURVE",
"64 747 OFFCURVE",
"65 756 CURVE SMOOTH",
"67 762 OFFCURVE",
"60 772 OFFCURVE",
"66 777 CURVE SMOOTH",
"80 788 OFFCURVE",
"85 766 OFFCURVE",
"91 793 CURVE SMOOTH",
"96 815 OFFCURVE",
"129 788 OFFCURVE",
"143 787 CURVE",
"143 787 OFFCURVE",
"158 738 OFFCURVE",
"159 734 CURVE SMOOTH",
"159 727 OFFCURVE",
"169 720 OFFCURVE",
"164 711 CURVE SMOOTH",
"159 703 OFFCURVE",
"175 689 OFFCURVE",
"180 686 CURVE SMOOTH",
"188 679 OFFCURVE",
"194 681 OFFCURVE",
"199 668 CURVE SMOOTH",
"203 657 OFFCURVE",
"227 659 OFFCURVE",
"233 644 CURVE",
"235 647 OFFCURVE",
"245 674 OFFCURVE",
"249 673 CURVE SMOOTH",
"254 672 OFFCURVE",
"263 657 OFFCURVE",
"264 652 CURVE",
"264 653 OFFCURVE",
"263 621 OFFCURVE",
"271 631 CURVE SMOOTH",
"274 637 OFFCURVE",
"271 644 OFFCURVE",
"279 640 CURVE SMOOTH",
"285 638 OFFCURVE",
"283 635 OFFCURVE",
"286 634 CURVE SMOOTH",
"289 632 OFFCURVE",
"294 625 OFFCURVE",
"300 622 CURVE SMOOTH",
"310 616 OFFCURVE",
"306 631 OFFCURVE",
"307 633 CURVE SMOOTH",
"309 635 OFFCURVE",
"322 627 OFFCURVE",
"323 627 CURVE SMOOTH",
"327 625 OFFCURVE",
"340 628 OFFCURVE",
"344 629 CURVE SMOOTH",
"364 636 OFFCURVE",
"334 658 OFFCURVE",
"349 660 CURVE SMOOTH",
"352 660 OFFCURVE",
"344 680 OFFCURVE",
"344 681 CURVE SMOOTH",
"348 699 OFFCURVE",
"369 676 OFFCURVE",
"367 673 CURVE",
"369 675 OFFCURVE",
"366 681 OFFCURVE",
"371 681 CURVE SMOOTH",
"378 680 OFFCURVE",
"381 668 OFFCURVE",
"385 668 CURVE SMOOTH",
"396 669 OFFCURVE",
"388 690 OFFCURVE",
"389 692 CURVE",
"389 691 OFFCURVE",
"407 714 OFFCURVE",
"405 713 CURVE",
"415 714 OFFCURVE",
"406 687 OFFCURVE",
"405 686 CURVE SMOOTH",
"402 681 OFFCURVE",
"394 674 OFFCURVE",
"402 667 CURVE SMOOTH",
"405 664 OFFCURVE",
"421 678 OFFCURVE",
"422 680 CURVE",
"423 679 OFFCURVE",
"429 672 OFFCURVE",
"430 675 CURVE SMOOTH",
"437 687 OFFCURVE",
"427 687 OFFCURVE",
"444 693 CURVE SMOOTH",
"453 696 OFFCURVE",
"452 704 OFFCURVE",
"446 710 CURVE SMOOTH",
"444 711 OFFCURVE",
"430 746 OFFCURVE",
"431 747 CURVE SMOOTH",
"432 750 OFFCURVE",
"443 748 OFFCURVE",
"445 747 CURVE SMOOTH",
"455 742 OFFCURVE",
"450 758 OFFCURVE",
"457 758 CURVE SMOOTH",
"461 759 OFFCURVE",
"465 754 OFFCURVE",
"468 754 CURVE SMOOTH",
"474 755 OFFCURVE",
"468 764 OFFCURVE",
"467 763 CURVE",
"473 765 OFFCURVE",
"488 776 OFFCURVE",
"488 776 CURVE",
"496 775 OFFCURVE",
"509 755 OFFCURVE",
"508 750 CURVE SMOOTH",
"508 746 OFFCURVE",
"507 723 OFFCURVE",
"511 725 CURVE SMOOTH",
"518 728 OFFCURVE",
"520 715 OFFCURVE",
"528 721 CURVE SMOOTH",
"543 731 OFFCURVE",
"532 715 OFFCURVE",
"536 713 CURVE SMOOTH",
"547 710 OFFCURVE",
"566 714 OFFCURVE",
"578 707 CURVE SMOOTH",
"585 703 OFFCURVE",
"585 694 OFFCURVE",
"587 687 CURVE SMOOTH",
"589 680 OFFCURVE",
"602 677 OFFCURVE",
"603 673 CURVE SMOOTH",
"603 669 OFFCURVE",
"594 678 OFFCURVE",
"597 664 CURVE SMOOTH",
"598 660 OFFCURVE",
"594 649 OFFCURVE",
"598 647 CURVE SMOOTH",
"607 644 OFFCURVE",
"594 640 OFFCURVE",
"592 638 CURVE SMOOTH",
"582 629 OFFCURVE",
"603 620 OFFCURVE",
"608 618 CURVE SMOOTH",
"633 604 OFFCURVE",
"656 596 OFFCURVE",
"680 615 CURVE",
"674 618 OFFCURVE",
"675 634 OFFCURVE",
"680 632 CURVE SMOOTH",
"688 629 OFFCURVE",
"686 605 OFFCURVE",
"697 611 CURVE SMOOTH",
"703 615 OFFCURVE",
"721 627 OFFCURVE",
"729 625 CURVE SMOOTH",
"734 624 OFFCURVE",
"729 607 OFFCURVE",
"742 605 CURVE SMOOTH",
"755 603 OFFCURVE",
"754 603 OFFCURVE",
"766 604 CURVE SMOOTH",
"772 604 OFFCURVE",
"799 617 OFFCURVE",
"805 606 CURVE SMOOTH",
"810 598 OFFCURVE",
"800 592 OFFCURVE",
"808 584 CURVE SMOOTH",
"811 582 OFFCURVE",
"820 576 OFFCURVE",
"822 580 CURVE SMOOTH",
"826 585 OFFCURVE",
"834 594 OFFCURVE",
"835 582 CURVE SMOOTH",
"836 570 OFFCURVE",
"848 579 OFFCURVE",
"852 573 CURVE SMOOTH",
"860 561 OFFCURVE",
"871 549 OFFCURVE",
"881 557 CURVE SMOOTH",
"888 563 OFFCURVE",
"916 562 OFFCURVE",
"920 557 CURVE",
"915 556 OFFCURVE",
"911 555 OFFCURVE",
"907 553 CURVE",
"914 542 OFFCURVE",
"906 545 OFFCURVE",
"907 535 CURVE SMOOTH",
"907 532 OFFCURVE",
"899 537 OFFCURVE",
"899 537 CURVE SMOOTH",
"893 537 OFFCURVE",
"919 514 OFFCURVE",
"920 514 CURVE SMOOTH",
"927 505 OFFCURVE",
"912 500 OFFCURVE",
"907 497 CURVE SMOOTH",
"903 496 OFFCURVE",
"873 467 OFFCURVE",
"876 461 CURVE",
"878 461 OFFCURVE",
"880 460 OFFCURVE",
"882 460 CURVE",
"880 461 OFFCURVE",
"871 427 OFFCURVE",
"871 428 CURVE",
"858 414 OFFCURVE",
"842 444 OFFCURVE",
"834 419 CURVE",
"834 415 OFFCURVE",
"834 411 OFFCURVE",
"835 406 CURVE",
"832 398 OFFCURVE",
"824 391 OFFCURVE",
"819 384 CURVE SMOOTH",
"817 380 OFFCURVE",
"798 345 OFFCURVE",
"792 353 CURVE SMOOTH",
"791 355 OFFCURVE",
"780 352 OFFCURVE",
"777 351 CURVE SMOOTH",
"764 349 OFFCURVE",
"765 383 OFFCURVE",
"755 380 CURVE SMOOTH",
"749 377 OFFCURVE",
"735 364 OFFCURVE",
"729 373 CURVE SMOOTH",
"725 379 OFFCURVE",
"700 395 OFFCURVE",
"692 387 CURVE",
"692 387 OFFCURVE",
"680 363 OFFCURVE",
"679 364 CURVE",
"680 353 OFFCURVE",
"702 361 OFFCURVE",
"694 347 CURVE SMOOTH",
"685 332 OFFCURVE",
"666 326 OFFCURVE",
"653 315 CURVE SMOOTH",
"643 306 OFFCURVE",
"681 273 OFFCURVE",
"684 287 CURVE",
"682 277 OFFCURVE",
"687 268 OFFCURVE",
"686 258 CURVE SMOOTH",
"684 250 OFFCURVE",
"706 256 OFFCURVE",
"710 250 CURVE SMOOTH",
"717 239 OFFCURVE",
"728 249 OFFCURVE",
"731 231 CURVE SMOOTH",
"732 224 OFFCURVE",
"740 213 OFFCURVE",
"739 206 CURVE SMOOTH",
"739 201 OFFCURVE",
"716 220 OFFCURVE",
"714 222 CURVE SMOOTH",
"699 240 OFFCURVE",
"705 216 OFFCURVE",
"691 218 CURVE SMOOTH",
"679 219 OFFCURVE",
"668 201 OFFCURVE",
"678 190 CURVE SMOOTH",
"683 184 OFFCURVE",
"686 197 OFFCURVE",
"691 188 CURVE SMOOTH",
"693 185 OFFCURVE",
"694 174 OFFCURVE",
"699 174 CURVE SMOOTH",
"705 175 OFFCURVE",
"728 177 OFFCURVE",
"727 163 CURVE SMOOTH",
"726 158 OFFCURVE",
"733 149 OFFCURVE",
"730 144 CURVE SMOOTH",
"723 134 OFFCURVE",
"715 144 OFFCURVE",
"707 138 CURVE SMOOTH",
"700 133 OFFCURVE",
"685 135 OFFCURVE",
"676 132 CURVE SMOOTH",
"670 129 OFFCURVE",
"672 134 OFFCURVE",
"667 137 CURVE SMOOTH",
"658 141 OFFCURVE",
"655 139 OFFCURVE",
"645 137 CURVE",
"644 142 OFFCURVE",
"644 164 OFFCURVE",
"639 164 CURVE SMOOTH",
"633 164 OFFCURVE",
"635 177 OFFCURVE",
"625 173 CURVE SMOOTH",
"618 170 OFFCURVE",
"616 159 OFFCURVE",
"611 156 CURVE SMOOTH",
"596 150 OFFCURVE",
"584 152 OFFCURVE",
"572 162 CURVE SMOOTH",
"569 165 OFFCURVE",
"562 171 OFFCURVE",
"569 173 CURVE SMOOTH",
"580 176 OFFCURVE",
"573 183 OFFCURVE",
"573 185 CURVE SMOOTH",
"572 186 OFFCURVE",
"579 202 OFFCURVE",
"568 199 CURVE SMOOTH",
"560 197 OFFCURVE",
"562 205 OFFCURVE",
"562 210 CURVE SMOOTH",
"563 221 OFFCURVE",
"572 218 OFFCURVE",
"577 227 CURVE",
"572 229 OFFCURVE",
"560 229 OFFCURVE",
"555 228 CURVE SMOOTH",
"544 227 OFFCURVE",
"537 232 OFFCURVE",
"530 233 CURVE SMOOTH",
"526 234 OFFCURVE",
"526 216 OFFCURVE",
"527 214 CURVE SMOOTH",
"530 206 OFFCURVE",
"521 183 OFFCURVE",
"515 191 CURVE SMOOTH",
"509 201 OFFCURVE",
"500 187 OFFCURVE",
"495 183 CURVE SMOOTH",
"487 176 OFFCURVE",
"500 171 OFFCURVE",
"502 169 CURVE SMOOTH",
"503 169 OFFCURVE",
"463 103 OFFCURVE",
"447 120 CURVE",
"442 112 OFFCURVE",
"438 87 OFFCURVE",
"440 78 CURVE SMOOTH",
"441 71 OFFCURVE",
"445 47 OFFCURVE",
"448 42 CURVE SMOOTH",
"453 37 OFFCURVE",
"446 29 OFFCURVE",
"444 21 CURVE",
"445 23 OFFCURVE",
"416 8 OFFCURVE",
"417 8 CURVE",
"405 12 OFFCURVE",
"420 26 OFFCURVE",
"400 19 CURVE SMOOTH",
"391 17 OFFCURVE",
"376 8 OFFCURVE",
"371 1 CURVE SMOOTH",
"370 0 OFFCURVE",
"349 -1 OFFCURVE",
"347 -1 CURVE SMOOTH",
"346 -1 OFFCURVE",
"327 24 OFFCURVE",
"327 24 CURVE SMOOTH",
"348 28 OFFCURVE",
"311 43 OFFCURVE",
"312 48 CURVE SMOOTH",
"312 54 OFFCURVE",
"326 63 OFFCURVE",
"323 69 CURVE SMOOTH",
"320 75 OFFCURVE",
"318 66 OFFCURVE",
"317 66 CURVE SMOOTH",
"310 59 OFFCURVE",
"315 80 OFFCURVE",
"315 79 CURVE",
"311 89 OFFCURVE",
"297 91 OFFCURVE",
"298 105 CURVE SMOOTH",
"298 111 OFFCURVE",
"287 127 OFFCURVE",
"284 134 CURVE SMOOTH",
"282 140 OFFCURVE",
"279 138 OFFCURVE",
"280 144 CURVE",
"280 142 OFFCURVE",
"279 154 OFFCURVE",
"279 153 CURVE",
"277 157 OFFCURVE",
"262 183 OFFCURVE",
"259 180 CURVE SMOOTH",
"250 172 OFFCURVE",
"249 182 OFFCURVE",
"243 178 CURVE SMOOTH",
"241 176 OFFCURVE",
"236 169 OFFCURVE",
"233 166 CURVE",
"233 168 OFFCURVE",
"232 180 OFFCURVE",
"230 181 CURVE SMOOTH",
"222 184 OFFCURVE",
"220 192 OFFCURVE",
"217 198 CURVE SMOOTH",
"215 201 OFFCURVE",
"210 211 OFFCURVE",
"216 213 CURVE SMOOTH",
"228 215 OFFCURVE",
"220 219 OFFCURVE",
"225 224 CURVE SMOOTH",
"226 224 OFFCURVE",
"213 240 OFFCURVE",
"212 245 CURVE SMOOTH",
"211 252 OFFCURVE",
"205 251 OFFCURVE",
"203 258 CURVE SMOOTH",
"200 268 OFFCURVE",
"197 264 OFFCURVE",
"195 277 CURVE",
"181 275 OFFCURVE",
"180 258 OFFCURVE",
"170 253 CURVE SMOOTH",
"162 249 OFFCURVE",
"167 223 OFFCURVE",
"162 215 CURVE",
"162 215 OFFCURVE",
"148 236 OFFCURVE",
"147 239 CURVE SMOOTH",
"144 246 OFFCURVE",
"145 265 OFFCURVE",
"145 273 CURVE SMOOTH",
"144 302 OFFCURVE",
"147 330 OFFCURVE",
"144 359 CURVE SMOOTH",
"143 372 OFFCURVE",
"152 384 OFFCURVE",
"151 398 CURVE SMOOTH",
"150 413 OFFCURVE",
"150 429 OFFCURVE",
"148 444 CURVE SMOOTH",
"147 450 OFFCURVE",
"153 463 OFFCURVE",
"152 466 CURVE SMOOTH",
"149 472 OFFCURVE",
"137 476 OFFCURVE",
"141 485 CURVE SMOOTH",
"147 498 OFFCURVE",
"119 508 OFFCURVE",
"132 522 CURVE",
"136 524 OFFCURVE",
"138 523 OFFCURVE",
"139 519 CURVE",
"143 511 OFFCURVE",
"147 520 OFFCURVE",
"151 523 CURVE SMOOTH",
"156 527 OFFCURVE",
"141 539 OFFCURVE",
"139 542 CURVE SMOOTH",
"123 563 OFFCURVE",
"124 583 OFFCURVE",
"115 605 CURVE SMOOTH",
"104 630 OFFCURVE",
"83 645 OFFCURVE",
"75 645 CURVE"
);
}
);
width = 971.829;
}
);
unicode = 0053;
},
{
glyphname = U;
lastChange = "2014-07-05 07:10:58 -0500";
layers = (
{
layerId = "8AC23886-B8FB-470C-B711-F8E78732F9C5";
name = Regular;
paths = (
{
closed = 1;
nodes = (
"224 172 OFFCURVE",
"214 181 OFFCURVE",
"220 192 CURVE SMOOTH",
"220 193 OFFCURVE",
"231 193 OFFCURVE",
"231 194 CURVE SMOOTH",
"237 199 OFFCURVE",
"236 200 OFFCURVE",
"245 202 CURVE SMOOTH",
"253 204 OFFCURVE",
"252 220 OFFCURVE",
"252 220 CURVE SMOOTH",
"251 219 OFFCURVE",
"246 214 OFFCURVE",
"245 216 CURVE SMOOTH",
"241 220 OFFCURVE",
"249 227 OFFCURVE",
"240 227 CURVE",
"240 227 OFFCURVE",
"231 227 OFFCURVE",
"231 227 CURVE SMOOTH",
"231 225 OFFCURVE",
"238 223 OFFCURVE",
"235 217 CURVE SMOOTH",
"232 213 OFFCURVE",
"229 218 OFFCURVE",
"226 210 CURVE SMOOTH",
"216 189 OFFCURVE",
"207 218 OFFCURVE",
"200 220 CURVE SMOOTH",
"197 221 OFFCURVE",
"204 229 OFFCURVE",
"198 232 CURVE SMOOTH",
"187 236 OFFCURVE",
"184 239 OFFCURVE",
"176 248 CURVE SMOOTH",
"164 260 OFFCURVE",
"198 284 OFFCURVE",
"206 291 CURVE SMOOTH",
"222 304 OFFCURVE",
"235 326 OFFCURVE",
"246 343 CURVE SMOOTH",
"249 347 OFFCURVE",
"263 371 OFFCURVE",
"270 368 CURVE SMOOTH",
"277 365 OFFCURVE",
"282 344 OFFCURVE",
"286 338 CURVE",
"293 349 OFFCURVE",
"284 370 OFFCURVE",
"286 384 CURVE SMOOTH",
"288 393 OFFCURVE",
"288 422 OFFCURVE",
"295 429 CURVE SMOOTH",
"303 437 OFFCURVE",
"313 422 OFFCURVE",
"315 442 CURVE SMOOTH",
"316 448 OFFCURVE",
"315 453 OFFCURVE",
"313 459 CURVE SMOOTH",
"313 460 OFFCURVE",
"304 474 OFFCURVE",
"304 474 CURVE",
"306 479 OFFCURVE",
"307 484 OFFCURVE",
"307 493 CURVE SMOOTH",
"307 500 OFFCURVE",
"307 508 OFFCURVE",
"307 515 CURVE SMOOTH",
"308 524 OFFCURVE",
"318 541 OFFCURVE",
"323 549 CURVE SMOOTH",
"331 560 OFFCURVE",
"326 560 OFFCURVE",
"326 571 CURVE SMOOTH",
"326 582 OFFCURVE",
"344 587 OFFCURVE",
"337 599 CURVE SMOOTH",
"331 609 OFFCURVE",
"320 614 OFFCURVE",
"312 622 CURVE SMOOTH",
"301 633 OFFCURVE",
"292 644 OFFCURVE",
"276 647 CURVE",
"278 646 OFFCURVE",
"264 614 OFFCURVE",
"255 613 CURVE",
"253 613 OFFCURVE",
"251 614 OFFCURVE",
"249 615 CURVE",
"244 616 OFFCURVE",
"245 605 OFFCURVE",
"240 605 CURVE",
"237 607 OFFCURVE",
"234 608 OFFCURVE",
"231 609 CURVE",
"225 605 OFFCURVE",
"221 603 OFFCURVE",
"214 604 CURVE SMOOTH",
"211 605 OFFCURVE",
"206 613 OFFCURVE",
"202 610 CURVE SMOOTH",
"199 608 OFFCURVE",
"190 597 OFFCURVE",
"187 594 CURVE SMOOTH",
"184 589 OFFCURVE",
"168 597 OFFCURVE",
"163 600 CURVE SMOOTH",
"156 604 OFFCURVE",
"155 621 OFFCURVE",
"152 628 CURVE SMOOTH",
"147 639 OFFCURVE",
"133 655 OFFCURVE",
"132 663 CURVE SMOOTH",
"131 671 OFFCURVE",
"141 667 OFFCURVE",
"138 677 CURVE",
"135 680 OFFCURVE",
"133 680 OFFCURVE",
"130 677 CURVE",
"121 674 OFFCURVE",
"123 681 OFFCURVE",
"118 685 CURVE SMOOTH",
"108 693 OFFCURVE",
"103 696 OFFCURVE",
"96 677 CURVE SMOOTH",
"91 662 OFFCURVE",
"84 679 OFFCURVE",
"79 682 CURVE SMOOTH",
"76 684 OFFCURVE",
"51 687 OFFCURVE",
"50 691 CURVE SMOOTH",
"50 693 OFFCURVE",
"75 734 OFFCURVE",
"74 733 CURVE",
"89 736 OFFCURVE",
"63 756 OFFCURVE",
"59 759 CURVE",
"74 768 OFFCURVE",
"95 779 OFFCURVE",
"112 776 CURVE SMOOTH",
"119 774 OFFCURVE",
"132 779 OFFCURVE",
"139 782 CURVE SMOOTH",
"147 786 OFFCURVE",
"156 787 OFFCURVE",
"163 790 CURVE SMOOTH",
"174 794 OFFCURVE",
"185 786 OFFCURVE",
"195 782 CURVE SMOOTH",
"209 777 OFFCURVE",
"226 775 OFFCURVE",
"239 766 CURVE SMOOTH",
"247 761 OFFCURVE",
"247 774 OFFCURVE",
"255 775 CURVE SMOOTH",
"264 776 OFFCURVE",
"275 765 OFFCURVE",
"281 766 CURVE SMOOTH",
"286 767 OFFCURVE",
"294 764 OFFCURVE",
"291 756 CURVE SMOOTH",
"290 755 OFFCURVE",
"303 750 OFFCURVE",
"306 747 CURVE SMOOTH",
"309 745 OFFCURVE",
"322 750 OFFCURVE",
"315 739 CURVE SMOOTH",
"311 734 OFFCURVE",
"309 733 OFFCURVE",
"318 732 CURVE SMOOTH",
"322 731 OFFCURVE",
"340 712 OFFCURVE",
"339 709 CURVE SMOOTH",
"339 706 OFFCURVE",
"331 702 OFFCURVE",
"339 700 CURVE SMOOTH",
"344 700 OFFCURVE",
"351 699 OFFCURVE",
"348 692 CURVE SMOOTH",
"341 675 OFFCURVE",
"368 671 OFFCURVE",
"365 657 CURVE SMOOTH",
"365 656 OFFCURVE",
"374 641 OFFCURVE",
"375 641 CURVE SMOOTH",
"378 640 OFFCURVE",
"378 625 OFFCURVE",
"380 627 CURVE SMOOTH",
"381 628 OFFCURVE",
"377 634 OFFCURVE",
"382 633 CURVE SMOOTH",
"384 633 OFFCURVE",
"383 616 OFFCURVE",
"384 613 CURVE SMOOTH",
"388 605 OFFCURVE",
"398 601 OFFCURVE",
"403 594 CURVE SMOOTH",
"408 588 OFFCURVE",
"413 582 OFFCURVE",
"416 575 CURVE SMOOTH",
"418 568 OFFCURVE",
"415 555 OFFCURVE",
"422 550 CURVE SMOOTH",
"427 546 OFFCURVE",
"439 550 OFFCURVE",
"435 538 CURVE SMOOTH",
"433 529 OFFCURVE",
"436 526 OFFCURVE",
"437 517 CURVE SMOOTH",
"440 501 OFFCURVE",
"464 492 OFFCURVE",
"479 495 CURVE SMOOTH",
"485 496 OFFCURVE",
"511 513 OFFCURVE",
"513 499 CURVE SMOOTH",
"513 496 OFFCURVE",
"546 485 OFFCURVE",
"550 491 CURVE SMOOTH",
"556 502 OFFCURVE",
"564 492 OFFCURVE",
"574 483 CURVE SMOOTH",
"591 470 OFFCURVE",
"606 454 OFFCURVE",
"628 464 CURVE SMOOTH",
"636 468 OFFCURVE",
"631 453 OFFCURVE",
"630 451 CURVE SMOOTH",
"628 439 OFFCURVE",
"631 444 OFFCURVE",
"635 436 CURVE SMOOTH",
"638 429 OFFCURVE",
"644 438 OFFCURVE",
"645 431 CURVE SMOOTH",
"645 418 OFFCURVE",
"653 420 OFFCURVE",
"647 404 CURVE SMOOTH",
"645 399 OFFCURVE",
"666 375 OFFCURVE",
"672 370 CURVE SMOOTH",
"680 364 OFFCURVE",
"689 378 OFFCURVE",
"697 378 CURVE SMOOTH",
"708 378 OFFCURVE",
"715 377 OFFCURVE",
"726 380 CURVE SMOOTH",
"739 383 OFFCURVE",
"765 389 OFFCURVE",
"764 401 CURVE SMOOTH",
"764 417 OFFCURVE",
"791 431 OFFCURVE",
"803 435 CURVE SMOOTH",
"820 440 OFFCURVE",
"833 463 OFFCURVE",
"851 471 CURVE SMOOTH",
"855 474 OFFCURVE",
"895 481 OFFCURVE",
"891 487 CURVE",
"894 482 OFFCURVE",
"876 465 OFFCURVE",
"876 454 CURVE SMOOTH",
"876 450 OFFCURVE",
"870 439 OFFCURVE",
"876 435 CURVE SMOOTH",
"880 433 OFFCURVE",
"881 435 OFFCURVE",
"883 430 CURVE SMOOTH",
"888 418 OFFCURVE",
"894 410 OFFCURVE",
"881 397 CURVE SMOOTH",
"876 391 OFFCURVE",
"871 392 OFFCURVE",
"867 384 CURVE SMOOTH",
"863 374 OFFCURVE",
"870 373 OFFCURVE",
"871 364 CURVE SMOOTH",
"871 360 OFFCURVE",
"866 354 OFFCURVE",
"866 347 CURVE SMOOTH",
"866 340 OFFCURVE",
"868 333 OFFCURVE",
"870 326 CURVE SMOOTH",
"871 319 OFFCURVE",
"867 316 OFFCURVE",
"864 309 CURVE SMOOTH",
"861 299 OFFCURVE",
"875 293 OFFCURVE",
"869 283 CURVE SMOOTH",
"860 270 OFFCURVE",
"868 258 OFFCURVE",
"856 247 CURVE SMOOTH",
"847 237 OFFCURVE",
"860 224 OFFCURVE",
"848 212 CURVE SMOOTH",
"834 200 OFFCURVE",
"852 185 OFFCURVE",
"848 173 CURVE SMOOTH",
"844 159 OFFCURVE",
"810 168 OFFCURVE",
"801 169 CURVE SMOOTH",
"793 170 OFFCURVE",
"768 179 OFFCURVE",
"766 171 CURVE SMOOTH",
"765 164 OFFCURVE",
"758 165 OFFCURVE",
"759 158 CURVE SMOOTH",
"759 150 OFFCURVE",
"753 142 OFFCURVE",
"746 141 CURVE SMOOTH",
"739 139 OFFCURVE",
"732 132 OFFCURVE",
"728 127 CURVE SMOOTH",
"723 122 OFFCURVE",
"741 99 OFFCURVE",
"745 91 CURVE SMOOTH",
"752 75 OFFCURVE",
"756 65 OFFCURVE",
"758 49 CURVE SMOOTH",
"759 40 OFFCURVE",
"759 30 OFFCURVE",
"760 21 CURVE SMOOTH",
"761 15 OFFCURVE",
"768 13 OFFCURVE",
"769 8 CURVE",
"761 5 OFFCURVE",
"762 4 OFFCURVE",
"754 7 CURVE",
"751 7 OFFCURVE",
"749 5 OFFCURVE",
"747 2 CURVE",
"741 -5 OFFCURVE",
"741 7 OFFCURVE",
"737 8 CURVE SMOOTH",
"728 9 OFFCURVE",
"716 11 OFFCURVE",
"711 19 CURVE SMOOTH",
"710 21 OFFCURVE",
"700 45 OFFCURVE",
"701 45 CURVE",
"697 42 OFFCURVE",
"691 22 OFFCURVE",
"685 28 CURVE SMOOTH",
"683 30 OFFCURVE",
"681 41 OFFCURVE",
"677 39 CURVE SMOOTH",
"670 37 OFFCURVE",
"672 27 OFFCURVE",
"667 25 CURVE SMOOTH",
"659 23 OFFCURVE",
"649 11 OFFCURVE",
"642 10 CURVE SMOOTH",
"635 8 OFFCURVE",
"641 -21 OFFCURVE",
"628 -16 CURVE SMOOTH",
"616 -11 OFFCURVE",
"618 -15 OFFCURVE",
"609 -1 CURVE SMOOTH",
"603 8 OFFCURVE",
"585 19 OFFCURVE",
"585 31 CURVE SMOOTH",
"584 37 OFFCURVE",
"578 55 OFFCURVE",
"573 59 CURVE SMOOTH",
"569 61 OFFCURVE",
"558 48 OFFCURVE",
"554 45 CURVE",
"555 46 OFFCURVE",
"559 27 OFFCURVE",
"559 27 CURVE",
"563 23 OFFCURVE",
"548 17 OFFCURVE",
"545 17 CURVE SMOOTH",
"534 18 OFFCURVE",
"542 24 OFFCURVE",
"536 26 CURVE SMOOTH",
"528 29 OFFCURVE",
"534 27 OFFCURVE",
"525 36 CURVE SMOOTH",
"524 38 OFFCURVE",
"511 53 OFFCURVE",
"513 54 CURVE SMOOTH",
"513 54 OFFCURVE",
"522 53 OFFCURVE",
"520 57 CURVE SMOOTH",
"517 60 OFFCURVE",
"508 63 OFFCURVE",
"504 62 CURVE SMOOTH",
"501 62 OFFCURVE",
"487 54 OFFCURVE",
"489 53 CURVE",
"481 57 OFFCURVE",
"484 78 OFFCURVE",
"486 83 CURVE SMOOTH",
"489 97 OFFCURVE",
"465 99 OFFCURVE",
"459 102 CURVE SMOOTH",
"441 110 OFFCURVE",
"431 89 OFFCURVE",
"411 96 CURVE SMOOTH",
"406 97 OFFCURVE",
"398 100 OFFCURVE",
"396 106 CURVE SMOOTH",
"395 107 OFFCURVE",
"396 121 OFFCURVE",
"396 121 CURVE",
"390 124 OFFCURVE",
"371 109 OFFCURVE",
"366 107 CURVE SMOOTH",
"354 100 OFFCURVE",
"354 119 OFFCURVE",
"345 115 CURVE SMOOTH",
"342 113 OFFCURVE",
"347 103 OFFCURVE",
"339 107 CURVE SMOOTH",
"336 108 OFFCURVE",
"332 106 OFFCURVE",
"329 105 CURVE SMOOTH",
"315 100 OFFCURVE",
"313 110 OFFCURVE",
"304 117 CURVE SMOOTH",
"299 120 OFFCURVE",
"294 123 OFFCURVE",
"289 127 CURVE SMOOTH",
"286 129 OFFCURVE",
"291 135 OFFCURVE",
"289 139 CURVE SMOOTH",
"285 145 OFFCURVE",
"285 169 OFFCURVE",
"281 172 CURVE SMOOTH",
"273 177 OFFCURVE",
"261 163 OFFCURVE",
"254 165 CURVE SMOOTH",
"256 163 OFFCURVE",
"240 167 OFFCURVE",
"231 164 CURVE"
);
}
);
width = 941.337;
}
);
unicode = 0055;
},
{
glyphname = V;
lastChange = "2014-07-05 07:12:08 -0500";
layers = (
{
layerId = "8AC23886-B8FB-470C-B711-F8E78732F9C5";
name = Regular;
paths = (
{
closed = 1;
nodes = (
"202 749 OFFCURVE",
"222 740 OFFCURVE",
"237 748 CURVE SMOOTH",
"242 751 OFFCURVE",
"261 760 OFFCURVE",
"267 756 CURVE SMOOTH",
"270 753 OFFCURVE",
"280 697 OFFCURVE",
"280 697 CURVE",
"270 681 OFFCURVE",
"302 668 OFFCURVE",
"308 661 CURVE SMOOTH",
"310 659 OFFCURVE",
"325 646 OFFCURVE",
"327 646 CURVE SMOOTH",
"335 644 OFFCURVE",
"356 656 OFFCURVE",
"359 653 CURVE SMOOTH",
"367 648 OFFCURVE",
"367 662 OFFCURVE",
"378 661 CURVE SMOOTH",
"392 659 OFFCURVE",
"397 641 OFFCURVE",
"418 654 CURVE SMOOTH",
"425 659 OFFCURVE",
"426 664 OFFCURVE",
"433 668 CURVE SMOOTH",
"456 683 OFFCURVE",
"445 669 OFFCURVE",
"450 653 CURVE SMOOTH",
"457 632 OFFCURVE",
"497 622 OFFCURVE",
"513 636 CURVE SMOOTH",
"537 655 OFFCURVE",
"547 637 OFFCURVE",
"572 641 CURVE SMOOTH",
"600 647 OFFCURVE",
"587 578 OFFCURVE",
"597 567 CURVE",
"597 568 OFFCURVE",
"617 578 OFFCURVE",
"621 580 CURVE SMOOTH",
"625 582 OFFCURVE",
"651 575 OFFCURVE",
"648 569 CURVE SMOOTH",
"646 564 OFFCURVE",
"638 571 OFFCURVE",
"637 565 CURVE SMOOTH",
"636 561 OFFCURVE",
"654 543 OFFCURVE",
"656 541 CURVE SMOOTH",
"669 528 OFFCURVE",
"661 526 OFFCURVE",
"674 523 CURVE SMOOTH",
"681 521 OFFCURVE",
"673 510 OFFCURVE",
"683 509 CURVE SMOOTH",
"697 507 OFFCURVE",
"700 512 OFFCURVE",
"712 519 CURVE SMOOTH",
"718 523 OFFCURVE",
"703 548 OFFCURVE",
"703 552 CURVE SMOOTH",
"703 553 OFFCURVE",
"728 582 OFFCURVE",
"737 571 CURVE SMOOTH",
"744 563 OFFCURVE",
"749 545 OFFCURVE",
"752 536 CURVE SMOOTH",
"759 514 OFFCURVE",
"797 449 OFFCURVE",
"824 457 CURVE SMOOTH",
"850 464 OFFCURVE",
"827 487 OFFCURVE",
"844 496 CURVE SMOOTH",
"853 501 OFFCURVE",
"883 516 OFFCURVE",
"887 524 CURVE SMOOTH",
"899 544 OFFCURVE",
"893 547 OFFCURVE",
"910 528 CURVE SMOOTH",
"926 509 OFFCURVE",
"930 558 OFFCURVE",
"939 553 CURVE SMOOTH",
"946 550 OFFCURVE",
"949 518 OFFCURVE",
"955 511 CURVE SMOOTH",
"964 499 OFFCURVE",
"969 500 OFFCURVE",
"984 497 CURVE SMOOTH",
"991 495 OFFCURVE",
"1007 480 OFFCURVE",
"1011 483 CURVE SMOOTH",
"1022 494 OFFCURVE",
"1032 489 OFFCURVE",
"1047 493 CURVE",
"1052 473 OFFCURVE",
"1053 403 OFFCURVE",
"1027 402 CURVE SMOOTH",
"1019 402 OFFCURVE",
"977 373 OFFCURVE",
"990 370 CURVE SMOOTH",
"1002 367 OFFCURVE",
"1016 347 OFFCURVE",
"1013 333 CURVE",
"1014 337 OFFCURVE",
"999 363 OFFCURVE",
"989 349 CURVE",
"992 353 OFFCURVE",
"982 359 OFFCURVE",
"979 360 CURVE SMOOTH",
"962 363 OFFCURVE",
"966 372 OFFCURVE",
"963 385 CURVE SMOOTH",
"962 393 OFFCURVE",
"938 398 OFFCURVE",
"932 398 CURVE SMOOTH",
"911 398 OFFCURVE",
"916 372 OFFCURVE",
"917 353 CURVE SMOOTH",
"918 346 OFFCURVE",
"922 328 OFFCURVE",
"920 320 CURVE SMOOTH",
"919 314 OFFCURVE",
"908 314 OFFCURVE",
"904 303 CURVE",
"892 315 OFFCURVE",
"879 309 OFFCURVE",
"875 293 CURVE SMOOTH",
"870 276 OFFCURVE",
"869 271 OFFCURVE",
"859 256 CURVE SMOOTH",
"850 243 OFFCURVE",
"830 237 OFFCURVE",
"813 235 CURVE SMOOTH",
"805 234 OFFCURVE",
"744 232 OFFCURVE",
"768 214 CURVE SMOOTH",
"777 208 OFFCURVE",
"775 195 OFFCURVE",
"784 187 CURVE SMOOTH",
"795 178 OFFCURVE",
"802 175 OFFCURVE",
"799 158 CURVE SMOOTH",
"792 123 OFFCURVE",
"776 156 OFFCURVE",
"760 141 CURVE SMOOTH",
"751 132 OFFCURVE",
"678 140 OFFCURVE",
"679 143 CURVE",
"681 146 OFFCURVE",
"683 148 OFFCURVE",
"685 151 CURVE",
"685 151 OFFCURVE",
"658 176 OFFCURVE",
"656 176 CURVE SMOOTH",
"645 175 OFFCURVE",
"648 163 OFFCURVE",
"634 163 CURVE",
"637 163 OFFCURVE",
"625 144 OFFCURVE",
"623 142 CURVE SMOOTH",
"619 138 OFFCURVE",
"628 107 OFFCURVE",
"627 103 CURVE",
"624 102 OFFCURVE",
"621 102 OFFCURVE",
"618 102 CURVE",
"607 93 OFFCURVE",
"611 78 OFFCURVE",
"601 68 CURVE SMOOTH",
"591 59 OFFCURVE",
"589 46 OFFCURVE",
"578 38 CURVE SMOOTH",
"575 37 OFFCURVE",
"586 33 OFFCURVE",
"583 31 CURVE SMOOTH",
"573 22 OFFCURVE",
"549 28 OFFCURVE",
"537 26 CURVE",
"538 31 OFFCURVE",
"555 66 OFFCURVE",
"549 68 CURVE SMOOTH",
"545 69 OFFCURVE",
"527 97 OFFCURVE",
"522 101 CURVE SMOOTH",
"518 105 OFFCURVE",
"505 137 OFFCURVE",
"504 137 CURVE SMOOTH",
"503 137 OFFCURVE",
"493 131 OFFCURVE",
"493 134 CURVE SMOOTH",
"492 147 OFFCURVE",
"482 160 OFFCURVE",
"484 173 CURVE SMOOTH",
"486 185 OFFCURVE",
"506 194 OFFCURVE",
"493 202 CURVE SMOOTH",
"486 206 OFFCURVE",
"490 188 OFFCURVE",
"481 202 CURVE SMOOTH",
"474 213 OFFCURVE",
"478 212 OFFCURVE",
"468 219 CURVE SMOOTH",
"463 223 OFFCURVE",
"454 259 OFFCURVE",
"449 259 CURVE SMOOTH",
"442 258 OFFCURVE",
"438 264 OFFCURVE",
"439 271 CURVE SMOOTH",
"440 289 OFFCURVE",
"430 279 OFFCURVE",
"424 281 CURVE SMOOTH",
"412 284 OFFCURVE",
"430 339 OFFCURVE",
"409 323 CURVE SMOOTH",
"400 317 OFFCURVE",
"393 280 OFFCURVE",
"380 281 CURVE SMOOTH",
"370 282 OFFCURVE",
"375 312 OFFCURVE",
"363 319 CURVE SMOOTH",
"354 325 OFFCURVE",
"305 362 OFFCURVE",
"299 357 CURVE SMOOTH",
"291 349 OFFCURVE",
"299 331 OFFCURVE",
"279 343 CURVE SMOOTH",
"268 349 OFFCURVE",
"254 344 OFFCURVE",
"254 363 CURVE SMOOTH",
"254 365 OFFCURVE",
"264 363 OFFCURVE",
"263 374 CURVE",
"289 367 OFFCURVE",
"240 429 OFFCURVE",
"243 437 CURVE SMOOTH",
"251 458 OFFCURVE",
"240 446 OFFCURVE",
"233 461 CURVE",
"231 466 OFFCURVE",
"228 471 OFFCURVE",
"223 475 CURVE",
"215 483 OFFCURVE",
"223 491 OFFCURVE",
"218 496 CURVE SMOOTH",
"205 510 OFFCURVE",
"139 404 OFFCURVE",
"136 465 CURVE SMOOTH",
"135 485 OFFCURVE",
"113 484 OFFCURVE",
"110 503 CURVE SMOOTH",
"108 516 OFFCURVE",
"112 511 OFFCURVE",
"113 520 CURVE",
"113 517 OFFCURVE",
"102 530 OFFCURVE",
"102 535 CURVE SMOOTH",
"103 544 OFFCURVE",
"106 542 OFFCURVE",
"104 551 CURVE SMOOTH",
"101 559 OFFCURVE",
"108 570 OFFCURVE",
"111 578 CURVE SMOOTH",
"115 590 OFFCURVE",
"105 591 OFFCURVE",
"103 603 CURVE SMOOTH",
"102 614 OFFCURVE",
"78 627 OFFCURVE",
"81 635 CURVE SMOOTH",
"90 666 OFFCURVE",
"53 635 OFFCURVE",
"50 653 CURVE SMOOTH",
"49 654 OFFCURVE",
"61 669 OFFCURVE",
"62 672 CURVE SMOOTH",
"65 684 OFFCURVE",
"59 679 OFFCURVE",
"57 688 CURVE SMOOTH",
"53 700 OFFCURVE",
"96 676 OFFCURVE",
"95 676 CURVE",
"103 676 OFFCURVE",
"110 659 OFFCURVE",
"115 677 CURVE SMOOTH",
"122 701 OFFCURVE",
"125 675 OFFCURVE",
"135 668 CURVE SMOOTH",
"160 651 OFFCURVE",
"164 671 OFFCURVE",
"157 697 CURVE SMOOTH",
"152 716 OFFCURVE",
"162 708 OFFCURVE",
"174 718 CURVE SMOOTH",
"183 727 OFFCURVE",
"178 734 OFFCURVE",
"187 743 CURVE"
);
}
);
width = 1099.82;
}
);
unicode = 0056;
},
{
glyphname = W;
lastChange = "2014-07-05 07:13:03 -0500";
layers = (
{
layerId = "8AC23886-B8FB-470C-B711-F8E78732F9C5";
name = Regular;
paths = (
{
closed = 1;
nodes = (
"839 391 OFFCURVE",
"832 363 OFFCURVE",
"812 360 CURVE SMOOTH",
"777 356 OFFCURVE",
"765 307 OFFCURVE",
"741 292 CURVE SMOOTH",
"717 276 OFFCURVE",
"703 244 OFFCURVE",
"693 220 CURVE SMOOTH",
"683 197 OFFCURVE",
"635 217 OFFCURVE",
"631 207 CURVE SMOOTH",
"628 200 OFFCURVE",
"629 197 OFFCURVE",
"624 190 CURVE",
"616 206 OFFCURVE",
"613 180 OFFCURVE",
"607 185 CURVE",
"610 188 OFFCURVE",
"609 192 OFFCURVE",
"606 196 CURVE",
"598 192 OFFCURVE",
"596 186 OFFCURVE",
"585 194 CURVE",
"590 182 OFFCURVE",
"582 186 OFFCURVE",
"583 178 CURVE",
"588 182 OFFCURVE",
"591 181 OFFCURVE",
"592 175 CURVE",
"589 169 OFFCURVE",
"558 163 OFFCURVE",
"558 174 CURVE",
"552 156 OFFCURVE",
"531 146 OFFCURVE",
"516 130 CURVE SMOOTH",
"513 126 OFFCURVE",
"456 80 OFFCURVE",
"458 79 CURVE",
"461 75 OFFCURVE",
"466 74 OFFCURVE",
"470 73 CURVE",
"464 69 OFFCURVE",
"462 65 OFFCURVE",
"455 68 CURVE",
"455 68 OFFCURVE",
"459 45 OFFCURVE",
"448 51 CURVE",
"450 50 OFFCURVE",
"439 60 OFFCURVE",
"440 55 CURVE",
"442 53 OFFCURVE",
"443 51 OFFCURVE",
"445 50 CURVE",
"442 50 OFFCURVE",
"438 50 OFFCURVE",
"435 52 CURVE",
"429 48 OFFCURVE",
"442 43 OFFCURVE",
"443 40 CURVE SMOOTH",
"447 32 OFFCURVE",
"420 50 OFFCURVE",
"418 49 CURVE",
"435 38 OFFCURVE",
"415 48 OFFCURVE",
"414 45 CURVE",
"414 46 OFFCURVE",
"410 27 OFFCURVE",
"407 31 CURVE",
"409 28 OFFCURVE",
"430 32 OFFCURVE",
"422 21 CURVE SMOOTH",
"416 12 OFFCURVE",
"371 15 OFFCURVE",
"366 3 CURVE SMOOTH",
"355 -22 OFFCURVE",
"356 7 OFFCURVE",
"348 18 CURVE",
"350 15 OFFCURVE",
"376 41 OFFCURVE",
"379 47 CURVE",
"394 39 OFFCURVE",
"395 46 OFFCURVE",
"411 55 CURVE SMOOTH",
"423 60 OFFCURVE",
"407 71 OFFCURVE",
"404 68 CURVE",
"398 73 OFFCURVE",
"407 76 OFFCURVE",
"407 78 CURVE",
"405 80 OFFCURVE",
"403 81 OFFCURVE",
"401 83 CURVE",
"401 87 OFFCURVE",
"439 108 OFFCURVE",
"438 111 CURVE",
"432 102 OFFCURVE",
"418 104 OFFCURVE",
"411 107 CURVE",
"423 90 OFFCURVE",
"373 108 OFFCURVE",
"377 108 CURVE",
"392 100 OFFCURVE",
"369 97 OFFCURVE",
"367 96 CURVE",
"369 99 OFFCURVE",
"371 103 OFFCURVE",
"373 106 CURVE",
"371 114 OFFCURVE",
"361 95 OFFCURVE",
"360 96 CURVE SMOOTH",
"359 96 OFFCURVE",
"363 124 OFFCURVE",
"383 111 CURVE",
"377 117 OFFCURVE",
"387 132 OFFCURVE",
"395 136 CURVE",
"382 133 OFFCURVE",
"377 165 OFFCURVE",
"382 174 CURVE SMOOTH",
"391 189 OFFCURVE",
"413 186 OFFCURVE",
"421 203 CURVE",
"419 204 OFFCURVE",
"417 205 OFFCURVE",
"414 206 CURVE",
"433 206 OFFCURVE",
"437 248 OFFCURVE",
"444 256 CURVE SMOOTH",
"450 262 OFFCURVE",
"456 273 OFFCURVE",
"459 281 CURVE SMOOTH",
"463 295 OFFCURVE",
"440 295 OFFCURVE",
"440 304 CURVE SMOOTH",
"440 313 OFFCURVE",
"409 339 OFFCURVE",
"415 342 CURVE",
"411 352 OFFCURVE",
"408 363 OFFCURVE",
"400 370 CURVE SMOOTH",
"399 371 OFFCURVE",
"396 355 OFFCURVE",
"395 358 CURVE",
"395 360 OFFCURVE",
"396 363 OFFCURVE",
"397 365 CURVE",
"389 354 OFFCURVE",
"397 365 OFFCURVE",
"392 369 CURVE",
"391 367 OFFCURVE",
"388 351 OFFCURVE",
"383 358 CURVE",
"385 350 OFFCURVE",
"395 348 OFFCURVE",
"384 349 CURVE",
"385 346 OFFCURVE",
"384 339 OFFCURVE",
"373 336 CURVE",
"373 341 OFFCURVE",
"371 342 OFFCURVE",
"367 339 CURVE",
"376 349 OFFCURVE",
"347 341 OFFCURVE",
"347 341 CURVE SMOOTH",
"337 343 OFFCURVE",
"357 347 OFFCURVE",
"341 342 CURVE",
"338 358 OFFCURVE",
"338 337 OFFCURVE",
"335 351 CURVE",
"331 344 OFFCURVE",
"332 341 OFFCURVE",
"338 342 CURVE",
"338 337 OFFCURVE",
"322 342 OFFCURVE",
"325 347 CURVE",
"315 336 OFFCURVE",
"316 317 OFFCURVE",
"304 327 CURVE",
"306 326 OFFCURVE",
"296 307 OFFCURVE",
"297 305 CURVE",
"301 306 OFFCURVE",
"305 306 OFFCURVE",
"308 305 CURVE",
"284 292 OFFCURVE",
"270 269 OFFCURVE",
"256 248 CURVE SMOOTH",
"251 243 OFFCURVE",
"264 245 OFFCURVE",
"264 245 CURVE",
"262 250 OFFCURVE",
"252 218 OFFCURVE",
"252 218 CURVE",
"244 202 OFFCURVE",
"192 201 OFFCURVE",
"189 178 CURVE",
"177 195 OFFCURVE",
"157 209 OFFCURVE",
"146 221 CURVE SMOOTH",
"142 227 OFFCURVE",
"146 244 OFFCURVE",
"141 251 CURVE SMOOTH",
"132 265 OFFCURVE",
"125 255 OFFCURVE",
"110 255 CURVE SMOOTH",
"109 255 OFFCURVE",
"90 267 OFFCURVE",
"90 267 CURVE SMOOTH",
"87 290 OFFCURVE",
"89 266 OFFCURVE",
"71 277 CURVE SMOOTH",
"69 278 OFFCURVE",
"52 292 OFFCURVE",
"52 294 CURVE",
"50 301 OFFCURVE",
"49 307 OFFCURVE",
"51 314 CURVE",
"53 318 OFFCURVE",
"72 317 OFFCURVE",
"69 325 CURVE SMOOTH",
"68 327 OFFCURVE",
"55 327 OFFCURVE",
"58 333 CURVE SMOOTH",
"59 334 OFFCURVE",
"86 365 OFFCURVE",
"85 365 CURVE",
"95 368 OFFCURVE",
"96 390 OFFCURVE",
"98 394 CURVE SMOOTH",
"102 405 OFFCURVE",
"111 422 OFFCURVE",
"97 433 CURVE SMOOTH",
"86 440 OFFCURVE",
"89 478 OFFCURVE",
"93 488 CURVE SMOOTH",
"100 506 OFFCURVE",
"71 516 OFFCURVE",
"84 531 CURVE SMOOTH",
"113 563 OFFCURVE",
"102 535 OFFCURVE",
"127 528 CURVE SMOOTH",
"158 519 OFFCURVE",
"155 469 OFFCURVE",
"179 451 CURVE",
"175 454 OFFCURVE",
"216 507 OFFCURVE",
"219 513 CURVE SMOOTH",
"237 546 OFFCURVE",
"277 538 OFFCURVE",
"297 566 CURVE SMOOTH",
"300 571 OFFCURVE",
"314 590 OFFCURVE",
"320 591 CURVE SMOOTH",
"341 594 OFFCURVE",
"349 585 OFFCURVE",
"364 597 CURVE SMOOTH",
"373 606 OFFCURVE",
"373 639 OFFCURVE",
"389 635 CURVE SMOOTH",
"394 634 OFFCURVE",
"443 628 OFFCURVE",
"432 648 CURVE",
"433 645 OFFCURVE",
"408 657 OFFCURVE",
"425 659 CURVE SMOOTH",
"438 659 OFFCURVE",
"448 653 OFFCURVE",
"461 653 CURVE SMOOTH",
"476 654 OFFCURVE",
"473 646 OFFCURVE",
"484 655 CURVE SMOOTH",
"486 657 OFFCURVE",
"520 665 OFFCURVE",
"519 670 CURVE SMOOTH",
"515 685 OFFCURVE",
"510 690 OFFCURVE",
"532 701 CURVE SMOOTH",
"533 702 OFFCURVE",
"556 704 OFFCURVE",
"555 703 CURVE",
"562 713 OFFCURVE",
"561 733 OFFCURVE",
"561 744 CURVE SMOOTH",
"561 765 OFFCURVE",
"566 789 OFFCURVE",
"581 768 CURVE SMOOTH",
"592 753 OFFCURVE",
"627 757 OFFCURVE",
"631 742 CURVE SMOOTH",
"631 742 OFFCURVE",
"656 709 OFFCURVE",
"649 710 CURVE",
"657 709 OFFCURVE",
"643 692 OFFCURVE",
"657 691 CURVE SMOOTH",
"676 690 OFFCURVE",
"676 747 OFFCURVE",
"698 741 CURVE SMOOTH",
"709 738 OFFCURVE",
"693 695 OFFCURVE",
"706 691 CURVE SMOOTH",
"711 690 OFFCURVE",
"714 702 OFFCURVE",
"720 691 CURVE SMOOTH",
"723 685 OFFCURVE",
"722 670 OFFCURVE",
"730 666 CURVE SMOOTH",
"744 659 OFFCURVE",
"743 631 OFFCURVE",
"756 622 CURVE SMOOTH",
"761 618 OFFCURVE",
"777 596 OFFCURVE",
"779 600 CURVE SMOOTH",
"782 604 OFFCURVE",
"787 602 OFFCURVE",
"789 599 CURVE SMOOTH",
"793 594 OFFCURVE",
"775 576 OFFCURVE",
"774 570 CURVE SMOOTH",
"771 555 OFFCURVE",
"783 541 OFFCURVE",
"784 527 CURVE SMOOTH",
"784 524 OFFCURVE",
"797 533 OFFCURVE",
"799 527 CURVE SMOOTH",
"806 513 OFFCURVE",
"805 502 OFFCURVE",
"816 491 CURVE SMOOTH",
"824 482 OFFCURVE",
"839 457 OFFCURVE",
"848 452 CURVE SMOOTH",
"853 449 OFFCURVE",
"835 412 OFFCURVE",
"833 405 CURVE",
"843 410 OFFCURVE",
"841 410 OFFCURVE",
"851 402 CURVE"
);
}
);
width = 901;
}
);
unicode = 0057;
},
{
glyphname = X;
lastChange = "2014-07-05 08:48:13 -0500";
layers = (
{
layerId = "8AC23886-B8FB-470C-B711-F8E78732F9C5";
name = Regular;
paths = (
{
closed = 1;
nodes = (
"642 237 OFFCURVE",
"612 216 OFFCURVE",
"603 216 CURVE SMOOTH",
"586 216 OFFCURVE",
"568 165 OFFCURVE",
"580 162 CURVE",
"576 147 OFFCURVE",
"547 163 OFFCURVE",
"543 152 CURVE SMOOTH",
"541 145 OFFCURVE",
"545 109 OFFCURVE",
"533 106 CURVE SMOOTH",
"498 100 OFFCURVE",
"517 109 OFFCURVE",
"497 128 CURVE SMOOTH",
"487 137 OFFCURVE",
"496 140 OFFCURVE",
"479 143 CURVE SMOOTH",
"466 146 OFFCURVE",
"455 140 OFFCURVE",
"457 127 CURVE SMOOTH",
"459 116 OFFCURVE",
"423 102 OFFCURVE",
"413 107 CURVE SMOOTH",
"405 110 OFFCURVE",
"398 124 OFFCURVE",
"388 120 CURVE SMOOTH",
"384 118 OFFCURVE",
"379 86 OFFCURVE",
"370 100 CURVE SMOOTH",
"359 117 OFFCURVE",
"360 135 OFFCURVE",
"348 153 CURVE SMOOTH",
"328 180 OFFCURVE",
"315 178 OFFCURVE",
"286 168 CURVE SMOOTH",
"279 166 OFFCURVE",
"242 132 OFFCURVE",
"264 127 CURVE",
"258 124 OFFCURVE",
"244 107 OFFCURVE",
"240 107 CURVE SMOOTH",
"227 104 OFFCURVE",
"219 118 OFFCURVE",
"203 111 CURVE SMOOTH",
"191 106 OFFCURVE",
"169 102 OFFCURVE",
"156 103 CURVE SMOOTH",
"132 106 OFFCURVE",
"139 132 OFFCURVE",
"126 146 CURVE SMOOTH",
"118 154 OFFCURVE",
"107 145 OFFCURVE",
"107 155 CURVE SMOOTH",
"107 157 OFFCURVE",
"100 165 OFFCURVE",
"98 168 CURVE SMOOTH",
"90 178 OFFCURVE",
"79 173 OFFCURVE",
"69 173 CURVE SMOOTH",
"63 172 OFFCURVE",
"51 182 OFFCURVE",
"53 174 CURVE",
"40 173 OFFCURVE",
"73 230 OFFCURVE",
"76 234 CURVE SMOOTH",
"82 245 OFFCURVE",
"98 244 OFFCURVE",
"107 252 CURVE SMOOTH",
"112 256 OFFCURVE",
"117 267 OFFCURVE",
"121 274 CURVE SMOOTH",
"145 313 OFFCURVE",
"199 324 OFFCURVE",
"207 363 CURVE",
"192 355 OFFCURVE",
"171 348 OFFCURVE",
"157 337 CURVE SMOOTH",
"151 332 OFFCURVE",
"121 309 OFFCURVE",
"115 307 CURVE SMOOTH",
"106 306 OFFCURVE",
"129 371 OFFCURVE",
"128 376 CURVE SMOOTH",
"125 394 OFFCURVE",
"92 410 OFFCURVE",
"100 430 CURVE SMOOTH",
"113 458 OFFCURVE",
"135 472 OFFCURVE",
"150 497 CURVE SMOOTH",
"161 516 OFFCURVE",
"169 535 OFFCURVE",
"176 555 CURVE SMOOTH",
"185 580 OFFCURVE",
"188 576 OFFCURVE",
"215 581 CURVE",
"210 596 OFFCURVE",
"216 598 OFFCURVE",
"221 615 CURVE",
"241 609 OFFCURVE",
"229 592 OFFCURVE",
"253 620 CURVE SMOOTH",
"277 649 OFFCURVE",
"276 661 OFFCURVE",
"317 667 CURVE SMOOTH",
"362 674 OFFCURVE",
"356 692 OFFCURVE",
"387 713 CURVE SMOOTH",
"393 716 OFFCURVE",
"420 737 OFFCURVE",
"418 733 CURVE SMOOTH",
"417 732 OFFCURVE",
"414 723 OFFCURVE",
"414 722 CURVE",
"415 725 OFFCURVE",
"417 727 OFFCURVE",
"420 728 CURVE",
"420 724 OFFCURVE",
"418 722 OFFCURVE",
"414 721 CURVE",
"420 720 OFFCURVE",
"426 721 OFFCURVE",
"431 723 CURVE",
"426 721 OFFCURVE",
"422 717 OFFCURVE",
"418 713 CURVE",
"421 713 OFFCURVE",
"456 718 OFFCURVE",
"433 702 CURVE",
"447 704 OFFCURVE",
"437 686 OFFCURVE",
"438 677 CURVE",
"447 692 OFFCURVE",
"441 697 OFFCURVE",
"457 698 CURVE",
"451 703 OFFCURVE",
"457 720 OFFCURVE",
"459 723 CURVE",
"458 712 OFFCURVE",
"464 719 OFFCURVE",
"467 713 CURVE",
"466 715 OFFCURVE",
"467 718 OFFCURVE",
"468 721 CURVE",
"467 716 OFFCURVE",
"467 712 OFFCURVE",
"470 709 CURVE",
"472 709 OFFCURVE",
"491 723 OFFCURVE",
"493 727 CURVE",
"493 721 OFFCURVE",
"492 716 OFFCURVE",
"490 711 CURVE",
"493 705 OFFCURVE",
"499 716 OFFCURVE",
"504 705 CURVE",
"505 709 OFFCURVE",
"528 734 OFFCURVE",
"534 737 CURVE",
"532 731 OFFCURVE",
"531 725 OFFCURVE",
"531 719 CURVE",
"533 725 OFFCURVE",
"535 730 OFFCURVE",
"538 735 CURVE",
"539 731 OFFCURVE",
"535 710 OFFCURVE",
"540 710 CURVE SMOOTH",
"544 709 OFFCURVE",
"550 725 OFFCURVE",
"554 726 CURVE",
"562 710 OFFCURVE",
"561 693 OFFCURVE",
"556 688 CURVE SMOOTH",
"539 675 OFFCURVE",
"576 674 OFFCURVE",
"576 667 CURVE",
"551 662 OFFCURVE",
"568 613 OFFCURVE",
"545 598 CURVE",
"585 591 OFFCURVE",
"552 610 OFFCURVE",
"558 588 CURVE",
"572 599 OFFCURVE",
"577 586 OFFCURVE",
"574 578 CURVE",
"581 579 OFFCURVE",
"619 572 OFFCURVE",
"619 564 CURVE",
"631 582 OFFCURVE",
"645 567 OFFCURVE",
"655 569 CURVE SMOOTH",
"670 573 OFFCURVE",
"672 577 OFFCURVE",
"683 588 CURVE SMOOTH",
"697 605 OFFCURVE",
"679 609 OFFCURVE",
"682 616 CURVE SMOOTH",
"685 628 OFFCURVE",
"717 638 OFFCURVE",
"726 647 CURVE SMOOTH",
"746 669 OFFCURVE",
"737 666 OFFCURVE",
"725 676 CURVE",
"750 684 OFFCURVE",
"777 698 OFFCURVE",
"800 706 CURVE SMOOTH",
"815 712 OFFCURVE",
"824 694 OFFCURVE",
"842 693 CURVE SMOOTH",
"844 693 OFFCURVE",
"840 675 OFFCURVE",
"850 673 CURVE SMOOTH",
"853 673 OFFCURVE",
"884 672 OFFCURVE",
"870 683 CURVE",
"875 683 OFFCURVE",
"879 682 OFFCURVE",
"882 678 CURVE",
"876 680 OFFCURVE",
"874 678 OFFCURVE",
"874 672 CURVE",
"883 652 OFFCURVE",
"913 659 OFFCURVE",
"915 658 CURVE",
"920 660 OFFCURVE",
"925 659 OFFCURVE",
"929 654 CURVE",
"925 662 OFFCURVE",
"947 668 OFFCURVE",
"952 665 CURVE",
"948 668 OFFCURVE",
"954 648 OFFCURVE",
"957 659 CURVE",
"956 662 OFFCURVE",
"955 665 OFFCURVE",
"954 668 CURVE",
"954 670 OFFCURVE",
"966 671 OFFCURVE",
"959 675 CURVE",
"965 676 OFFCURVE",
"967 678 OFFCURVE",
"964 683 CURVE",
"972 676 OFFCURVE",
"994 646 OFFCURVE",
"1020 666 CURVE",
"1019 669 OFFCURVE",
"1020 647 OFFCURVE",
"1027 660 CURVE",
"1012 658 OFFCURVE",
"1037 666 OFFCURVE",
"1034 664 CURVE",
"1043 670 OFFCURVE",
"1049 662 OFFCURVE",
"1048 662 CURVE SMOOTH",
"1041 661 OFFCURVE",
"1037 657 OFFCURVE",
"1033 656 CURVE SMOOTH",
"1029 655 OFFCURVE",
"1037 650 OFFCURVE",
"1037 651 CURVE",
"1035 648 OFFCURVE",
"1033 648 OFFCURVE",
"1032 651 CURVE",
"1029 644 OFFCURVE",
"1040 635 OFFCURVE",
"1044 631 CURVE",
"1039 630 OFFCURVE",
"1026 617 OFFCURVE",
"1025 612 CURVE",
"1016 622 OFFCURVE",
"1033 607 OFFCURVE",
"1016 598 CURVE",
"1022 599 OFFCURVE",
"1022 597 OFFCURVE",
"1018 592 CURVE",
"1024 597 OFFCURVE",
"1036 604 OFFCURVE",
"1040 604 CURVE",
"1036 600 OFFCURVE",
"1035 595 OFFCURVE",
"1037 589 CURVE",
"1034 579 OFFCURVE",
"1023 585 OFFCURVE",
"1019 583 CURVE",
"1031 573 OFFCURVE",
"1013 564 OFFCURVE",
"1002 565 CURVE SMOOTH",
"981 569 OFFCURVE",
"1001 571 OFFCURVE",
"1005 576 CURVE",
"1004 576 OFFCURVE",
"989 579 OFFCURVE",
"988 580 CURVE SMOOTH",
"987 586 OFFCURVE",
"1000 596 OFFCURVE",
"993 599 CURVE SMOOTH",
"989 601 OFFCURVE",
"987 583 OFFCURVE",
"985 581 CURVE",
"990 589 OFFCURVE",
"974 569 OFFCURVE",
"972 572 CURVE SMOOTH",
"969 576 OFFCURVE",
"974 583 OFFCURVE",
"965 589 CURVE",
"962 589 OFFCURVE",
"962 587 OFFCURVE",
"965 585 CURVE",
"960 583 OFFCURVE",
"958 585 OFFCURVE",
"960 590 CURVE",
"957 587 OFFCURVE",
"956 583 OFFCURVE",
"955 579 CURVE",
"958 580 OFFCURVE",
"961 579 OFFCURVE",
"962 576 CURVE",
"961 574 OFFCURVE",
"924 547 OFFCURVE",
"924 556 CURVE",
"921 549 OFFCURVE",
"921 543 OFFCURVE",
"926 537 CURVE",
"917 538 OFFCURVE",
"913 542 OFFCURVE",
"904 542 CURVE",
"907 547 OFFCURVE",
"916 549 OFFCURVE",
"920 555 CURVE SMOOTH",
"923 560 OFFCURVE",
"904 547 OFFCURVE",
"906 548 CURVE SMOOTH",
"910 549 OFFCURVE",
"899 555 OFFCURVE",
"898 556 CURVE",
"895 551 OFFCURVE",
"905 533 OFFCURVE",
"892 529 CURVE SMOOTH",
"881 525 OFFCURVE",
"887 532 OFFCURVE",
"867 521 CURVE",
"871 525 OFFCURVE",
"870 527 OFFCURVE",
"866 527 CURVE",
"864 526 OFFCURVE",
"859 509 OFFCURVE",
"853 508 CURVE",
"852 511 OFFCURVE",
"853 514 OFFCURVE",
"854 516 CURVE",
"848 509 OFFCURVE",
"854 509 OFFCURVE",
"849 504 CURVE SMOOTH",
"847 501 OFFCURVE",
"830 500 OFFCURVE",
"839 512 CURVE",
"830 514 OFFCURVE",
"807 508 OFFCURVE",
"816 493 CURVE",
"819 497 OFFCURVE",
"822 501 OFFCURVE",
"827 503 CURVE",
"822 503 OFFCURVE",
"843 489 OFFCURVE",
"840 498 CURVE",
"842 497 OFFCURVE",
"842 480 OFFCURVE",
"840 479 CURVE",
"835 491 OFFCURVE",
"836 464 OFFCURVE",
"832 465 CURVE SMOOTH",
"826 467 OFFCURVE",
"832 480 OFFCURVE",
"822 480 CURVE SMOOTH",
"801 480 OFFCURVE",
"814 466 OFFCURVE",
"815 456 CURVE",
"790 454 OFFCURVE",
"823 434 OFFCURVE",
"808 420 CURVE SMOOTH",
"800 413 OFFCURVE",
"777 408 OFFCURVE",
"762 403 CURVE",
"762 406 OFFCURVE",
"777 429 OFFCURVE",
"767 432 CURVE SMOOTH",
"766 432 OFFCURVE",
"763 442 OFFCURVE",
"763 442 CURVE",
"751 441 OFFCURVE",
"761 427 OFFCURVE",
"761 427 CURVE SMOOTH",
"761 427 OFFCURVE",
"751 424 OFFCURVE",
"750 433 CURVE",
"746 430 OFFCURVE",
"743 427 OFFCURVE",
"740 424 CURVE",
"739 428 OFFCURVE",
"737 430 OFFCURVE",
"734 431 CURVE",
"726 429 OFFCURVE",
"749 398 OFFCURVE",
"748 389 CURVE",
"748 388 OFFCURVE",
"765 396 OFFCURVE",
"765 396 CURVE SMOOTH",
"766 394 OFFCURVE",
"750 376 OFFCURVE",
"748 375 CURVE",
"750 378 OFFCURVE",
"752 381 OFFCURVE",
"754 384 CURVE",
"753 391 OFFCURVE",
"735 371 OFFCURVE",
"738 374 CURVE",
"726 362 OFFCURVE",
"736 362 OFFCURVE",
"731 345 CURVE",
"727 346 OFFCURVE",
"723 348 OFFCURVE",
"719 350 CURVE",
"722 349 OFFCURVE",
"720 322 OFFCURVE",
"713 325 CURVE",
"715 330 OFFCURVE",
"713 331 OFFCURVE",
"708 325 CURVE",
"709 328 OFFCURVE",
"709 331 OFFCURVE",
"709 333 CURVE",
"711 327 OFFCURVE",
"705 311 OFFCURVE",
"696 331 CURVE",
"698 320 OFFCURVE",
"686 324 OFFCURVE",
"683 321 CURVE",
"687 325 OFFCURVE",
"665 255 OFFCURVE",
"662 271 CURVE",
"660 260 OFFCURVE",
"661 229 OFFCURVE",
"646 229 CURVE"
);
}
);
width = 1098.11;
}
);
unicode = 0058;
},
